<?xml version="1.0" encoding="UTF-8"?>
<!DOCTYPE svg PUBLIC "-//W3C//DTD SVG 1.1//EN" "http://www.w3.org/Graphics/SVG/1.1/DTD/svg11.dtd">
<!-- Creator: CorelDRAW (评估版) -->
<svg xmlns="http://www.w3.org/2000/svg" xml:space="preserve" width="33.8667mm" height="33.8667mm" version="1.1" shape-rendering="geometricPrecision" text-rendering="geometricPrecision" image-rendering="optimizeQuality" fill-rule="evenodd" clip-rule="evenodd"
viewBox="0 0 648488 648488"
 xmlns:xlink="http://www.w3.org/1999/xlink"
 xmlns:xodm="http://www.corel.com/coreldraw/odm/2003">
 <g id="圖層_x0020_1">
  <metadata id="CorelCorpID_0Corel-Layer"/>
  <g id="_105553250496640">
   <rect fill="none" x="-4" y="-5" width="648488" height="648488"/>
   <path fill="#34567C" d="M427425 48508l19759 25c5511,-10 11242,178 16692,270 12136,142 24251,1201 36221,3175 11943,2035 23575,5888 34419,11359 21779,11093 39533,28841 50636,50626 5471,10853 9308,22476 11349,34459 1947,11943 3043,24140 3190,36227 147,5551 239,11108 239,16661 50,6583 50,13168 50,19753l0 206359c0,6585 0,13168 -50,19753 0,5551 -92,11108 -239,16661 -147,12084 -1243,24282 -3190,36225 -2041,11985 -5879,23606 -11349,34461 -11102,21785 -28856,39533 -50636,50626 -10844,5471 -22476,9323 -34419,11359 -11970,1974 -24085,3031 -36221,3175 -5450,92 -11181,280 -16692,270l-19759 25 -206359 0 -19759 -25c-5511,10 -11240,-178 -16690,-270 -12136,-144 -24253,-1201 -36221,-3175 -11943,-2035 -23575,-5888 -34421,-11359 -21779,-11093 -39532,-28841 -50636,-50626 -5471,-10855 -9308,-22476 -11347,-34461 -1949,-11943 -3043,-24140 -3192,-36225 -147,-5553 -237,-11110 -237,-16661 -52,-6585 -52,-13168 -52,-19753l0 -206359c0,-6585 0,-13170 52,-19753 0,-5553 90,-11110 237,-16661 149,-12086 1243,-24284 3192,-36227 2039,-11983 5877,-23606 11347,-34459 11104,-21785 28856,-39533 50636,-50626 10846,-5471 22478,-9323 34421,-11359 11968,-1974 24085,-3033 36221,-3175 5450,-92 11179,-280 16690,-270l19759 -25 206359 0z"/>
  </g>
  <g id="_105553250492352">
   <path fill="white" fill-rule="nonzero" d="M314799 275011c-4601,2164 -9859,4090 -15665,5750 -19127,5463 -45358,8843 -74144,8843 -28793,0 -55021,-3380 -74146,-8843 -5808,-1660 -11066,-3586 -15667,-5750l0 41981c0,2491 8261,6103 21609,9913 17295,4938 41402,8000 68204,8000 26798,0 50908,-3062 68200,-8000 13344,-3811 21609,-7422 21609,-9913l0 -41981zm0 66984c-4609,2164 -9863,4094 -15675,5752 -19121,5459 -45353,8845 -74134,8845 -28789,0 -55017,-3385 -74138,-8845 -5811,-1658 -11066,-3588 -15675,-5752l0 41975c0,2493 8261,6103 21609,9915 17295,4938 41402,7998 68204,7998 26798,0 50908,-3060 68200,-7998 13344,-3812 21609,-7422 21609,-9915l0 -41975zm0 66979c-4609,2164 -9863,4094 -15675,5754 -19121,5457 -45353,8843 -74134,8843 -28789,0 -55017,-3385 -74138,-8843 -5811,-1660 -11066,-3590 -15675,-5754l0 41977c0,2491 8261,6101 21605,9913 17299,4942 41402,7998 68208,7998 26798,0 50904,-3056 68204,-7998 13344,-3812 21605,-7422 21605,-9913l0 -41977zm-201309 -158969c0,-13388 14281,-24167 37362,-30756 19121,-5463 45349,-8848 74138,-8848 28782,0 55013,3385 74134,8848 23081,6589 37362,17367 37362,30756l0 200946c0,13388 -14281,24161 -37358,30756 -19125,5463 -45360,8843 -74138,8843 -28789,0 -55017,-3380 -74142,-8843 -23077,-6595 -37358,-17367 -37358,-30756l0 -200946zm179701 -9913c-17297,-4942 -41402,-8004 -68200,-8004 -26802,0 -50906,3062 -68204,8004 -13348,3811 -21609,7420 -21609,9913 0,2491 8261,6101 21601,9913 17297,4942 41402,7998 68212,7998 26802,0 50908,-3056 68210,-7998 13339,-3812 21599,-7422 21599,-9913 0,-2493 -8261,-6103 -21609,-9913z"/>
   <path fill="red" fill-rule="nonzero" d="M381257 204264l32506 -21308 7311 -4822 3422 5132 2799 4199 2799 4201 1867 2799 -4044 2487 -26285 16954c-10422,6844 -17888,11510 -22088,14309 2489,2799 6533,7621 12600,14465l14932 17109 2177 2644 -3577 2644 -5601 4199 -5444 4199 -6844 5134 -4354 -4822 -18354 -21308 -18509 -21310 -2334 -2799 4356 -2799 32663 -21308z"/>
   <path id="_1" fill="red" fill-rule="nonzero" d="M479524 246880c3734,934 6378,2644 7778,5134 1400,2332 1555,5134 777,8398l0 157 -155 0 -157 620c-1865,5601 -6064,9800 -12598,12600 -2955,1245 -5599,1867 -7933,1867l-1710 0 -467 0 -310 0c-3267,-312 -6066,-1557 -8400,-3422 -2177,-2022 -3265,-4356 -2955,-6844 155,-1712 467,-3112 933,-4356 1245,-3887 3734,-7154 7466,-9798 4511,-3267 9178,-4822 13687,-4822 1400,0 2801,155 4044,465zm-13997 -6221l8711 -29084 1400 -4511 6999 0 5599 0c3267,0 5289,-155 6221,-155 1867,-312 3267,-777 4356,-1245 933,-622 2022,-1710 2955,-3267 933,-1245 1710,-2955 2332,-4977 1867,-5599 1557,-9798 -777,-12598 -3110,-3734 -8554,-5756 -16332,-6066l-2487 0 -6688 0 1400 -4511 4044 -11820 1400 -4511 6844 0 1867 0c9643,0 17574,1555 24108,4354 6376,2956 11043,7156 13842,12910 3267,6378 3734,13532 1090,21153 -2644,7778 -6999,14309 -13065,19443 -6066,5132 -13844,8554 -23330,9953 -1557,4823 -3267,9333 -5289,13844l-155 1088 -1557 4511 -6844 0 -5754 0 -5599 -155 -6533 0 1245 -4356z"/>
  </g>
 </g>
</svg>
