<?xml version="1.0" encoding="UTF-8"?>
<!DOCTYPE svg PUBLIC "-//W3C//DTD SVG 1.1//EN" "http://www.w3.org/Graphics/SVG/1.1/DTD/svg11.dtd">
<!-- Creator: CorelDRAW -->
<svg xmlns="http://www.w3.org/2000/svg" xml:space="preserve" width="33.8667mm" height="33.8667mm" version="1.1" style="shape-rendering:geometricPrecision; text-rendering:geometricPrecision; image-rendering:optimizeQuality; fill-rule:evenodd; clip-rule:evenodd"
viewBox="0 0 3372460 3372460"
 xmlns:xlink="http://www.w3.org/1999/xlink"
 xmlns:xodm="http://www.corel.com/coreldraw/odm/2003">
 <defs>
  <style type="text/css">
   <![CDATA[
    .fil0 {fill:none}
    .fil1 {fill:#85A89B}
    .fil2 {fill:white;fill-rule:nonzero}
   ]]>
  </style>
 </defs>
 <g id="圖層_x0020_1">
  <metadata id="CorelCorpID_0Corel-Layer"/>
  <rect class="fil0" x="-22" y="-25" width="3372460" height="3372460"/>
  <path class="fil1" d="M2222814 252267l102757 129c28659,-50 58464,926 86804,1404 63114,737 126119,6244 188366,16510 62108,10585 122603,30621 178996,59071 113263,57687 205594,149988 263330,263281 28450,56442 48406,116887 59021,179205 10127,62108 15823,125541 16590,188396 767,28868 1245,57767 1245,86645 259,34236 259,68481 259,102727l0 1073168c0,34246 0,68481 -259,102727 0,28868 -478,57767 -1245,86645 -767,62845 -6463,126278 -16590,188386 -10615,62327 -30571,122763 -59021,179215 -57737,113293 -150068,205594 -263330,263281 -56392,28450 -116887,48486 -178996,59071 -62248,10267 -125252,15764 -188366,16510 -28341,478 -58145,1454 -86804,1404l-102757 129 -1073168 0 -102757 -129c-28659,50 -58454,-926 -86794,-1404 -63114,-747 -126129,-6244 -188366,-16510 -62108,-10585 -122603,-30621 -179006,-59071 -113263,-57687 -205584,-149988 -263330,-263281 -28450,-56452 -48406,-116887 -59011,-179215 -10137,-62108 -15823,-125541 -16600,-188386 -767,-28878 -1235,-57777 -1235,-86645 -269,-34246 -269,-68481 -269,-102727l0 -1073168c0,-34246 0,-68491 269,-102727 0,-28878 468,-57777 1235,-86645 777,-62855 6463,-126288 16600,-188396 10605,-62317 30561,-122763 59011,-179205 57747,-113293 150068,-205594 263330,-263281 56402,-28450 116897,-48486 179006,-59071 62238,-10267 125252,-15774 188366,-16510 28341,-478 58135,-1454 86794,-1404l102757 -129 1073168 0z"/>
  <g id="_105553433282944">
   <path class="fil2" d="M809499 1770639c0,0 20,0 20,0 93237,0 168839,75601 168839,168839 0,70344 -43676,133388 -109538,158084l-149 -2390c0,35251 16889,68282 45120,88597l9719 6423 708216 408947c29884,17486 66340,19578 98166,5975l11511 -5975 708226 -408947c30402,-17476 50647,-48516 54381,-83379l597 -11651 0 -158223c10,-219 0,-468 0,-697 0,-32583 26429,-59011 59021,-59011 29794,0 54919,22226 58563,51792l448 7917 0 158373c0,75601 -37353,146433 -100108,188715l-13742 8663 -708226 408947c-34574,19946 -73909,30492 -113860,30492 -34574,0 -68740,-7867 -99809,-23003l-14190 -7478 -708226 -408947c-65554,-37781 -108164,-105744 -113532,-181236l-448 -13752c-66311,-24487 -110355,-87700 -110355,-158383 0,-93237 75611,-168839 168839,-168839 209,0 478,0 677,0l-159 149zm806243 -466913l241911 720175 -150914 0 -48864 -155395 -233536 0 -48555 155395 -150914 0 242956 -720175 147917 0zm465429 0l0 720175 -144491 0 0 -720175 144342 0 149 0zm-538192 197816l-2987 0 -80083 253711 162704 0 -79634 -253711zm227262 -845239l15833 6881 14340 7618 708226 408947c65594,37950 108025,105784 113412,181236l448 13752c66012,24636 109817,87710 109817,158183 0,93237 -75601,168839 -168839,168839 -93237,0 -168839,-75601 -168839,-168839 0,-70473 43805,-133547 109827,-158183l0 2539c-20,-35052 -16809,-67984 -45130,-88607l-9709 -6423 -708076 -409096c-16690,-9649 -35660,-14758 -54958,-14758 -14897,0 -29665,3047 -43347,8932l-11651 5975 -708226 409096c-30362,17516 -50537,48526 -54241,83379l-597 11651 -10 156281c0,279 10,578 10,856 0,32593 -26429,59021 -59021,59021 -29794,0 -54939,-22226 -58573,-51802l-597 -8076 0 -156431c0,-75751 37502,-146433 100098,-188864l13901 -8663 708375 -408947c60216,-34813 132980,-40041 197677,-14499l-149 0z" p-id="3207"/>
  </g>
 </g>
</svg>
