<?xml version="1.0" encoding="UTF-8"?>
<!DOCTYPE svg PUBLIC "-//W3C//DTD SVG 1.1//EN" "http://www.w3.org/Graphics/SVG/1.1/DTD/svg11.dtd">
<!-- Creator: CorelDRAW -->
<svg xmlns="http://www.w3.org/2000/svg" xml:space="preserve" width="33.8667mm" height="33.8667mm" version="1.1" style="shape-rendering:geometricPrecision; text-rendering:geometricPrecision; image-rendering:optimizeQuality; fill-rule:evenodd; clip-rule:evenodd"
viewBox="0 0 3372420 3372420"
 xmlns:xlink="http://www.w3.org/1999/xlink"
 xmlns:xodm="http://www.corel.com/coreldraw/odm/2003">
 <defs>
  <style type="text/css">
   <![CDATA[
    .fil0 {fill:none}
    .fil1 {fill:white}
    .fil3 {fill:#1BA0D8;fill-rule:nonzero}
    .fil2 {fill:#70C6BE;fill-rule:nonzero}
   ]]>
  </style>
 </defs>
 <g id="圖層_x0020_1">
  <metadata id="CorelCorpID_0Corel-Layer"/>
  <g id="_105553418383232">
   <rect class="fil0" x="-22" y="-25" width="3372420" height="3372420"/>
   <path class="fil1" d="M2222798 252264l102756 129c28659,-50 58463,926 86803,1404 63113,737 126117,6244 188364,16510 62108,10585 122602,30621 178994,59070 113261,57686 205591,149986 263327,263278 28450,56442 48405,116886 59021,179203 10127,62108 15823,125540 16590,188394 767,28868 1245,57766 1245,86644 259,34235 259,68481 259,102726l0 1073155c0,34245 0,68481 -259,102726 0,28868 -478,57766 -1245,86644 -767,62844 -6463,126276 -16590,188384 -10615,62327 -30571,122761 -59021,179213 -57736,113291 -150066,205591 -263327,263278 -56392,28450 -116886,48485 -178994,59070 -62247,10267 -125251,15763 -188364,16510 -28340,478 -58144,1454 -86803,1404l-102756 129 -1073155 0 -102756 -129c-28659,50 -58453,-926 -86793,-1404 -63113,-747 -126127,-6244 -188364,-16510 -62108,-10585 -122602,-30621 -179004,-59070 -113261,-57686 -205581,-149986 -263327,-263278 -28450,-56451 -48405,-116886 -59011,-179213 -10137,-62108 -15823,-125540 -16600,-188384 -767,-28878 -1235,-57776 -1235,-86644 -269,-34245 -269,-68481 -269,-102726l0 -1073155c0,-34245 0,-68491 269,-102726 0,-28878 468,-57776 1235,-86644 777,-62854 6463,-126286 16600,-188394 10605,-62317 30561,-122761 59011,-179203 57746,-113291 150066,-205591 263327,-263278 56402,-28450 116896,-48485 179004,-59070 62237,-10267 125251,-15773 188364,-16510 28340,-478 58134,-1454 86793,-1404l102756 -129 1073155 0z"/>
   <g>
    <g>
     <g id="__x0023_70c6beff">
      <path id="svg_2" class="fil2" d="M1705543 721940c23102,-2639 47161,2529 66469,15734 29097,18791 49690,47479 67077,76835 78936,132301 158401,264313 237297,396654 105056,176952 210142,353875 314929,531026 72494,122512 145177,244955 218158,367198 48077,81665 97647,162464 143603,245353 19796,34693 30660,74754 29027,114795 -1145,30959 -6761,62775 -23023,89611 -22814,37850 -61042,64567 -102507,78488 -22107,7956 -45309,13364 -68899,13403 -257333,-100 -514655,80 -771968,60 -22127,-568 -44631,-3117 -65394,-11123 -15196,-6483 -30143,-14449 -42032,-26100 -20284,-20075 -33429,-48545 -29904,-77463 1822,-20205 6761,-40140 15086,-58652 8076,-19000 19428,-36307 29286,-54390 43038,-76766 88118,-152376 135010,-226851 15007,-23441 28081,-48754 48854,-67813 22067,-20205 49780,-36058 80141,-38119 24407,-1016 48405,7429 68740,20513 22953,13463 41017,35868 47061,61998 8733,33080 -657,67833 -14678,98056 -15734,34325 -38159,65483 -50198,101481 -2191,8185 -5168,18512 936,25721 6204,5835 14817,8136 22893,10157 23331,5188 47410,3844 71159,4003 87510,-20 175020,0 262531,0 17327,-289 34673,588 52010,-428 12497,-1434 26130,-3485 35858,-12208 6413,-5686 7210,-15265 4780,-23053 -5327,-17227 -14509,-32921 -23570,-48405 -233344,-398486 -465394,-797759 -701187,-1194841 -7707,-12756 -14319,-26598 -25343,-36904 -5447,-5238 -13513,-8205 -20942,-6054 -6323,2280 -10605,7837 -14797,12776 -10386,13244 -19687,27344 -28221,41853 -40628,66021 -79504,133098 -119316,199607 -229281,385889 -458602,771769 -687864,1157678 -14220,26179 -29346,51871 -45836,76686 -14489,21310 -32074,41286 -54729,54121 -26697,15435 -59688,21559 -89611,12716 -21838,-6751 -42958,-17735 -58592,-34693 -19806,-19607 -28569,-48286 -27564,-75730 1016,-28898 10685,-57059 25243,-81874 139202,-236461 279310,-472414 419926,-708058 72344,-122124 144360,-244427 217113,-366302 73589,-123498 147347,-246867 220608,-370554 40877,-69656 82053,-139162 125012,-207583 13204,-21678 30292,-41126 50875,-56103 16879,-11511 35819,-21390 56491,-23222l0 0z"/>
     </g>
     <g id="__x0023_1ba0d8ff">
      <path id="svg_3" class="fil3" d="M1693833 1635967c34673,-5586 71418,2699 100157,22903 21818,16849 36974,42092 41345,69337 2977,20762 956,42291 -6692,61918 -5875,16978 -14290,32941 -23670,48246 -133715,224770 -267400,449560 -401135,674331 -17118,28141 -32712,57318 -52428,83766 -14339,17715 -32244,32772 -52916,42570 -43705,23272 -100724,9082 -133954,-25920 -16839,-16909 -26727,-40120 -28002,-63870 -1912,-24576 3515,-49431 14638,-71349 9789,-21320 21350,-41714 33429,-61789 58772,-98872 117016,-198053 175608,-297015 80201,-136095 161727,-271393 242436,-407170 8574,-15445 19269,-29675 31288,-42590 16202,-16450 36755,-29754 59897,-33369l0 0z"/>
     </g>
    </g>
   </g>
  </g>
 </g>
</svg>
