<?xml version="1.0" encoding="UTF-8"?>
<!DOCTYPE svg PUBLIC "-//W3C//DTD SVG 1.1//EN" "http://www.w3.org/Graphics/SVG/1.1/DTD/svg11.dtd">
<!-- Creator: CorelDRAW (评估版) -->
<svg xmlns="http://www.w3.org/2000/svg" xml:space="preserve" width="33.8666mm" height="33.8666mm" version="1.1" shape-rendering="geometricPrecision" text-rendering="geometricPrecision" image-rendering="optimizeQuality" fill-rule="evenodd" clip-rule="evenodd"
viewBox="0 0 1294788 1294788"
 xmlns:xlink="http://www.w3.org/1999/xlink"
 xmlns:xodm="http://www.corel.com/coreldraw/odm/2003">
 <g id="圖層_x0020_1">
  <metadata id="CorelCorpID_0Corel-Layer"/>
  <g id="_105553291118304">
   <g id="_105553240538432">
    <rect fill="none" x="-2" y="2" width="1294788" height="1294788"/>
    <path fill="#AB8D7F" d="M853407 96872l39452 50c11003,-19 22446,356 33327,539 24231,283 48421,2397 72320,6339 23845,4064 47071,11756 68722,22675 43485,22152 78934,57589 101105,101085 10919,21670 18581,44877 22656,68802 3892,23845 6075,48199 6369,72331 294,11083 478,22178 478,33262 99,13148 99,26296 99,39444l0 412019c0,13144 0,26292 -99,39440 0,11083 -184,22178 -478,33266 -294,24128 -2477,48482 -6369,72327 -4076,23929 -11737,47132 -22656,68806 -22171,43493 -57619,78934 -101105,101082 -21651,10923 -44877,18615 -68722,22679 -23899,3942 -48088,6052 -72320,6339 -10881,184 -22324,558 -33327,539l-39452 50 -412019 0 -39452 -50c-11003,19 -22442,-356 -33323,-539 -24231,-287 -48425,-2397 -72320,-6339 -23845,-4064 -47071,-11756 -68722,-22679 -43485,-22148 -78934,-57589 -101105,-101082 -10923,-21674 -18585,-44877 -22656,-68806 -3892,-23845 -6075,-48199 -6369,-72327 -298,-11087 -478,-22182 -478,-33266 -103,-13148 -103,-26296 -103,-39440l0 -412019c0,-13148 0,-26296 103,-39444 0,-11083 180,-22178 478,-33262 294,-24132 2477,-48486 6369,-72331 4072,-23926 11733,-47132 22656,-68802 22171,-43497 57619,-78934 101105,-101085 21651,-10919 44877,-18611 68722,-22675 23895,-3942 48088,-6056 72320,-6339 10881,-184 22320,-558 33323,-539l39452 -50 412019 0z"/>
   </g>
   <g id="_105553240525856">
    <polygon fill="#E72119" fill-rule="nonzero" points="589618,349379 801469,349379 801469,938359 589618,938359 " p-id="4142"/>
    <polygon fill="white" fill-rule="nonzero" points="645914,404518 745023,404518 745023,676003 645914,676003 " p-id="4143"/>
    <path fill="#A5B8BA" fill-rule="nonzero" d="M749519 818647c0,30471 -24231,55283 -54125,55283 -29890,0 -54121,-24667 -54121,-55283 0,-30475 24231,-55287 54121,-55287 30035,145 54125,24813 54125,55287z" p-id="4144"/>
    <path fill="#4E4D4D" fill-rule="nonzero" d="M736023 818647c0,22924 -18137,41352 -40629,41352 -22347,0 -40629,-18573 -40629,-41352 0,-22928 18137,-41356 40629,-41356 22492,0 40629,18573 40629,41356z" p-id="4145"/>
    <polygon fill="#F5D645" fill-rule="nonzero" points="433627,931389 229319,874362 381831,306131 586135,363307 " p-id="4146"/>
    <polygon fill="white" fill-rule="nonzero" points="447269,663234 351647,636536 421875,374628 517505,401467 " p-id="4147"/>
    <path fill="#A5B8BA" fill-rule="nonzero" d="M414622 802100c-7834,29458 -37727,46723 -66455,38744 -28877,-8128 -45710,-38454 -37873,-67908 7834,-29458 37727,-46723 66455,-38744 28877,8124 45855,38454 37873,67908z" p-id="4148"/>
    <path fill="#4E4D4D" fill-rule="nonzero" d="M401566 798472c-5949,22056 -28296,35116 -49920,29022 -21620,-6094 -34390,-28877 -28441,-50933 5949,-22052 28296,-35112 49920,-29018 21620,6094 34390,28873 28441,50929z" p-id="4149"/>
    <polygon fill="#298291" fill-rule="nonzero" points="803644,349379 1015496,349379 1015496,938359 803644,938359 " p-id="4150"/>
    <polygon fill="white" fill-rule="nonzero" points="860094,404518 959344,404518 959344,676003 860094,676003 " p-id="4151"/>
    <path fill="#A5B8BA" fill-rule="nonzero" d="M963699 818647c0,30471 -24231,55283 -54125,55283 -29894,0 -54125,-24667 -54125,-55283 0,-30475 24231,-55287 54125,-55287 29894,145 54125,24813 54125,55287z" p-id="4152"/>
    <path fill="#4E4D4D" fill-rule="nonzero" d="M950203 818647c0,22924 -18137,41352 -40629,41352 -22347,0 -40629,-18573 -40629,-41352 0,-22928 18137,-41356 40629,-41356 22492,0 40629,18573 40629,41356z" p-id="4153"/>
    <polygon fill="#DDCBA8" fill-rule="nonzero" points="271841,938649 1070932,938649 1070932,988271 271841,988271 " p-id="4154"/>
   </g>
  </g>
 </g>
</svg>
