<?xml version="1.0" encoding="UTF-8"?>
<!DOCTYPE svg PUBLIC "-//W3C//DTD SVG 1.1//EN" "http://www.w3.org/Graphics/SVG/1.1/DTD/svg11.dtd">
<!-- Creator: CorelDRAW (评估版) -->
<svg xmlns="http://www.w3.org/2000/svg" xml:space="preserve" width="33.8667mm" height="33.8667mm" version="1.1" style="shape-rendering:geometricPrecision; text-rendering:geometricPrecision; image-rendering:optimizeQuality; fill-rule:evenodd; clip-rule:evenodd"
viewBox="0 0 3372381 3372381"
 xmlns:xlink="http://www.w3.org/1999/xlink"
 xmlns:xodm="http://www.corel.com/coreldraw/odm/2003">
 <defs>
  <style type="text/css">
   <![CDATA[
    .fil0 {fill:none}
    .fil1 {fill:#5EA5EC}
    .fil7 {fill:#617881;fill-rule:nonzero}
    .fil3 {fill:#80B4FB;fill-rule:nonzero}
    .fil6 {fill:#BED8FB;fill-rule:nonzero}
    .fil5 {fill:#CBE2FF;fill-rule:nonzero}
    .fil4 {fill:#DDEAFB;fill-rule:nonzero}
    .fil2 {fill:white;fill-rule:nonzero}
   ]]>
  </style>
 </defs>
 <g id="圖層_x0020_1">
  <metadata id="CorelCorpID_0Corel-Layer"/>
  <rect class="fil0" x="-21" y="-26" width="3372381" height="3372381"/>
  <path class="fil1" d="M2222772 252261l102755 129c28659,-50 58462,926 86802,1404 63113,737 126116,6244 188362,16510 62107,10585 122601,30620 178992,59060 113260,57696 205589,149994 263334,263284 28439,56441 48395,116885 59010,179201 10137,62107 15823,125538 16590,188392 767,28868 1245,57765 1245,86633 259,34245 259,68490 259,102735l0 1073143c0,34235 0,68480 -259,102725 0,28868 -478,57765 -1245,86643 -767,62844 -6453,126275 -16590,188382 -10615,62326 -30570,122760 -59010,179211 -57745,113280 -150074,205589 -263334,263274 -56391,28449 -116885,48485 -178992,59070 -62246,10266 -125249,15763 -188362,16510 -28340,478 -58144,1454 -86802,1404l-102755 129 -1073143 0 -102755 -129c-28659,50 -58452,-926 -86792,-1404 -63113,-747 -126126,-6244 -188362,-16510 -62107,-10585 -122601,-30620 -178992,-59070 -113260,-57686 -205589,-149994 -263334,-263274 -28449,-56451 -48405,-116885 -59010,-179211 -10137,-62107 -15823,-125538 -16590,-188382 -777,-28878 -1245,-57775 -1245,-86643 -269,-34245 -269,-68490 -269,-102725l0 -1073143c0,-34245 0,-68490 269,-102735 0,-28868 468,-57765 1245,-86633 767,-62854 6453,-126285 16590,-188392 10605,-62316 30561,-122760 59010,-179201 57745,-113290 150074,-205589 263334,-263284 56391,-28439 116885,-48475 178992,-59060 62236,-10266 125249,-15773 188362,-16510 28340,-478 58134,-1454 86792,-1404l102755 -129 1073143 0z"/>
  <g id="_105553223264864">
   <path class="fil2" d="M2504309 1288052c-7966,-384999 -322503,-694637 -709404,-694637 -298664,0 -554202,184528 -658898,445791 -16799,-1663 -33787,-2629 -50705,-2629 -269498,0 -487992,218484 -487992,488012 0,269518 218494,488002 488012,488002l1337124 0c202641,0 366905,-164264 366905,-366905 0,-174491 -121834,-320422 -285042,-357635z" p-id="4221"/>
   <path class="fil3" d="M2208323 726312c-58731,-15783 -120499,-24197 -184200,-24197 -298625,0 -554172,184538 -658878,445801 -16769,-1653 -33767,-2609 -50655,-2609 -269528,0 -487992,218524 -487992,487992 0,148770 66528,281945 171513,371496 -227904,-41086 -400802,-240451 -400802,-480205 0,-269538 218524,-487992 487992,-487992 17167,0 34056,886 50745,2619 104637,-261263 360184,-445811 658878,-445811 154276,0 297041,49221 413398,132917l0 -10z" p-id="4222"/>
   <path class="fil4" d="M2650280 1874677l0 785532c0,64975 -52647,117612 -117592,117612l-966166 0c-55505,0 -102018,-38457 -114375,-90188l-468 -67245 -2738 -400443 0 -790281c0,-64975 52637,-117612 117582,-117612l521132 0c46832,0 198509,129322 332581,265515 122342,124313 230045,254342 230045,297111l0 0z" p-id="4223"/>
   <path class="fil5" d="M2650280 1874677l0 287761c0,-329 -30,-647 -30,-1006 -8852,-353084 -296464,-369415 -390505,-463476l160490 -120380c122342,124303 230045,254342 230045,297101l0 0z" p-id="4224"/>
   <path class="fil5" d="M2087634 1312051l-287751 0c329,0 647,20 996,20 353084,8852 369425,296464 463476,390515l120390 -160500c-124313,-122332 -254342,-230045 -297111,-230045l0 10z" p-id="4225"/>
   <path class="fil6" d="M2650280 1874697l0 49749c0,-104736 -84930,-189676 -189676,-189676l-115441 0c-64935,0 -117602,-52667 -117602,-117612l0 -115441c0,-104736 -84940,-189666 -189676,-189666l49749 0c89580,0 175566,35629 238868,98941l224857 224857c63292,63272 98921,149268 98921,238858l0 -10z" p-id="4226"/>
   <path class="fil7" d="M2514346 2062491l-929482 0c-18263,-10 -33070,-14817 -33070,-33090 0,-18263 14807,-33070 33070,-33070l929482 0c18054,289 32542,15016 32542,33070 0,18063 -14489,32791 -32542,33080l0 10zm0 135984l-929482 0c-18263,-10 -33070,-14817 -33070,-33090 0,-18263 14807,-33070 33070,-33070l929482 0c18054,289 32542,15016 32542,33070 0,18063 -14489,32791 -32542,33080l0 10zm0 135984l-929482 0c-18263,-10 -33070,-14817 -33070,-33090 0,-18263 14807,-33070 33070,-33070l929482 0c18263,0 33070,14807 33070,33070 0,18273 -14807,33080 -33070,33080l0 10zm-588048 135984l-341443 0c-18263,-10 -33070,-14817 -33070,-33090 0,-18263 14807,-33070 33070,-33070l341443 0c0,0 10,0 10,0 18263,0 33070,14807 33070,33070 0,0 0,0 0,0 0,0 0,10 0,10 0,18263 -14807,33070 -33070,33070 0,0 -10,0 -10,0l0 10zm0 -785123l-341443 0c-18263,0 -33070,-14817 -33070,-33080 0,-18263 14807,-33080 33070,-33080l341443 0c18273,0 33080,14817 33080,33080 0,18273 -14807,33080 -33080,33080z" p-id="4227"/>
  </g>
 </g>
</svg>
