<?xml version="1.0" encoding="UTF-8"?>
<!DOCTYPE svg PUBLIC "-//W3C//DTD SVG 1.1//EN" "http://www.w3.org/Graphics/SVG/1.1/DTD/svg11.dtd">
<!-- Creator: CorelDRAW -->
<svg xmlns="http://www.w3.org/2000/svg" xml:space="preserve" width="33.8667mm" height="33.8667mm" version="1.1" shape-rendering="geometricPrecision" text-rendering="geometricPrecision" image-rendering="optimizeQuality" fill-rule="evenodd" clip-rule="evenodd"
viewBox="0 0 3372.42 3372.42"
 xmlns:xlink="http://www.w3.org/1999/xlink"
 xmlns:xodm="http://www.corel.com/coreldraw/odm/2003">
 <defs>
    <linearGradient id="id0" gradientUnits="userSpaceOnUse" x1="1673.24" y1="3120.01" x2="1699.31" y2="252.36">
     <stop offset="0" stop-opacity="1" stop-color="#1F66F0"/>
     <stop offset="1" stop-opacity="1" stop-color="#16D2FD"/>
    </linearGradient>
 </defs>
 <g id="圖層_x0020_1">
  <metadata id="CorelCorpID_0Corel-Layer"/>
  <g id="_105553218269440">
   <rect fill="none" x="-0.02" y="-0.02" width="3372.42" height="3372.42"/>
   <path fill="url(#id0)" d="M2222.8 252.26l102.76 0.13c28.66,-0.05 58.46,0.93 86.8,1.4 63.11,0.74 126.12,6.24 188.36,16.51 62.11,10.59 122.6,30.62 178.99,59.07 113.26,57.69 205.59,149.99 263.33,263.28 28.45,56.44 48.41,116.89 59.02,179.2 10.13,62.11 15.82,125.54 16.59,188.39 0.77,28.87 1.24,57.77 1.24,86.64 0.26,34.24 0.26,68.48 0.26,102.73l0 1073.16c0,34.25 0,68.48 -0.26,102.73 0,28.87 -0.48,57.77 -1.24,86.64 -0.77,62.84 -6.46,126.28 -16.59,188.38 -10.62,62.33 -30.57,122.76 -59.02,179.21 -57.74,113.29 -150.07,205.59 -263.33,263.28 -56.39,28.45 -116.89,48.49 -178.99,59.07 -62.25,10.27 -125.25,15.76 -188.36,16.51 -28.34,0.48 -58.14,1.45 -86.8,1.4l-102.76 0.13 -1073.16 0 -102.76 -0.13c-28.66,0.05 -58.45,-0.93 -86.79,-1.4 -63.11,-0.75 -126.13,-6.24 -188.36,-16.51 -62.11,-10.59 -122.6,-30.62 -179,-59.07 -113.26,-57.69 -205.58,-149.99 -263.33,-263.28 -28.45,-56.45 -48.41,-116.89 -59.01,-179.21 -10.14,-62.11 -15.82,-125.54 -16.6,-188.38 -0.77,-28.88 -1.23,-57.78 -1.23,-86.64 -0.27,-34.25 -0.27,-68.48 -0.27,-102.73l0 -1073.16c0,-34.25 0,-68.49 0.27,-102.73 0,-28.88 0.47,-57.78 1.23,-86.64 0.78,-62.85 6.46,-126.29 16.6,-188.39 10.61,-62.32 30.56,-122.76 59.01,-179.2 57.75,-113.29 150.07,-205.59 263.33,-263.28 56.4,-28.45 116.9,-48.49 179,-59.07 62.24,-10.27 125.25,-15.77 188.36,-16.51 28.34,-0.48 58.13,-1.45 86.79,-1.4l102.76 -0.13 1073.16 0z"/>
   <g>
    <path fill="white" d="M910.53 2416.46l-19.89 -0.03c-5.55,0.02 -11.31,-0.18 -16.79,-0.27 -12.22,-0.15 -24.41,-1.21 -36.47,-3.2 -12.02,-2.05 -23.73,-5.92 -34.63,-11.43 -21.92,-11.16 -39.78,-29.03 -50.95,-50.94 -5.51,-10.92 -9.37,-22.62 -11.42,-34.68 -1.97,-12.02 -3.07,-24.3 -3.22,-36.46 -0.15,-5.6 -0.24,-11.18 -0.24,-16.77 -0.05,-6.62 -0.05,-13.25 -0.05,-19.89l0 -821.91 1898.65 0 0 821.91c0,6.63 0,13.26 -0.05,19.89 0,5.59 -0.09,11.17 -0.23,16.77 -0.16,12.16 -1.25,24.44 -3.23,36.46 -2.05,12.06 -5.91,23.76 -11.41,34.68 -11.18,21.92 -29.05,39.78 -50.96,50.94 -10.9,5.52 -22.61,9.38 -34.63,11.43 -12.05,1.98 -24.25,3.05 -36.46,3.2 -5.49,0.09 -11.24,0.29 -16.79,0.27l-19.9 0.03 -1551.34 0z"/>
    <path fill="white" d="M1442.18 1129.62l0.01 9.19 1019.68 0 19.89 0.03c5.55,-0.01 11.31,0.18 16.8,0.27 12.21,0.15 24.41,1.21 36.46,3.2 12.02,2.05 23.72,5.92 34.63,11.43 21.92,11.16 39.79,29.03 50.96,50.95 5.5,10.91 9.36,22.61 11.41,34.67 1.97,12.02 3.07,24.3 3.22,36.47 0.15,5.59 0.24,11.17 0.24,16.76 0.05,6.62 0.05,13.25 0.05,19.89l0 35.38 -1898.65 0 0 -218.24c0,-6.63 0,-13.25 0.05,-19.88 0,-5.6 0.09,-11.18 0.24,-16.78 0.15,-12.16 1.24,-24.43 3.22,-36.45 2.05,-12.07 5.92,-23.77 11.42,-34.68 11.17,-21.93 29.04,-39.79 50.95,-50.94 10.91,-5.52 22.62,-9.39 34.63,-11.44 12.06,-1.98 24.25,-3.05 36.47,-3.19 5.48,-0.1 11.24,-0.29 16.79,-0.28l19.89 -0.02 357.99 0 19.9 0.02c5.55,-0.01 11.31,0.18 16.79,0.28 12.22,0.14 24.41,1.2 36.46,3.19 12.02,2.05 23.73,5.92 34.64,11.44 21.92,11.15 39.77,29.02 50.95,50.94 5.51,10.91 9.36,22.61 11.42,34.68 1.96,12.02 3.06,24.29 3.22,36.45 0.14,5.6 0.24,11.18 0.24,16.78 0.04,6.62 0.04,13.24 0.04,19.88z"/>
   </g>
  </g>
 </g>
</svg>
