<?xml version="1.0" encoding="UTF-8"?>
<!DOCTYPE svg PUBLIC "-//W3C//DTD SVG 1.1//EN" "http://www.w3.org/Graphics/SVG/1.1/DTD/svg11.dtd">
<!-- Creator: CorelDRAW (评估版) -->
<svg xmlns="http://www.w3.org/2000/svg" xml:space="preserve" width="33.8666mm" height="33.8666mm" version="1.1" shape-rendering="geometricPrecision" text-rendering="geometricPrecision" image-rendering="optimizeQuality" fill-rule="evenodd" clip-rule="evenodd"
viewBox="0 0 1111988 1111988"
 xmlns:xlink="http://www.w3.org/1999/xlink"
 xmlns:xodm="http://www.corel.com/coreldraw/odm/2003">
 <g id="圖層_x0020_1">
  <metadata id="CorelCorpID_0Corel-Layer"/>
  <g id="_105553258026528">
   <g>
    <rect fill="none" x="-2" y="2" width="1111988" height="1111988"/>
    <path fill="#0F79D5" d="M732922 83196l33882 43c9450,-16 19277,305 28622,463 20810,243 41585,2059 62109,5444 20479,3490 40426,10097 59020,19474 37346,19024 67790,49458 86830,86814 9377,18611 15957,38541 19458,59089 3343,20479 5217,41394 5470,62119 253,9519 410,19047 410,28566 85,11292 85,22583 85,33875l0 353849c0,11288 0,22580 -85,33872 0,9519 -158,19047 -410,28569 -253,20722 -2128,41637 -5470,62116 -3500,20551 -10080,40478 -19458,59092 -19041,37352 -49485,67790 -86830,86811 -18594,9381 -38541,15987 -59020,19477 -20525,3385 -41299,5198 -62109,5444 -9345,158 -19172,479 -28622,463l-33882 43 -353849 0 -33882 -43c-9450,16 -19274,-305 -28618,-463 -20810,-246 -41588,-2059 -62109,-5444 -20479,-3490 -40426,-10097 -59020,-19477 -37346,-19021 -67790,-49458 -86830,-86811 -9381,-18614 -15961,-38541 -19458,-59092 -3343,-20479 -5217,-41394 -5470,-62116 -256,-9522 -410,-19050 -410,-28569 -89,-11292 -89,-22583 -89,-33872l0 -353849c0,-11292 0,-22583 89,-33875 0,-9519 154,-19047 410,-28566 253,-20725 2128,-41641 5470,-62119 3497,-20548 10077,-40478 19458,-59089 19041,-37356 49485,-67790 86830,-86814 18594,-9377 38541,-15984 59020,-19474 20521,-3385 41299,-5201 62109,-5444 9345,-158 19169,-479 28618,-463l33882 -43 353849 0z"/>
   </g>
   <g>
    <path fill="#A4AAB4" fill-rule="nonzero" fill-opacity="0.200000" d="M300254 373671c6938,-31393 38331,-55851 66076,-55851l383656 0c27745,0 55855,24458 66076,55851l66073 244212c-17520,-13869 -38328,-20807 -62786,-20807l-522381 0c-24458,0 -45265,6938 -62786,17524l66073 -240929z" p-id="12942"/>
    <path fill="white" fill-rule="nonzero" d="M465256 687246l-142366 0c-8396,0 -14237,5841 -14237,14237 0,8399 5841,14237 14237,14237l142366 0c8396,0 14240,-5838 14240,-14237 0,-8396 -5841,-14237 -14240,-14237z" p-id="12943"/>
    <path fill="white" fill-rule="nonzero" d="M909883 660962l0 -9857 -78852 -279256c-9857,-45994 -52568,-78852 -91992,-78852l-361391 0c-39424,0 -82135,32857 -95279,75568l-78848 279256 0 9857c-3287,16427 -6573,29567 -6573,45994 0,62425 52568,114992 114992,114992l492808 0c62425,0 114992,-52568 114992,-114992 0,-16427 -3287,-29567 -9857,-42711zm-604513 -286191c6935,-30664 37599,-54758 64976,-54758l375996 0c27377,0 54755,24094 64976,54758l64979 239100c-17156,-13505 -37599,-20443 -61692,-20443l-512521 0c-24094,0 -44537,6938 -61692,17159l64976 -235820 3 3zm509231 414320l-512521 0c-47820,0 -85422,-37599 -85422,-85422 0,-6935 0,-10221 3283,-17156l0 -3287c6938,-37599 40885,-64976 82135,-64976l512525 0c40885,0 75201,27377 82135,68263 0,6935 3287,10221 3287,17156 0,47820 -37602,85422 -85422,85422l0 0z" p-id="12944"/>
    <path fill="#B60005" fill-rule="nonzero" d="M750751 639479c-26284,0 -49281,23000 -49281,49284 0,26281 22997,49281 49281,49281 26284,0 49281,-23000 49281,-49281 0,-26284 -22997,-49284 -49281,-49284zm0 68269c-11315,0 -18617,-7667 -18617,-18617 0,-10954 7667,-18620 18617,-18620 11318,0 18617,7667 18617,18620 0,10950 -7299,18617 -18617,18617zm-150033 -188000c-3283,0 -6935,-368 -10221,0 -5838,364 -10586,-4383 -10218,-10221 0,-3651 0,-6938 2919,-9492 1461,-1458 4016,-2555 5841,-2555 5838,-364 11682,0 17520,-364 14237,-732 26648,-5477 36141,-16427 4748,-5477 7302,-11682 7302,-18253 0,-7302 -1826,-14237 -6573,-20078 -5838,-6935 -13505,-11315 -21901,-13508 -5477,-1458 -10589,-4380 -12776,-10221 -732,-2190 -1097,-5109 -732,-7299 2558,-13873 -1826,-24826 -13140,-33222 -10586,-8031 -22268,-10218 -35044,-8760 -9489,1097 -18614,3651 -26281,10221 -5109,4380 -8760,9857 -9857,16427 -1097,5841 -4745,9857 -10221,11682 -1826,364 -4016,364 -5838,-368 -9492,-4380 -19714,-5109 -29935,-4380 -8396,732 -16791,2558 -24458,6206 -12047,5841 -21536,14237 -26284,27381 -6570,19346 1461,38331 16791,49281 8396,5841 17888,9128 27745,10954 8396,1458 16427,1093 24823,1093 4380,0 8031,1826 9857,5841 1826,4380 729,10586 -2190,13508 -1826,1826 -4016,2555 -6573,2555l-18985 0c-19714,-732 -37963,-6573 -53297,-18985 -10950,-8760 -18249,-19710 -21172,-33219 -4748,-23362 1826,-43804 19346,-60596 12415,-11682 27381,-18620 44172,-21539 9857,-1826 20078,-1093 29935,-1093 5477,0 9857,-2193 12411,-7302 7667,-14969 20443,-23729 36141,-28109 8392,-2190 16788,-2922 25184,-2190 20078,1826 36141,10586 48552,26284 6570,8396 10586,17888 10586,28838 0,5473 2555,9125 8031,11315 17520,6938 28474,20443 32122,38331 4016,17520 -1093,33219 -13140,46727 -9492,10221 -21172,16427 -34315,19346 -7299,1461 -14966,1461 -22268,2193 0,364 0,0 0,0z" p-id="12945"/>
   </g>
  </g>
 </g>
</svg>
