<?xml version="1.0" encoding="UTF-8"?>
<!DOCTYPE svg PUBLIC "-//W3C//DTD SVG 1.1//EN" "http://www.w3.org/Graphics/SVG/1.1/DTD/svg11.dtd">
<!-- Creator: CorelDRAW -->
<svg xmlns="http://www.w3.org/2000/svg" xml:space="preserve" width="2.7093mm" height="2.7093mm" version="1.1" style="shape-rendering:geometricPrecision; text-rendering:geometricPrecision; image-rendering:optimizeQuality; fill-rule:evenodd; clip-rule:evenodd"
viewBox="0 0 257356 257356"
 xmlns:xlink="http://www.w3.org/1999/xlink"
 xmlns:xodm="http://www.corel.com/coreldraw/odm/2003">
 <defs>
  <style type="text/css">
   <![CDATA[
    .fil0 {fill:#EB502A}
    .fil1 {fill:white;fill-rule:nonzero}
   ]]>
  </style>
 </defs>
 <g id="圖層_x0020_1">
  <metadata id="CorelCorpID_0Corel-Layer"/>
  <g id="_105553427039776">
   <path class="fil0" d="M176833 0l9224 9c2574,-9 5243,85 7789,123 5661,66 11313,560 16899,1482 5576,950 11009,2745 16063,5300 10164,5177 18447,13460 23633,23624 2555,5063 4341,10487 5291,16082 912,5576 1425,11266 1491,16908 66,2593 114,5186 114,7770 19,3078 19,6146 19,9224l0 96301c0,3078 0,6146 -19,9224 0,2584 -47,5177 -114,7770 -66,5642 -579,11332 -1491,16908 -950,5595 -2736,11019 -5291,16082 -5186,10164 -13470,18447 -23633,23624 -5053,2555 -10487,4351 -16063,5300 -5585,921 -11237,1415 -16899,1482 -2546,47 -5215,133 -7789,123l-9224 19 -96301 0 -9224 -19c-2574,9 -5243,-76 -7789,-123 -5661,-66 -11313,-560 -16899,-1482 -5576,-950 -11009,-2745 -16063,-5300 -10164,-5177 -18457,-13460 -23633,-23624 -2555,-5063 -4341,-10487 -5300,-16082 -902,-5576 -1415,-11266 -1482,-16908 -76,-2593 -114,-5186 -114,-7770 -28,-3078 -28,-6146 -28,-9224l0 -96301c0,-3078 0,-6146 28,-9224 0,-2584 38,-5177 114,-7770 66,-5642 579,-11332 1482,-16908 959,-5595 2745,-11019 5300,-16082 5177,-10164 13470,-18447 23633,-23624 5053,-2555 10487,-4351 16063,-5300 5585,-921 11237,-1415 16899,-1482 2546,-38 5215,-133 7789,-123l9224 -9 96301 0z"/>
   <g>
    <g>
     <path class="fil1" d="M131732 81188zm53907 0l6193 0 0 36400 -6193 0 0 -36400z"/>
     <path class="fil1" d="M131732 81188zm45073 11256l-6203 0 0 -22503 6203 0 0 22503z"/>
     <path class="fil1" d="M131732 81188zm30055 -4294l-6193 0 0 -13907 6193 0 0 13907z"/>
     <path class="fil1" d="M131732 81188zm15046 11256l-6193 0 0 -22503 6193 0 0 22503z"/>
     <polygon class="fil1" points="125577,81188 131732,81188 131732,117588 125577,117588 "/>
     <path class="fil1" d="M131732 81188zm-21164 25153l6184 0 0 22494 -6184 0 0 -22494z"/>
     <path class="fil1" d="M131732 81188zm-36182 40694l6193 0 0 13935 -6193 0 0 -13935z"/>
     <path class="fil1" d="M131732 81188zm-51190 25153l6184 0 0 22494 -6184 0 0 -22494z"/>
     <path class="fil1" d="M131732 81188zm-60015 36400l-6184 0 0 -36400 6184 0 0 36400z"/>
    </g>
    <path class="fil1" d="M162176 185335l-11028 0 -2831 8483 -6117 0 12653 -36277 7542 0 12653 36296 -6687 0 -10031 -29760 -5500 15920 7552 0 1795 5338zm-110340 -27794l0 23947c0,8407 -5443,12871 -14058,12871 -8606,0 -13945,-4465 -13945,-12871l0 -23947 6165 0 0 23947c0,4882 3011,7476 7780,7476 4778,0 7884,-2593 7884,-7476l0 -23947 6174 0zm19957 11313l0 24992 -6174 0 0 -36305 5766 0 16034 24992 0 -24992 6203 0 0 36296 -5756 0 -16072 -24982zm113579 -11313l6165 0 0 36296 -6165 0 0 -36296zm48160 23282c0,8492 -5547,13014 -14305,13014l-13698 0 0 -36296 13802 0c8654,0 14201,4503 14201,13014l0 10268zm-6174 -10268c0,-4977 -3106,-7675 -8027,-7675l-7628 0 0 25562 7552 0c5025,0 8131,-2641 8131,-7618l-28 -10268zm-101383 9546c4094,-1510 6535,-4987 6535,-10895 0,-8198 -4768,-11665 -12035,-11665l-12862 0 0 36296 6174 0 0 -30957 6478 0c3591,0 5861,1710 5861,6326 0,4607 -2270,6374 -5861,6374l-3182 0 8682 18257 7105 0 -6896 -13736z"/>
   </g>
  </g>
 </g>
</svg>
