<?xml version="1.0" encoding="UTF-8"?>
<!DOCTYPE svg PUBLIC "-//W3C//DTD SVG 1.1//EN" "http://www.w3.org/Graphics/SVG/1.1/DTD/svg11.dtd">
<!-- Creator: CorelDRAW -->
<svg xmlns="http://www.w3.org/2000/svg" xml:space="preserve" width="33.8667mm" height="33.8667mm" version="1.1" style="shape-rendering:geometricPrecision; text-rendering:geometricPrecision; image-rendering:optimizeQuality; fill-rule:evenodd; clip-rule:evenodd"
viewBox="0 0 3372460 3372460"
 xmlns:xlink="http://www.w3.org/1999/xlink"
 xmlns:xodm="http://www.corel.com/coreldraw/odm/2003">
 <defs>
  <style type="text/css">
   <![CDATA[
    .fil0 {fill:none}
    .fil5 {fill:#6800C5}
    .fil4 {fill:#6F29DB}
    .fil2 {fill:#894DF5}
    .fil3 {fill:#A576FF}
    .fil1 {fill:#E6E6E6}
   ]]>
  </style>
 </defs>
 <g id="圖層_x0020_1">
  <metadata id="CorelCorpID_0Corel-Layer"/>
  <rect class="fil0" x="-21" y="-26" width="3372460" height="3372460"/>
  <path class="fil1" d="M2222814 252277l102757 129c28659,-50 58464,926 86804,1404 63114,737 126119,6244 188366,16510 62108,10585 122603,30621 178996,59061 113263,57697 205594,149998 263340,263291 28440,56442 48396,116887 59011,179205 10137,62108 15823,125541 16590,188396 767,28868 1245,57767 1245,86635 259,34246 259,68491 259,102737l0 1073168c0,34236 0,68481 -259,102727 0,28868 -478,57767 -1245,86645 -767,62845 -6453,126278 -16590,188386 -10615,62327 -30571,122763 -59011,179215 -57747,113283 -150078,205594 -263340,263281 -56392,28450 -116887,48486 -178996,59071 -62248,10267 -125252,15764 -188366,16510 -28341,478 -58145,1454 -86804,1404l-102757 129 -1073168 0 -102757 -129c-28659,50 -58454,-926 -86794,-1404 -63114,-747 -126129,-6244 -188366,-16510 -62108,-10585 -122603,-30621 -178996,-59071 -113263,-57687 -205594,-149998 -263340,-263281 -28450,-56452 -48406,-116887 -59011,-179215 -10137,-62108 -15823,-125541 -16590,-188386 -777,-28878 -1245,-57777 -1245,-86645 -269,-34246 -269,-68491 -269,-102727l0 -1073168c0,-34246 0,-68491 269,-102737 0,-28868 468,-57767 1245,-86635 767,-62855 6453,-126288 16590,-188396 10605,-62317 30561,-122763 59011,-179205 57747,-113293 150078,-205594 263340,-263291 56392,-28440 116887,-48476 178996,-59061 62238,-10267 125252,-15774 188366,-16510 28341,-478 58135,-1454 86794,-1404l102757 -129 1073168 0z"/>
  <g id="_105553561284864">
   <path class="fil2" d="M1688495 2417524c-44363,0 -50368,-11442 -78549,-29575 -62258,-40081 -174983,-117535 -245864,-119118l0 351449c129435,86675 299657,215542 422121,138257 25861,-16321 30193,-18861 60047,-34564l675723 -392138c24796,-13513 40529,-17446 61491,-33140 35251,-26409 78280,-67575 78280,-124476l0 -973239c0,-109150 -153613,-165094 -243116,-216478 -99501,-57109 -81307,-26688 -81307,189442 0,211867 11860,650529 438,811471 -8335,117634 -143884,154330 -297576,243106 -25463,14718 -55616,33459 -84006,51164 -49641,30950 -220302,137839 -267682,137839z"/>
   <path class="fil3" d="M715256 1543646c41714,-96424 16451,-65872 153155,-138387 59141,-31378 128847,-85320 198294,-107308 54620,-17277 103942,-57229 148932,-83219 51991,-30033 101980,-53544 156540,-86764 325240,-198036 297058,-200226 470438,-94621 30810,18771 49322,24756 78220,43427 39872,25761 31268,28231 92072,29585l0 -351449c-282619,-189253 -309088,-210443 -508219,-89194l-289530 170063c-114567,66350 -412213,219575 -469810,287160 -51842,60834 -30093,294290 -30093,420707z"/>
   <path class="fil2" d="M715256 1543646c0,192111 1205,384609 -159,576660 -1205,168898 68053,168132 181306,237728 34634,21280 63014,36725 102717,45976 2360,-2141 5905,-8843 7050,-6443l33499 -20593 0 -824546c0,-210224 -11541,-102687 27036,-254478 -69447,21987 -139154,75930 -198294,107308 -136704,72514 -111440,41963 -153155,138387z"/>
   <path class="fil2" d="M1699220 1667534l-50338 32304c-2699,1444 -6303,3047 -8972,4521l-77713 45737c-47221,28749 -88806,66121 -144043,82821 0,136674 -18353,219445 27036,287230 49661,-4133 62059,-15236 97350,-37821l565059 -327072c83906,-41744 98863,-72943 14051,-122325l-212166 -121050 6363 40748c-60804,47022 -147837,73162 -216627,114906z"/>
   <path class="fil4" d="M1418154 1475672c57936,39344 95388,59111 148215,90987 49093,29625 121807,49163 132850,100875 68790,-41744 155823,-67884 216627,-114906l-6363 -40748 -223648 -132512c-54988,-34276 -179245,-119208 -240646,-124326 -39782,75183 -27036,111968 -27036,220630z"/>
   <path class="fil5" d="M1418154 1832917c55237,-16700 96822,-54072 144043,-82821l77713 -45737c2669,-1474 6274,-3077 8972,-4521l50338 -32304c-11043,-51712 -83757,-71250 -132850,-100875 -52827,-31876 -90280,-51642 -148215,-90987l0 357245z"/>
  </g>
 </g>
</svg>
