<?xml version="1.0" encoding="UTF-8"?>
<!DOCTYPE svg PUBLIC "-//W3C//DTD SVG 1.1//EN" "http://www.w3.org/Graphics/SVG/1.1/DTD/svg11.dtd">
<!-- Creator: CorelDRAW (评估版) -->
<svg xmlns="http://www.w3.org/2000/svg" xml:space="preserve" width="33.8667mm" height="33.8667mm" version="1.1" shape-rendering="geometricPrecision" text-rendering="geometricPrecision" image-rendering="optimizeQuality" fill-rule="evenodd" clip-rule="evenodd"
viewBox="0 0 1748980 1748980"
 xmlns:xlink="http://www.w3.org/1999/xlink"
 xmlns:xodm="http://www.corel.com/coreldraw/odm/2003">
 <g id="圖層_x0020_1">
  <metadata id="CorelCorpID_0Corel-Layer"/>
  <g id="_105553252044896">
   <g>
    <g>
     <rect fill="none" x="-11" y="-13" width="1748980" height="1748980"/>
     <path fill="#0BA5EC" d="M1152766 130833l53290 67c14863,-26 30320,480 45017,728 32731,382 65406,3238 97688,8562 32210,5490 63583,15880 92828,30635 58739,29917 106622,77785 136565,136539 14754,29271 25104,60619 30609,92937 5252,32210 8206,65106 8604,97704 398,14971 646,29958 646,44935 134,17755 134,35515 134,53275l0 556552c0,17760 0,35515 -134,53275 0,14971 -248,29958 -646,44935 -398,32592 -3352,65489 -8604,97698 -5505,32323 -15854,63666 -30609,92942 -29943,58754 -77826,106622 -136565,136539 -29245,14754 -60619,25145 -92828,30635 -32282,5324 -64957,8175 -97688,8562 -14698,248 -30154,754 -45017,728l-53290 67 -556552 0 -53290 -67c-14863,26 -30314,-480 -45012,-728 -32731,-387 -65411,-3238 -97688,-8562 -32210,-5490 -63583,-15880 -92834,-30635 -58739,-29917 -106617,-77785 -136565,-136539 -14754,-29276 -25104,-60619 -30604,-92942 -5257,-32210 -8206,-65106 -8609,-97698 -398,-14976 -640,-29963 -640,-44935 -139,-17760 -139,-35515 -139,-53275l0 -556552c0,-17760 0,-35520 139,-53275 0,-14976 243,-29963 640,-44935 403,-32597 3352,-65494 8609,-97704 5500,-32318 15849,-63666 30604,-92937 29948,-58754 77826,-106622 136565,-136539 29251,-14754 60624,-25145 92834,-30635 32277,-5324 64957,-8180 97688,-8562 14698,-248 30149,-754 45012,-728l53290 -67 556552 0z"/>
    </g>
   </g>
   <g>
    <path fill="white" d="M812309 556242l86678 5 0 493274c945,10 25909,-470 36274,4245l0 -497519 73023 5 10 502461c14130,6843 26379,14837 36279,25682l0 -528143 246389 5 0 -35329 -62018 0 -293684 -165738 0 -49118 -36274 0 0 48865 -480 -800 -296338 166776 -144156 -5 0 35329 260064 5 0 171971 94233 0 0 -171971zm343984 -35319l-221032 -124739 0 124734 221032 5zm-481324 -10l224017 -126076 0 126081 -224017 -5zm119425 35329l0 79628 -58424 0 0 -79628 58424 0z"/>
    <path fill="white" d="M553650 1123480c-44284,-32034 -73968,-83388 -73968,-141347 0,-30624 8475,-61254 24024,-87623l311413 15c16030,26390 24024,56998 24024,87628 0,26849 -3775,51813 -14605,74428 -23554,-22150 -58419,-31569 -93288,-31569 -62194,0 -115417,37694 -129557,94233 -4720,0 -8015,-945 -12715,-945 -11769,0 -23560,2350 -35329,5180z"/>
    <polygon fill="white" points="706307,685335 612074,685335 612074,777678 706307,777678 "/>
    <polygon fill="white" points="600284,685335 506071,685335 506071,777678 600284,777678 "/>
    <polygon fill="white" points="600284,788523 506071,788523 506071,880866 600284,880850 600284,788507 "/>
    <polygon fill="white" points="706307,788523 612074,788523 612074,880866 706307,880850 706307,788507 "/>
    <polygon fill="white" points="812309,788523 718076,788523 718076,880866 812309,880850 812309,788507 "/>
    <path fill="white" d="M617253 1137619c12715,-53244 62199,-93288 121088,-93288 37694,0 71613,16490 94693,42399 19784,-13660 43824,-21210 70193,-21210 68303,0 123918,54184 123918,121082 0,13660 -2355,26854 -6590,39584 15080,19784 24499,45229 24499,72083 0,66898 -55589,121082 -123912,121082 -30149,0 -57944,-10365 -79153,-27794 -22615,30624 -59364,51349 -101298,51349 -48059,0 -89993,-26849 -110723,-65953 -8475,1890 -16970,2830 -25909,2830 -68303,0 -124377,-54184 -124377,-121082 0,-66898 55594,-121082 124377,-121082 4240,0 8960,0 13195,0z"/>
   </g>
  </g>
 </g>
</svg>
