<?xml version="1.0" encoding="UTF-8"?>
<!DOCTYPE svg PUBLIC "-//W3C//DTD SVG 1.1//EN" "http://www.w3.org/Graphics/SVG/1.1/DTD/svg11.dtd">
<!-- Creator: CorelDRAW (评估版) -->
<svg xmlns="http://www.w3.org/2000/svg" xml:space="preserve" width="33.8667mm" height="33.8667mm" version="1.1" shape-rendering="geometricPrecision" text-rendering="geometricPrecision" image-rendering="optimizeQuality" fill-rule="evenodd" clip-rule="evenodd"
viewBox="0 0 14626149 14626149"
 xmlns:xlink="http://www.w3.org/1999/xlink"
 xmlns:xodm="http://www.corel.com/coreldraw/odm/2003">
 <g id="圖層_x0020_1">
  <metadata id="CorelCorpID_0Corel-Layer"/>
  <g id="_105553194566496">
   <g>
    <rect fill="none" x="-96" y="-108" width="14626149" height="14626149"/>
    <path fill="#047E04" d="M9640250 1094067l445651 561c124293,-216 253553,4016 376465,6089 273722,3196 546968,27079 816933,71605 269360,45908 531723,132801 776294,256188 491214,250185 891647,650489 1142048,1141832 123386,244786 209934,506934 255972,777201 43922,269360 68625,544464 71950,817063 3325,125200 5398,250530 5398,375774 1123,148478 1123,297000 1123,445521l0 4654264c0,148521 0,297000 -1123,445521 0,125200 -2073,250530 -5398,375774 -3325,272556 -28029,547659 -71950,817019 -46038,270310 -132585,532414 -255972,777244 -250401,491343 -650834,891647 -1142048,1141832 -244570,123386 -506934,210279 -776294,256188 -269964,44526 -543211,68366 -816933,71605 -122911,2073 -252171,6305 -376465,6089l-445651 561 -4654264 0 -445651 -561c-124293,216 -253510,-4016 -376421,-6089 -273722,-3239 -547012,-27079 -816933,-71605 -269360,-45908 -531723,-132801 -776337,-256188 -491214,-250185 -891604,-650489 -1142048,-1141832 -123386,-244829 -209934,-506934 -255929,-777244 -43965,-269360 -68625,-544464 -71993,-817019 -3325,-125243 -5355,-250573 -5355,-375774 -1166,-148521 -1166,-297000 -1166,-445521l0 -4654264c0,-148521 0,-297043 1166,-445521 0,-125243 2030,-250573 5355,-375774 3369,-272599 28029,-547703 71993,-817063 45995,-270267 132542,-532414 255929,-777201 250444,-491343 650834,-891647 1142048,-1141832 244613,-123386 506977,-210279 776337,-256188 269921,-44526 543211,-68409 816933,-71605 122911,-2073 252128,-6305 376421,-6089l445651 -561 4654264 0z"/>
   </g>
   <g>
    <path fill="white" fill-rule="nonzero" d="M3639575 4501942c-10754,-307538 35759,-604365 227079,-861848 5355,132326 21464,259254 75103,386225 105464,-491732 352236,-881498 756341,-1171156 -33988,105507 -62579,210970 -53682,316477 155561,-132326 336171,-318291 793914,-405875 262839,-50097 531032,-35759 752756,17880 688364,166272 1090698,613261 1246259,1292729 94753,413044 12481,804625 -148435,1187265 -92982,221724 -214555,436279 -370116,627599 -35759,-33988 -69704,-67934 -103693,-100152 -765281,-729478 -479207,-450574 -668714,-668714 -19693,-21464 -17880,-39344 -1814,-64349 148435,-241374 211014,-504213 178839,-786745 -19693,-175211 -76917,-337898 -202074,-468454 -259254,-273592 -700888,-268194 -956601,10710 -203801,223538 -252085,489918 -194905,779619 3585,23235 7169,48284 0,69704 -60765,244959 -82229,493502 -44699,743817 1814,8940 1814,19693 1814,28633 0,5355 -1814,8940 -3585,19650 -389810,-196675 -643708,-505984 -772450,-933366 -148392,318291 -198446,634768 -117988,967355 -278947,-271778 -380870,-613304 -393394,-987005l43 0zm8396582 2202860c-207429,-207429 -446990,-364761 -716997,-475623 -228893,-92982 -464869,-141266 -713413,-126971 -178796,10754 -350466,55453 -518551,114447 -44699,16109 -91169,28590 -137681,39344 -87627,21464 -130512,-55453 -84043,-121616 57223,-82229 60808,-75060 268237,-214555 10710,-7126 21421,-14295 39301,-26819l-44656 43c-10754,0 -21464,3585 -33988,5355 -345111,58994 -548912,277134 -874329,529262 -185965,144807 -246773,67934 -214555,-8983 25006,-62579 58994,-119759 91169,-178796 17880,-32175 41114,-60808 62579,-91169 -3585,-3585 -8940,-5355 -12524,-8940 -482749,327188 -834985,758112 -1031661,1310608 5355,5355 12481,10754 17880,16109 5355,-10754 8940,-21464 16066,-30404 185965,-216369 407689,-389810 654419,-532846 325417,-189506 670528,-327188 1049584,-361176 76874,-7126 155561,-1771 234248,-1771 -32218,12524 -62579,16109 -94796,19693 -330772,42928 -634725,160916 -920799,330772 -540015,320062 -974481,754570 -1342826,1258783 -5355,7169 -7169,16109 -12524,23235 259254,94796 429153,309351 645479,457743 3585,-1771 5355,-3585 7126,-7126l21464 -48284c218140,-480978 482792,-935137 835028,-1332116 298598,-336128 679424,-452345 1117517,-357592 105507,23235 203845,78687 307538,121573 41114,-25006 91212,-57180 143080,-84043 150163,-76874 311122,-125157 477394,-160916 262839,-55409 527448,-87627 795642,-23235l0 -8940c-8940,-7169 -21421,-14338 -30361,-25049l-43 0zm-4209001 3137997c-704516,-590026 -407689,-348652 -763510,-636539 -14295,16066 0,-3585 -33945,53639 -200260,341526 -455973,631184 -786745,851094 -184151,121616 -384411,211014 -609720,211014 -386225,0 -683009,-169856 -883269,-497087 -214598,-348652 -237833,-727751 -146621,-1119331 139452,-604321 538201,-986962 690178,-1149692 -334400,-110862 -590070,30404 -829673,248544 14338,-248544 76917,-468454 211014,-666943 -434508,189550 -820733,447033 -1158675,784931 -5355,-103693 96567,-781347 100152,-799226 5355,-48284 -10710,-94796 -53639,-132326 -432695,441634 -795685,926197 -1003071,1512682 132283,-105507 266423,-203845 421941,-289658 -148392,398706 -350466,944077 -139452,1807695 82229,339712 212784,657960 430924,935137 51825,66163 112633,123386 169856,184151 3585,-3585 7126,-5355 10710,-8940 -25006,-125157 -39344,-252085 -26819,-391580 39344,57223 69704,107278 105507,153790 225266,286073 513153,489875 843925,636539 447033,202031 913716,237790 1392923,153747 981607,-173441 1621730,-868974 2074075,-1766581 17880,-32175 10754,-51825 -16066,-75060l0 0zm3075418 -829630c-169899,-55453 -396979,-75103 -513196,-51868 177025,71518 252128,118031 336171,214555 225266,257483 185922,620473 -96567,815378 -209200,144807 -445219,187736 -695533,162687 -21464,-1771 -41114,-7126 -53639,-10710 50054,-66163 107278,-125157 144807,-193134 168085,-300368 96567,-752756 -155561,-1003071 -37530,-37530 -82229,-69704 -125157,-105507 -5355,23235 -1771,37573 1771,50097 75103,296784 -144807,579316 -443405,568605 -135911,-5398 -248544,-67977 -350466,-152020 -348652,-287844 -699118,-573917 -1045999,-863619 -105507,-87584 -223495,-144807 -359406,-155561 -82229,-7126 -166272,-10710 -248500,-16066 -105507,-7169 -157375,-50097 -185965,-150206 -16109,-60808 -26819,-121616 -39344,-182380 -26819,-144851 -110862,-232435 -255713,-253899 -78644,-12524 -159102,-17880 -237790,-26819 -232435,-25049 -354007,-132326 -404061,-362990 -89441,196675 -28633,400520 130512,534617 80458,67934 166272,130512 246730,200260 82272,67934 132326,155561 141266,264652 7126,84000 14295,169856 32175,252085 39344,189550 159146,329002 303953,448804 295056,244959 590070,488147 885083,734877 320062,268194 248544,586485 232435,1001300 -16109,409460 218140,767052 599009,915487 17880,7126 35759,10710 64349,19650 -280718,-325417 -180610,-788516 12524,-935137 5355,39344 7126,76874 16066,114447 168085,788516 811794,1147921 1519851,1017366 286073,-51825 547141,-159102 767052,-354007 35759,-32175 66163,-73332 105507,-116217 -345111,82229 -640124,1771 -910131,-189550 12524,-5355 23278,-5355 33988,-5355 380870,32175 725937,-60808 1019180,-311122 348652,-296827 475623,-767095 311122,-1180139 -148392,-359362 -421984,-577502 -783160,-695533l43 43zm-6960817 -3073648c-94796,-164501 -236019,-278947 -395165,-380870 244959,-8940 475623,3585 708058,66163 -125157,-218140 -151976,-441634 -89398,-691949 94753,212741 244959,359362 421941,479164 352236,236019 638353,350466 835028,540015 60765,58994 112633,126928 171627,194905 -14295,-37573 -25006,-73332 -39301,-107321 -89398,-189506 -232435,-332543 -404105,-446990 -32175,-21464 -50054,-44699 -60808,-80458 -58994,-223495 -53639,-448804 -12524,-672298 17880,-98338 50097,-194905 80458,-291429 14338,-42928 41158,-82272 71562,-118031 10710,123386 0,455929 350423,822504 193134,202031 400563,391580 606178,584671 160916,151976 327188,298598 455929,479207 19650,28590 39344,58994 67934,84043 -89398,-232435 -253899,-430924 -432695,-604365 -171670,-166272 -346881,-329002 -522093,-489918 -59037,-53639 -82272,-119802 -91212,-194905 -21464,-185922 0,-368345 76917,-539972 8940,-17880 19650,-35759 33945,-58994 8940,75060 10754,141223 25049,207386 85813,413044 364761,649064 881498,1135397 178796,168085 345067,343297 457743,565021 85813,166315 130512,339755 101879,529262 -1771,10754 8983,30404 19693,35759 110862,46470 178796,123386 173441,255713 137681,-46513 223495,-143080 293242,-259297 75060,361176 -162730,899421 -486377,1049584 7169,-80458 89398,-418400 -295013,-495273 -121573,-23235 -228850,-23235 -409460,-37573 84043,-160916 185965,-368302 8940,-400520 -445219,-82229 -944077,33988 -1033475,82272 146621,7126 291472,17880 420213,58994 -35759,116260 -71562,227123 -103736,337941 -33945,116217 37573,261068 166315,171670 21464,-16109 41114,-33988 58994,-48284 -55409,320062 -51825,284303 -50054,327188 5355,182380 169856,139495 280718,130512 -44699,211014 -527491,488147 -811794,461328 125157,-84043 227123,-184194 284303,-320062 -116217,14295 -230621,28590 -343297,42928l-5355 -16109c84043,-60808 143037,-139452 182380,-234248 155561,-377242 -64349,-679424 -446990,-713413 -162730,-14295 -318291,14338 -463099,98381 110862,-278947 307538,-475623 582900,-616889 -271822,-76874 -159146,-48284 -439864,-112633 261025,-166315 539972,-236019 831401,-261068 -92982,-57223 -860034,-64349 -1255199,373701 141266,25006 277134,50054 414815,75103 -425526,125157 -786702,352236 -1115703,636539 19650,-85813 48284,-169856 58994,-255713 10754,-80458 14338,-164458 1814,-243145 -26863,-168085 -159146,-270008 -352280,-291472 -141223,-16066 -278904,1814 -416586,23278 -16109,1771 -30404,5355 -51868,0 282532,-264652 643708,-388039 949432,-599009 107321,-80458 121616,-146621 53682,-266423zm2295799 479207c59037,286073 225309,455929 425569,434508 -82272,-202074 -216369,-348695 -425569,-434508z" p-id="10641"/>
   </g>
  </g>
 </g>
</svg>
