<?xml version="1.0" encoding="UTF-8"?>
<!DOCTYPE svg PUBLIC "-//W3C//DTD SVG 1.1//EN" "http://www.w3.org/Graphics/SVG/1.1/DTD/svg11.dtd">
<!-- Creator: CorelDRAW (评估版) -->
<svg xmlns="http://www.w3.org/2000/svg" xml:space="preserve" width="33.8667mm" height="33.8667mm" version="1.1" style="shape-rendering:geometricPrecision; text-rendering:geometricPrecision; image-rendering:optimizeQuality; fill-rule:evenodd; clip-rule:evenodd"
viewBox="0 0 3372460 3372460"
 xmlns:xlink="http://www.w3.org/1999/xlink"
 xmlns:xodm="http://www.corel.com/coreldraw/odm/2003">
 <defs>
  <style type="text/css">
   <![CDATA[
    .fil0 {fill:none}
    .fil1 {fill:#FF5630}
    .fil3 {fill:#C1C7D0;fill-rule:nonzero}
    .fil2 {fill:#EBECF0;fill-rule:nonzero}
    .fil5 {fill:#FF5630;fill-rule:nonzero}
    .fil4 {fill:white;fill-rule:nonzero}
   ]]>
  </style>
 </defs>
 <g id="圖層_x0020_1">
  <metadata id="CorelCorpID_0Corel-Layer"/>
  <rect class="fil0" x="-22" y="-25" width="3372460" height="3372460"/>
  <path class="fil1" d="M2222814 252277l102757 129c28659,-50 58464,926 86804,1404 63114,737 126119,6244 188366,16510 62108,10585 122603,30621 178996,59071 113263,57687 205594,149988 263330,263281 28450,56442 48406,116887 59021,179205 10127,62108 15823,125541 16590,188396 767,28868 1245,57767 1245,86645 259,34236 259,68481 259,102727l0 1073168c0,34246 0,68481 -259,102727 0,28868 -478,57767 -1245,86645 -767,62845 -6463,126278 -16590,188386 -10615,62327 -30571,122763 -59021,179215 -57737,113293 -150068,205594 -263330,263281 -56392,28450 -116887,48486 -178996,59071 -62248,10267 -125252,15764 -188366,16510 -28341,478 -58145,1454 -86804,1404l-102757 129 -1073168 0 -102757 -129c-28659,50 -58454,-926 -86794,-1404 -63114,-747 -126129,-6244 -188366,-16510 -62108,-10585 -122603,-30621 -179006,-59071 -113263,-57687 -205584,-149988 -263330,-263281 -28450,-56452 -48406,-116887 -59011,-179215 -10137,-62108 -15823,-125541 -16600,-188386 -767,-28878 -1235,-57777 -1235,-86645 -269,-34246 -269,-68481 -269,-102727l0 -1073168c0,-34246 0,-68491 269,-102727 0,-28878 468,-57777 1235,-86645 777,-62855 6463,-126288 16600,-188396 10605,-62317 30561,-122763 59011,-179205 57747,-113293 150068,-205594 263330,-263281 56402,-28450 116897,-48486 179006,-59071 62238,-10267 125252,-15774 188366,-16510 28341,-478 58135,-1454 86794,-1404l102757 -129 1073168 0z"/>
  <g id="_105553225269472">
   <path class="fil2" d="M2520798 2573506c0,-10 0,-10 0,-10 0,57647 -46753,104390 -104390,104390 0,0 0,0 0,0l-1461392 0c-57637,0 -104380,-46743 -104380,-104390 0,0 0,0 0,0l-10 -1878933c10,0 10,0 10,0 0,-57637 46743,-104380 104380,-104380l896672 -10c199,0 408,0 597,0 27534,0 53973,10904 73510,30282l564721 564721c19388,19538 30282,45986 30282,73510 0,189 0,408 0,597l0 1314222z" p-id="3784"/>
   <path class="fil3" d="M2520798 2573506l0 104380c0,57637 -46753,104380 -104390,104380 0,0 0,0 0,0l-1461392 10c-57637,-10 -104380,-46753 -104380,-104390l0 -104390c0,0 0,0 0,0 0,57647 46743,104390 104380,104390l1461392 0c0,0 0,0 0,0 57637,0 104390,-46743 104390,-104390 0,0 0,0 0,0l0 10z" p-id="3785"/>
   <path class="fil4" d="M641855 1738415l2087713 0 0 521931c0,-10 0,-10 0,-10 0,57647 -46743,104390 -104390,104390l-1878943 10c-57627,-10 -104380,-46753 -104380,-104400 0,0 0,0 0,0l0 -521921 0 0z" p-id="3786"/>
   <path class="fil3" d="M850626 1738415l0 -208770 -208770 208780 208770 -10zm1670173 0l2091 -208770 207725 208770 -209816 0z" p-id="3787"/>
   <path class="fil5" d="M1163786 1842805l181625 0c1882,-80 3814,-139 5716,-139 31278,0 61381,11999 84066,33539 22087,22107 34525,52120 34525,83379 0,1424 -30,2898 -70,4312 20,1275 50,2579 50,3874 0,31378 -12408,61521 -34505,83797 -23451,22216 -54540,34594 -86844,34594 -2021,0 -4053,-40 -6064,-129l-104390 -10 0 163889 -74108 0 0 -407105zm69935 175361l93944 0c2370,179 4750,279 7130,279 17038,0 33768,-4810 48207,-13842 10755,-9699 16919,-23521 16919,-38020 0,-1593 -80,-3206 -219,-4780 -10,-35490 -23322,-53236 -69945,-53236l-96035 0 0 109598zm287060 -169097l164935 0c2181,-90 4391,-149 6592,-149 45578,0 88935,19906 118660,54431 30571,38269 47271,85858 47271,134872 0,3744 -100,7548 -289,11263 129,3336 219,6811 219,10197 0,49930 -15823,98644 -45100,139054 -28948,38797 -74556,61670 -122972,61670 -1464,0 -2938,-20 -4382,-60l-164935 0 0 -411277zm69935 340296l95000 0c1105,40 2241,60 3346,60 28988,0 56323,-13543 73899,-36606 17915,-26558 27534,-57916 27534,-89971 0,-3744 -139,-7548 -398,-11282 418,-4660 657,-9390 657,-14081 0,-32523 -10476,-64219 -29874,-90309 -19817,-22545 -48426,-35500 -78439,-35500 -647,0 -1314,20 -1942,20l-89782 0 0 277670zm616921 -274533l-216080 0 0 97081 216080 -10 0 66808 -216080 0 0 175371 -69935 0 0 -407105 286015 0 0 67854z" p-id="3788"/>
   <path class="fil3" d="M2520798 1259294l0 14608 -564730 0c-57637,0 -104380,-46743 -104380,-104390l0 -579339c199,0 408,0 597,0 27534,0 53973,10904 73510,30282l565766 564721c18751,19448 29247,45439 29247,72455 0,548 -10,1125 -10,1653l0 10z" p-id="3789"/>
  </g>
 </g>
</svg>
