<?xml version="1.0" encoding="UTF-8"?>
<!DOCTYPE svg PUBLIC "-//W3C//DTD SVG 1.1//EN" "http://www.w3.org/Graphics/SVG/1.1/DTD/svg11.dtd">
<!-- Creator: CorelDRAW -->
<svg xmlns="http://www.w3.org/2000/svg" xml:space="preserve" width="33.8667mm" height="33.8667mm" version="1.1" style="shape-rendering:geometricPrecision; text-rendering:geometricPrecision; image-rendering:optimizeQuality; fill-rule:evenodd; clip-rule:evenodd"
viewBox="0 0 3372420 3372420"
 xmlns:xlink="http://www.w3.org/1999/xlink"
 xmlns:xodm="http://www.corel.com/coreldraw/odm/2003">
 <defs>
  <style type="text/css">
   <![CDATA[
    .fil0 {fill:none}
    .fil1 {fill:#B60005}
    .fil2 {fill:white;fill-rule:nonzero}
   ]]>
  </style>
 </defs>
 <g id="圖層_x0020_1">
  <metadata id="CorelCorpID_0Corel-Layer"/>
  <rect class="fil0" x="-22" y="-25" width="3372420" height="3372420"/>
  <path class="fil1" d="M2222798 252264l102756 129c28659,-50 58463,926 86803,1404 63113,737 126117,6244 188364,16510 62108,10585 122602,30621 178994,59070 113261,57686 205591,149986 263327,263278 28450,56442 48405,116886 59021,179203 10127,62108 15823,125540 16590,188394 767,28868 1245,57766 1245,86644 259,34235 259,68481 259,102726l0 1073155c0,34245 0,68481 -259,102726 0,28868 -478,57766 -1245,86644 -767,62844 -6463,126276 -16590,188384 -10615,62327 -30571,122761 -59021,179213 -57736,113291 -150066,205591 -263327,263278 -56392,28450 -116886,48485 -178994,59070 -62247,10267 -125251,15763 -188364,16510 -28340,478 -58144,1454 -86803,1404l-102756 129 -1073155 0 -102756 -129c-28659,50 -58453,-926 -86793,-1404 -63113,-747 -126127,-6244 -188364,-16510 -62108,-10585 -122602,-30621 -179004,-59070 -113261,-57686 -205581,-149986 -263327,-263278 -28450,-56451 -48405,-116886 -59011,-179213 -10137,-62108 -15823,-125540 -16600,-188384 -767,-28878 -1235,-57776 -1235,-86644 -269,-34245 -269,-68481 -269,-102726l0 -1073155c0,-34245 0,-68491 269,-102726 0,-28878 468,-57776 1235,-86644 777,-62854 6463,-126286 16600,-188394 10605,-62317 30561,-122761 59011,-179203 57746,-113291 150066,-205591 263327,-263278 56402,-28450 116896,-48485 179004,-59070 62237,-10267 125251,-15773 188364,-16510 28340,-478 58134,-1454 86793,-1404l102756 -129 1073155 0z"/>
  <g id="_105553420016704">
   <path class="fil2" d="M2787930 1986974l0 -871398c0,-179890 -146362,-326530 -326530,-326530l-1537563 -10c-179890,0 -326530,146372 -326530,326540l0 1140152c0,179900 146362,326540 326530,326540l1537553 0c179900,0 326540,-146362 326540,-326530l0 -240145c1912,-9261 1912,-19069 0,-28619zm-1864093 -1061375l1537553 0c104937,0 190256,85310 190256,190246l0 719311 -461181 -461460c-26717,-26707 -70602,-26707 -97309,0l-327904 327626 -172531 -172531c-12816,-12816 -33528,-12816 -46334,0l-630735 630994 -182071 0 0 -1044208c0,-104668 85319,-189977 190256,-189977l0 0z" p-id="12112"/>
   <path class="fil2" d="M1074291 1219427m-128109 0c10,70741 57378,128109 128119,128109 70741,0 128109,-57368 128109,-128109 0,-70741 -57368,-128109 -128109,-128109 -70741,0 -128109,57368 -128109,128109l-10 0z" p-id="12113"/>
  </g>
 </g>
</svg>
