<?xml version="1.0" encoding="UTF-8"?>
<!DOCTYPE svg PUBLIC "-//W3C//DTD SVG 1.1//EN" "http://www.w3.org/Graphics/SVG/1.1/DTD/svg11.dtd">
<!-- Creator: CorelDRAW (评估版) -->
<svg xmlns="http://www.w3.org/2000/svg" xml:space="preserve" width="33.8667mm" height="33.8667mm" version="1.1" shape-rendering="geometricPrecision" text-rendering="geometricPrecision" image-rendering="optimizeQuality" fill-rule="evenodd" clip-rule="evenodd"
viewBox="0 0 1224075 1224075"
 xmlns:xlink="http://www.w3.org/1999/xlink"
 xmlns:xodm="http://www.corel.com/coreldraw/odm/2003">
 <g id="圖層_x0020_1">
  <metadata id="CorelCorpID_0Corel-Layer"/>
  <g id="_105553290403200">
   <g>
    <rect fill="none" x="-8" y="-9" width="1224075" height="1224075"/>
    <path fill="#AB8D7F" d="M806797 91567l37297 47c10402,-18 21220,336 31507,510 22908,267 45776,2266 68370,5993 22543,3842 44500,11114 64969,21437 41110,20942 74623,54444 95583,95565 10323,20486 17566,42426 21419,65045 3679,22543 5743,45567 6022,68381 278,10478 452,20967 452,31445 94,12430 94,24860 94,37290l0 389519c0,12426 0,24856 -94,37286 0,10478 -173,20967 -452,31449 -278,22810 -2342,45834 -6022,68377 -3853,22622 -11096,44558 -21419,65048 -20960,41117 -54472,74623 -95583,95561 -20468,10326 -42426,17598 -64969,21441 -22594,3726 -45462,5722 -68370,5993 -10287,173 -21104,528 -31507,510l-37297 47 -389519 0 -37297 -47c-10402,18 -21216,-336 -31503,-510 -22908,-271 -45780,-2266 -68370,-5993 -22543,-3842 -44500,-11114 -64969,-21441 -41110,-20938 -74623,-54444 -95583,-95561 -10326,-20490 -17570,-42426 -21419,-65048 -3679,-22543 -5743,-45567 -6022,-68377 -282,-10482 -452,-20971 -452,-31449 -98,-12430 -98,-24860 -98,-37286l0 -389519c0,-12430 0,-24860 98,-37290 0,-10478 170,-20967 452,-31445 278,-22814 2342,-45838 6022,-68381 3849,-22619 11093,-44558 21419,-65045 20960,-41121 54472,-74623 95583,-95565 20468,-10323 42426,-17595 64969,-21437 22590,-3726 45462,-5725 68370,-5993 10287,-173 21101,-528 31503,-510l37297 -47 389519 0z"/>
   </g>
   <path fill="black" fill-rule="nonzero" d="M606896 215053c-2957,1710 -3864,3072 -15350,21957l-9665 15929 -5570 340c-3072,228 -5801,-116 -6257,-683 -795,-1251 -17508,-19680 -24104,-26620 -3867,-4095 -6141,-4890 -11826,-4323 -4663,455 -8075,5917 -13644,22182 -7164,21047 -7619,21845 -12849,23208 -2273,683 -4547,1254 -5002,1254 -455,0 -6824,-4551 -14215,-10012 -22514,-16724 -25471,-17862 -31836,-11946 -2957,2845 -3528,4551 -5458,17407 -1139,7847 -2161,15358 -2389,16720 -1139,10355 -1590,11262 -6708,13767l-4890 2389 -5570 -2617c-17172,-8306 -29566,-14107 -31611,-14790 -3979,-1139 -8982,1023 -11711,5006 -2732,3983 -2732,7850 -799,38793 455,6257 228,6712 -3524,10012 -2161,1934 -4319,3524 -4775,3524 -455,0 -9781,-2273 -20696,-5002 -10915,-2617 -20924,-4551 -22174,-4211 -4435,1366 -6365,3184 -7843,7279 -1251,3755 -1026,5805 2841,20935 6369,25597 6253,23436 2161,27986l-3524 4095 -11599 -683c-6369,-455 -16373,-795 -22059,-795 -9893,-116 -10691,112 -13532,2841 -5002,5122 -4435,8646 5458,29237l8870 18545 -2389 4778c-1363,2617 -2501,4890 -2613,5006 -228,228 -12509,2161 -20584,3296 -3069,343 -6708,911 -7959,1139 -1251,228 -4547,799 -7276,1139 -6596,795 -8758,2049 -10915,6144 -2049,3979 -2161,7279 -343,10579 1023,2046 9893,14447 13193,18430 452,567 3069,4323 5797,8190 5002,6940 5002,6940 3524,11946l-1478 5006 -17168 6029c-9437,3300 -19102,7167 -21379,8418 -7160,3867 -7843,11830 -1702,18090 4319,4435 25583,23888 27061,24914 567,340 911,3069 911,6029 -343,6257 795,5346 -20924,18314 -15123,9101 -17056,10695 -18307,15018 -1251,4551 1934,11374 5801,12968 680,228 8414,4778 17168,10124l16033 9672 112 5685 116 5689 -9665 8534c-19330,17064 -22062,19908 -22174,23436 -228,4890 112,6257 2161,8985 1818,2501 5685,4095 29905,12629l12050 4207 1251 5461 1366 5573 -9437 12741c-5118,7055 -9553,13084 -9893,13427 -343,340 -1822,2273 -3300,4323 -2046,2957 -2501,4778 -2046,8302 911,7167 3640,9329 13417,10695 2729,340 6257,911 7847,1139 5230,911 9781,1706 14327,2273 12282,1478 12394,1594 15011,6828l2385 5006 -5570 11490c-3184,6257 -5685,11718 -5685,12058 0,340 -1478,3640 -3300,7279 -3864,7850 -3752,12629 571,17067 2613,2617 3524,2841 13305,2729 5685,0 15690,-340 22059,-683l11711 -683 3412 3867c3864,4438 3864,5122 0,18885 -1139,4211 -1934,7738 -1706,7738 228,0 -340,2161 -1251,4778 -911,2729 -1934,6712 -2273,8873 -343,2161 -799,4207 -1026,4323 -907,1023 2389,7847 4435,9329 4435,3184 6596,3296 17739,567 911,-228 7847,-2049 15350,-3867 7503,-1934 13988,-3528 14439,-3528 455,0 2617,1594 4778,3528 3864,3412 3979,3640 3524,10467 -228,3867 -683,13536 -1139,21498l-680 14450 3296 3640c5230,5801 8870,5234 30473,-5118l18195 -8646 4775 2501c4890,2729 5118,3184 6481,15130 455,3072 911,6484 1139,7395 228,911 795,4211 1135,7395 2049,16041 3640,19341 10348,20591 5118,911 7052,112 17739,-7850 5230,-3867 11371,-8306 13760,-9896 2273,-1594 4207,-3188 4207,-3755 0,-455 795,-795 1706,-795 907,0 1702,-571 1702,-1139 0,-1478 1706,-1478 7164,112 5006,1366 5118,1594 12965,23663 5570,16268 9209,21730 13984,21957 7391,340 6141,1251 25019,-19453 5342,-5805 9893,-11035 10005,-11606 567,-1590 9777,-1251 11826,343 1023,795 6369,8873 11711,17974 5458,8985 10688,17064 11711,17859 4778,3640 11259,3188 15011,-1139 2617,-2957 19330,-30260 19330,-31510 0,-2277 4551,-4551 9097,-4551 3640,0 5346,683 7048,2617 2845,3300 18650,20703 23313,25597 2841,2957 4435,3752 7959,3867 5002,0 8754,-1822 10460,-5346 683,-1254 3752,-9672 6936,-18773 3184,-9101 6141,-17291 6708,-18202 455,-911 3300,-2389 6141,-3184l5230 -1478 15350 11490c17851,13196 19673,14219 24903,13196 6481,-1251 8642,-5349 10460,-20024 455,-3412 911,-7279 1139,-8530 228,-1254 1023,-6144 1706,-10923l1363 -8646 4890 -2389 4890 -2389 5002 2389c35135,17064 37069,17519 42867,11830 2845,-2841 2957,-3524 2845,-14674 -116,-6369 -455,-16380 -795,-22069l-571 -10467 3867 -3524c2161,-1822 4319,-3416 4775,-3416 455,0 9781,2277 20696,5006 20468,5006 22514,5122 27632,1366 3979,-3072 4091,-7279 112,-22865 -2046,-8194 -3979,-16041 -4207,-17635 -340,-1594 -911,-4211 -1363,-5801 -571,-2389 0,-3867 2841,-7055l3524 -4095 11599 683c6369,340 16373,683 22059,795 10008,116 10688,0 13644,-2957 5573,-5689 5006,-7735 -11938,-42888l-2389 -4890 2389 -4778c1251,-2505 2389,-4778 2501,-4894 116,-228 9097,-1590 19785,-3184 21831,-3184 24220,-3867 26837,-7623 4319,-6144 2841,-9213 -14899,-33104 -7388,-10012 -8299,-11718 -7731,-14902 1023,-4551 3640,-8646 5458,-8646 911,0 9097,-2845 18423,-6144 16829,-6257 21831,-9329 22171,-13767 799,-7391 -907,-9441 -22966,-28781l-8870 -7623 340 -5685 228 -5689 16373 -9896c8982,-5461 17624,-10923 18990,-12173 4890,-4211 5002,-11606 228,-16041 -1366,-1251 -7847,-5461 -14555,-9329 -20924,-12285 -21151,-12513 -21491,-18430 -228,-5801 -1363,-4438 14327,-18430 18079,-16268 18079,-16268 17512,-23775 -455,-4323 -6141,-7963 -21719,-13424 -22742,-8078 -22174,-7738 -23765,-13767l-1251 -5234 11826 -15925c6593,-8761 12278,-17064 12621,-18318 1135,-3412 -228,-9553 -2617,-11602 -2273,-1934 -8302,-3640 -17284,-4778 -3412,-455 -7276,-1023 -8526,-1251 -1251,-228 -4551,-683 -7391,-1026 -11599,-1363 -12166,-1590 -14327,-6596 -1251,-2617 -2046,-5346 -1818,-6144 228,-795 3979,-8985 8414,-18202 9209,-19337 10005,-23548 5114,-28554 -2957,-2957 -3636,-3072 -13644,-2957 -5685,0 -15690,340 -22059,683l-11711 683 -3412 -3867c-3979,-4551 -3979,-3755 1706,-25940 4775,-18542 5002,-20819 2385,-25254 -3752,-6372 -6936,-6484 -29222,-911 -10915,2729 -20125,5006 -20580,5006 -455,0 -2617,-1594 -4775,-3412l-3979 -3528 680 -12741c455,-7055 799,-16951 799,-22069 112,-8761 -116,-9556 -2957,-12517 -5006,-4890 -9213,-4207 -28427,5122 -9209,4435 -17400,8190 -18307,8418 -795,228 -3524,-567 -6141,-1822 -5002,-2161 -5118,-2617 -6596,-14902 -1818,-15018 -5114,-30603 -6936,-32537 -2501,-2729 -8982,-3979 -12506,-2273 -1594,683 -9781,6484 -18307,12741l-15350 11490 -5118 -1478c-5913,-1594 -5570,-1023 -13872,-24231 -5913,-16496 -8870,-21162 -13760,-21390 -5458,-228 -6708,228 -10460,3871 -4323,4207 -23880,25594 -24903,27303 -340,567 -3184,907 -6253,680l-5570 -340 -10919 -17974c-6025,-9896 -11371,-18430 -11938,-18997 -1818,-1822 -10005,-2389 -12394,-911l0 -4zm15123 73036c13760,7283 16829,26620 5685,36632 -12621,11490 -33086,6029 -37409,-10012 -4207,-15697 8187,-30260 24332,-28666 2505,340 5801,1251 7391,2046zm-42867 57451c16261,16268 21491,20707 25359,22069 5910,2049 12621,1706 17508,-795 1934,-1023 12509,-10807 23425,-21730 19102,-19113 20241,-20020 23765,-19453 21947,3755 49579,13196 73799,25254l12166 6032 -1251 4323c-683,2389 -3412,10464 -6029,17974 -2729,7507 -10005,28214 -16258,46073 -6257,17862 -12737,36292 -14443,40955 -1590,4666 -8071,22865 -14212,40387 -6141,17519 -16373,46640 -22742,64842 -6369,18090 -14895,42209 -18762,53471 -3979,11262 -13189,37311 -20468,58018 -11938,33899 -26949,78042 -28199,83272 -340,1710 -567,1710 -1023,343 -340,-911 -5797,-17064 -12054,-35837 -6253,-18770 -14779,-43911 -18986,-55745 -4207,-11942 -9553,-27303 -11942,-34127 -2385,-6940 -7503,-21502 -11371,-32421 -3864,-10923 -10572,-29920 -14779,-42093 -4323,-12173 -9441,-26848 -11371,-32421 -2049,-5689 -7164,-20251 -11371,-32425 -4323,-12173 -10919,-31171 -14783,-42093 -3867,-10919 -7391,-21159 -7959,-22753 -455,-1590 -3528,-10236 -6824,-19337 -3184,-9101 -7048,-20136 -8526,-24459 -1478,-4438 -4778,-13767 -7279,-20935 -2613,-7052 -4663,-13536 -4663,-14219 0,-1251 19557,-11262 31272,-16041 15918,-6600 47869,-16041 54921,-16380 1934,-116 7847,5118 23082,20248l0 0zm-176245 137199c18874,52785 25583,71442 33885,94650 3184,8646 13417,37427 22854,64047 9437,26620 19673,55289 22742,63707 3069,8422 13305,37087 22742,63707 22742,64051 28199,79065 30701,85892 5685,15242 14783,41865 14443,42317 -1934,1822 -58676,-17291 -62540,-21159 -911,-911 -1139,-2046 -2501,-10352 -343,-2845 -1026,-6712 -1366,-8534 -228,-1934 -683,-4435 -911,-5685 -2841,-20024 -5114,-31514 -7048,-35497 -2273,-4890 -9437,-10236 -15011,-11262 -3296,-683 -23309,1478 -34792,3643 -2277,452 -6257,1135 -12509,2161 -13760,2273 -13305,2273 -18307,-3072 -23082,-24802 -45823,-62569 -57765,-95904 -2729,-7847 -8414,-26277 -9322,-30715 -795,-3867 -3752,-19113 -4435,-22753 -340,-1934 -911,-5461 -1139,-7963 -228,-2505 -795,-8190 -1363,-12513 -911,-8306 -795,-48350 112,-52333 228,-1251 571,-4207 571,-6484l112 -4207 24560 -12289c25359,-12741 31044,-16724 34113,-24003 3412,-8418 2273,-12401 -11711,-40044l-13077 -25481 1934 -4099c2613,-5458 9893,-16836 18647,-28893 6824,-9444 7391,-9900 8302,-7395 567,1478 8754,24231 18079,50511l0 0zm451643 -32992c4663,6828 9553,14674 11031,17407l2729 4778 -12961 25369c-12737,24686 -12965,25481 -13077,32877 0,6596 455,8078 3524,12401 3867,5346 5118,6141 35479,21386 15007,7623 20580,10923 20465,12401 0,1023 343,5461 911,9896 1590,14219 795,53583 -1251,63707 -228,1251 -795,4323 -1023,6828 -3184,24571 -14555,60180 -27177,85321 -10576,21159 -29338,48917 -42982,63592l-6369 6828 -12394 -2049c-6820,-1139 -13189,-2273 -14212,-2389 -1023,-228 -4551,-683 -7959,-1135 -3412,-455 -8190,-1254 -10691,-1822 -8187,-1822 -15690,-1251 -21148,1594 -7619,3979 -10688,9668 -12965,22980 -2273,13764 -2613,15813 -3408,21614 -343,2501 -911,5801 -1139,7395 -340,1590 -911,4778 -1251,7279 -1023,6484 -1366,8534 -2046,9556 -343,567 -4095,2389 -8302,4095 -4207,1822 -9209,3867 -11143,4666 -8982,3752 -42411,13652 -43322,12741 -455,-455 1139,-6144 2957,-10467 795,-1822 11371,-31398 22514,-63140 1251,-3412 10005,-27983 19557,-54606 20013,-56085 57650,-161542 74023,-207614 6257,-17519 11826,-32992 12394,-34358 571,-1363 2389,-6484 3979,-11374 1594,-4890 3412,-9896 3867,-11150 2161,-5230 6141,-16380 16145,-44706l10688 -29920 3072 3752c1706,2049 6936,9329 11483,16268l0 0zm-518163 49716c13417,9101 12733,29692 -1139,37882 -9437,5461 -19897,4207 -27516,-3412 -7052,-7055 -8642,-17407 -4207,-26053 6253,-12173 21491,-16041 32862,-8418zm574677 -911c14439,7167 15918,28554 2613,37994 -17508,12401 -41500,-5118 -34792,-25481 2161,-6372 8642,-12629 15011,-14562 6365,-1818 10460,-1363 17168,2049zm-109158 339352c2158,1254 5570,4666 7391,7738 2841,4551 3408,6596 3296,11946 -567,28666 -42527,29804 -44573,1251 -1366,-18430 17512,-30032 33885,-20931l0 -4zm-358407 -907c18647,9556 16145,36744 -3867,42090 -15350,3983 -29450,-7847 -28312,-24003 907,-14902 18759,-24914 32179,-18086z"/>
  </g>
 </g>
</svg>
