<?xml version="1.0" encoding="UTF-8"?>
<!DOCTYPE svg PUBLIC "-//W3C//DTD SVG 1.1//EN" "http://www.w3.org/Graphics/SVG/1.1/DTD/svg11.dtd">
<!-- Creator: CorelDRAW -->
<svg xmlns="http://www.w3.org/2000/svg" xml:space="preserve" width="33.8667mm" height="33.8667mm" version="1.1" shape-rendering="geometricPrecision" text-rendering="geometricPrecision" image-rendering="optimizeQuality" fill-rule="evenodd" clip-rule="evenodd"
viewBox="0 0 3372.38 3372.38"
 xmlns:xlink="http://www.w3.org/1999/xlink"
 xmlns:xodm="http://www.corel.com/coreldraw/odm/2003">
 <g id="圖層_x0020_1">
  <metadata id="CorelCorpID_0Corel-Layer"/>
  <g id="_105553220690784">
   <path fill="#00ACF9" d="M2222.77 252.26l102.75 0.13c28.66,-0.05 58.46,0.93 86.8,1.4 63.11,0.74 126.12,6.24 188.36,16.51 62.11,10.59 122.6,30.62 178.99,59.06 113.26,57.7 205.59,149.99 263.33,263.28 28.44,56.44 48.39,116.88 59.01,179.2 10.14,62.11 15.82,125.54 16.59,188.39 0.77,28.87 1.24,57.77 1.24,86.63 0.26,34.24 0.26,68.49 0.26,102.73l0 1073.14c0,34.23 0,68.48 -0.26,102.72 0,28.87 -0.48,57.77 -1.24,86.64 -0.77,62.84 -6.45,126.27 -16.59,188.38 -10.62,62.33 -30.57,122.76 -59.01,179.21 -57.75,113.28 -150.07,205.59 -263.33,263.27 -56.39,28.45 -116.88,48.48 -178.99,59.07 -62.25,10.27 -125.25,15.76 -188.36,16.51 -28.34,0.48 -58.14,1.45 -86.8,1.4l-102.75 0.13 -1073.14 0 -102.75 -0.13c-28.66,0.05 -58.45,-0.93 -86.79,-1.4 -63.11,-0.75 -126.13,-6.24 -188.36,-16.51 -62.11,-10.59 -122.6,-30.62 -178.99,-59.07 -113.26,-57.69 -205.59,-149.99 -263.33,-263.27 -28.45,-56.45 -48.4,-116.88 -59.01,-179.21 -10.14,-62.11 -15.82,-125.54 -16.59,-188.38 -0.78,-28.88 -1.24,-57.78 -1.24,-86.64 -0.27,-34.24 -0.27,-68.49 -0.27,-102.72l0 -1073.14c0,-34.24 0,-68.49 0.27,-102.73 0,-28.87 0.47,-57.77 1.24,-86.63 0.77,-62.85 6.45,-126.28 16.59,-188.39 10.61,-62.32 30.56,-122.76 59.01,-179.2 57.75,-113.29 150.07,-205.59 263.33,-263.28 56.39,-28.44 116.88,-48.47 178.99,-59.06 62.24,-10.27 125.25,-15.77 188.36,-16.51 28.34,-0.48 58.13,-1.45 86.79,-1.4l102.75 -0.13 1073.14 0z"/>
   <rect fill="none" x="-0.02" y="-0.03" width="3372.38" height="3372.38"/>
   <path fill="white" fill-rule="nonzero" d="M600.97 2006.62l120.64 0 41.82 -152.8 192.21 0 41.82 152.8 125.46 0 -190.61 -595.91 -140.73 0 -190.6 595.91zm188.19 -245.28l17.7 -65.14c17.7,-61.92 34.57,-129.47 50.67,-194.62l3.22 0c17.69,63.53 33.78,132.7 52.27,194.62l17.7 65.14 -141.54 0z"/>
   <path id="_1" fill="white" fill-rule="nonzero" d="M1219.75 2006.62l118.23 0 0 -268.6c25.73,-65.14 67.55,-88.47 102.14,-88.47 19.3,0 32.16,2.41 48.25,7.24l19.31 -102.14c-12.88,-5.63 -27.34,-9.65 -52.28,-9.65 -46.64,0 -94.9,32.17 -127.87,90.87l-2.41 0 -8.85 -79.61 -96.51 0 0 450.35z"/>
   <path id="_2" fill="white" fill-rule="nonzero" d="M1606.92 2006.62l118.22 0 0 -450.35 -118.22 0 0 450.35zm59.51 -523.53c40.21,0 68.36,-24.93 68.36,-64.34 0,-38.61 -28.15,-64.34 -68.36,-64.34 -41.81,0 -68.35,25.73 -68.35,64.34 0,39.4 26.54,64.34 68.35,64.34z"/>
   <path id="_3" fill="white" fill-rule="nonzero" d="M2372.56 2006.62l398.89 0 0 -99.72 -130.28 0c-28.96,0 -67.56,3.22 -98.12,7.23 106.97,-111.78 200.26,-216.32 200.26,-317.65 0,-109.38 -74.79,-180.94 -187.4,-180.94 -81.23,0 -134.3,32.16 -189.79,90.07l65.94 64.34c29.75,-32.17 65.14,-61.12 108.57,-61.12 57.11,0 89.27,34.58 89.27,94.09 0,86.05 -102.94,187.38 -257.35,335.35l0 68.36z"/>
   <path id="_4" fill="white" fill-rule="nonzero" d="M2061.63 1579.59c-53.09,0 -94.9,8.84 -125.46,28.15 -36.19,20.9 -58.71,54.68 -67.55,100.52l90.87 7.24c4.82,-21.72 16.89,-37.8 34.58,-48.26 15.28,-9.65 35.38,-13.67 61.12,-13.67 59.52,0 89.27,26.54 89.27,81.23l0 16.08 -90.87 2.41c-61.13,1.61 -108.58,14.48 -142.36,38.61 -36.99,24.92 -54.69,61.12 -54.69,107.76 0,34.58 12.88,62.72 38.61,85.24 24.93,21.72 58.71,32.98 102.14,32.98 36.19,0 67.56,-6.43 94.1,-18.5 23.32,-11.26 43.43,-26.54 59.51,-47.45l0 54.69 85.25 0 0 -265.39c0,-50.67 -12.88,-89.27 -38.61,-115.81 -28.95,-30.56 -74.79,-45.84 -135.91,-45.84zm82.84 237.23l0 20.91c0,32.17 -12.87,58.71 -36.99,79.62 -24.13,20.1 -53.88,30.55 -89.28,30.55 -20.1,0 -36.19,-5.63 -49.05,-15.28 -12.87,-9.65 -18.5,-21.72 -18.5,-36.19 0,-49.86 36.2,-75.6 109.39,-77.2l84.44 -2.42z"/>
  </g>
 </g>
</svg>
