<?xml version="1.0" encoding="UTF-8"?>
<!DOCTYPE svg PUBLIC "-//W3C//DTD SVG 1.1//EN" "http://www.w3.org/Graphics/SVG/1.1/DTD/svg11.dtd">
<!-- Creator: CorelDRAW (评估版) -->
<svg xmlns="http://www.w3.org/2000/svg" xml:space="preserve" width="33.8667mm" height="33.8667mm" version="1.1" style="shape-rendering:geometricPrecision; text-rendering:geometricPrecision; image-rendering:optimizeQuality; fill-rule:evenodd; clip-rule:evenodd"
viewBox="0 0 3372460 3372460"
 xmlns:xlink="http://www.w3.org/1999/xlink"
 xmlns:xodm="http://www.corel.com/coreldraw/odm/2003">
 <defs>
  <style type="text/css">
   <![CDATA[
    .fil0 {fill:none}
    .fil1 {fill:white}
    .fil3 {fill:#0C88DA;fill-rule:nonzero}
    .fil2 {fill:#0F5197;fill-rule:nonzero}
    .fil4 {fill:#2CC3D5;fill-rule:nonzero}
    .fil5 {fill:#49D668;fill-rule:nonzero}
   ]]>
  </style>
 </defs>
 <g id="圖層_x0020_1">
  <metadata id="CorelCorpID_0Corel-Layer"/>
  <rect class="fil0" x="-21" y="-26" width="3372460" height="3372460"/>
  <path class="fil1" d="M2222814 252277l102757 129c28659,-50 58464,926 86804,1404 63114,737 126119,6244 188366,16510 62108,10585 122603,30621 178996,59061 113263,57697 205594,149998 263340,263291 28440,56442 48396,116887 59011,179205 10137,62108 15823,125541 16590,188396 767,28868 1245,57767 1245,86635 259,34246 259,68491 259,102737l0 1073168c0,34236 0,68481 -259,102727 0,28868 -478,57767 -1245,86645 -767,62845 -6453,126278 -16590,188386 -10615,62327 -30571,122763 -59011,179215 -57747,113283 -150078,205594 -263340,263281 -56392,28450 -116887,48486 -178996,59071 -62248,10267 -125252,15764 -188366,16510 -28341,478 -58145,1454 -86804,1404l-102757 129 -1073168 0 -102757 -129c-28659,50 -58454,-926 -86794,-1404 -63114,-747 -126129,-6244 -188366,-16510 -62108,-10585 -122603,-30621 -178996,-59071 -113263,-57687 -205594,-149998 -263340,-263281 -28450,-56452 -48406,-116887 -59011,-179215 -10137,-62108 -15823,-125541 -16590,-188386 -777,-28878 -1245,-57777 -1245,-86645 -269,-34246 -269,-68491 -269,-102727l0 -1073168c0,-34246 0,-68491 269,-102737 0,-28868 468,-57767 1245,-86635 767,-62855 6453,-126288 16590,-188396 10605,-62317 30561,-122763 59011,-179205 57747,-113293 150078,-205594 263340,-263291 56392,-28440 116887,-48476 178996,-59061 62238,-10267 125252,-15774 188366,-16510 28341,-478 58135,-1454 86794,-1404l102757 -129 1073168 0z"/>
  <g id="_105553241665248">
   <path class="fil2" d="M2567950 2221032c-28928,15405 -59121,28968 -89921,40201 -98057,36755 -202258,55675 -307106,55675 0,0 -209,0 -209,0 -404934,0 -757638,-278228 -757638,-636070 866,-97609 54660,-187151 140418,-233715 -366396,15405 -460569,397216 -460569,620655 0,632644 582994,696854 708833,696854 67635,0 169506,-19697 231146,-39384l11123 -3426c235836,-81188 437317,-240915 570158,-452015 3475,-5467 5328,-11840 5328,-18343 0,-11601 -5875,-22416 -15604,-28729 -5806,-3724 -12567,-5706 -19468,-5706 -5736,0 -11392,1374 -16491,3993l0 10z" p-id="1447"/>
   <path class="fil3" d="M1495280 2656775c-76119,-47281 -142241,-109419 -194331,-182352 -86326,-118192 -132970,-261080 -132970,-407523 0,-263101 149560,-503508 385496,-619739 40788,-22097 86356,-33897 132721,-34286 86605,916 167942,42103 219983,111311 34554,46245 53813,102339 54819,160076 0,-1713 209736,-681439 -684864,-681439 -375816,0 -684864,356976 -684864,669449 -50,3127 -50,6532 -50,9669 0,162197 35441,322631 103594,469711 180480,384729 567578,630613 992548,630613 117664,0 234910,-19139 346410,-56213 -62756,19687 -128260,29745 -194003,29745 -121807,0 -241323,-34375 -344518,-99003l30 -20z" p-id="1448"/>
   <path class="fil4" d="M1894219 1864902c-6851,8554 -28251,21400 -28251,48794 0,22256 14549,43666 40230,61640 123281,85609 355273,74476 356129,74476 91236,-70 180848,-24736 259407,-71071 160992,-93924 260104,-266398 260233,-452822 2569,-191762 -68481,-319325 -96732,-375816 -46225,-90309 -106900,-172862 -179324,-243783 -88567,-86545 -192310,-157118 -305333,-207824 -159896,-71319 -333316,-108314 -508408,-108314 -1982,0 -3963,0 -5935,0 -20,10 -149,10 -149,10 -599066,0 -1087358,481471 -1095653,1080408 4282,-312473 315043,-565019 684864,-565019 29964,0 201182,2569 359555,86466 139542,73620 213162,161798 263679,249977 53076,91594 62497,206311 62497,252536 0,46225 -23123,113860 -66779,170362l-30 -20z" p-id="1449"/>
   <path class="fil5" d="M1981023 622557c0,0 797778,824576 -103932,1270078 0,0 -58294,96822 220182,146901 0,0 461336,100248 647542,-305104 37492,-127124 70881,-324104 -28251,-543351 -41425,-89383 -97230,-171806 -164776,-243375 -71150,-78151 -152697,-146413 -242100,-202676 -146552,-74904 -328645,-122414 -328645,-122414l-20 -60z" p-id="1450"/>
  </g>
 </g>
</svg>
