<?xml version="1.0" encoding="UTF-8"?>
<!DOCTYPE svg PUBLIC "-//W3C//DTD SVG 1.1//EN" "http://www.w3.org/Graphics/SVG/1.1/DTD/svg11.dtd">
<!-- Creator: CorelDRAW (评估版) -->
<svg xmlns="http://www.w3.org/2000/svg" xml:space="preserve" width="3.3867mm" height="3.3867mm" version="1.1" shape-rendering="geometricPrecision" text-rendering="geometricPrecision" image-rendering="optimizeQuality" fill-rule="evenodd" clip-rule="evenodd"
viewBox="0 0 324995 324995"
 xmlns:xlink="http://www.w3.org/1999/xlink"
 xmlns:xodm="http://www.corel.com/coreldraw/odm/2003">
 <g id="圖層_x0020_1">
  <metadata id="CorelCorpID_0Corel-Layer"/>
  <path fill="#963C4B" d="M223304 0l11650 10c3244,-10 6621,106 9836,163 7149,77 14289,701 21342,1871 7044,1200 13895,3464 20286,6689 12840,6535 23300,16995 29844,29835 3224,6401 5479,13252 6689,20315 1142,7034 1794,14222 1881,21342 86,3272 134,6545 134,9817 29,3886 29,7763 29,11650l0 121613c0,3877 0,7754 -29,11640 0,3272 -48,6545 -134,9817 -86,7120 -739,14308 -1881,21352 -1209,7053 -3464,13905 -6689,20306 -6545,12840 -17005,23300 -29844,29835 -6391,3224 -13243,5489 -20286,6689 -7053,1171 -14193,1794 -21342,1871 -3215,58 -6593,173 -9836,163l-11650 19 -121613 0 -11640 -19c-3244,10 -6621,-106 -9836,-163 -7149,-77 -14289,-701 -21342,-1871 -7044,-1200 -13895,-3464 -20286,-6689 -12840,-6535 -23300,-16995 -29844,-29835 -3224,-6401 -5479,-13252 -6689,-20306 -1142,-7044 -1794,-14231 -1881,-21352 -86,-3272 -134,-6545 -134,-9817 -38,-3886 -38,-7763 -38,-11640l0 -121613c0,-3886 0,-7763 38,-11650 0,-3272 48,-6545 134,-9817 86,-7120 739,-14308 1881,-21342 1209,-7063 3464,-13915 6689,-20315 6545,-12840 17005,-23300 29844,-29835 6391,-3224 13243,-5489 20286,-6689 7053,-1171 14193,-1794 21342,-1871 3215,-58 6593,-173 9836,-163l11640 -10 121613 0z"/>
  <g id="_105553256802688">
   <path fill="white" fill-rule="nonzero" d="M51666 252323c7974,0 12677,-4798 12677,-10441 0,-4990 -2745,-7687 -6938,-9414l-4520 -1823c-2936,-1209 -5364,-2092 -5364,-4558 0,-2284 1862,-3637 4894,-3637 2888,0 5172,1065 7370,2840l3493 -4290c-2802,-2840 -6804,-4472 -10863,-4472 -6948,0 -11928,4376 -11928,9970 0,5038 3541,7831 7034,9232l4568 2006c3080,1305 5220,2092 5220,4654 0,2428 -1910,3963 -5499,3963 -3032,0 -6343,-1535 -8761,-3819l-3963 4750c3359,3263 7974,5038 12581,5038z"/>
   <path id="_1" fill="white" fill-rule="nonzero" d="M78401 252323c3032,0 5643,-1449 7879,-3445l230 0 470 2793 5595 0 0 -15239c0,-7552 -3407,-11515 -10028,-11515 -4098,0 -7831,1583 -10853,3455l2418 4558c2428,-1439 4760,-2514 7178,-2514 3215,0 4337,1958 4433,4520 -10489,1123 -15008,4059 -15008,9606 0,4472 3023,7783 7687,7783zm2284 -5364c-2006,0 -3445,-883 -3445,-2936 0,-2370 2092,-4098 8483,-4846l0 5220c-1631,1631 -3080,2562 -5038,2562z"/>
   <path id="_2" fill="white" fill-rule="nonzero" d="M101682 251671l6852 0 0 -17945c1814,-2006 3493,-2936 4980,-2936 2524,0 3685,1401 3685,5451l0 15431 6804 0 0 -17945c1862,-2006 3541,-2936 5038,-2936 2466,0 3637,1401 3637,5451l0 15431 6804 0 0 -16266c0,-6573 -2524,-10489 -8070,-10489 -3349,0 -5911,2054 -8339,4568 -1209,-2888 -3397,-4568 -7130,-4568 -3407,0 -5825,1862 -8013,4146l-144 0 -509 -3493 -5595 0 0 26102z"/>
   <polygon id="_3" fill="white" fill-rule="nonzero" points="149288,251671 156188,251671 156188,236758 169239,236758 169239,251671 176091,251671 176091,217134 169239,217134 169239,230789 156188,230789 156188,217134 149288,217134 "/>
   <path id="_4" fill="white" fill-rule="nonzero" d="M197039 252323c6525,0 12542,-5038 12542,-13703 0,-8665 -6017,-13703 -12542,-13703 -6573,0 -12533,5038 -12533,13703 0,8665 5959,13703 12533,13703zm0 -5595c-3589,0 -5547,-3167 -5547,-8109 0,-4894 1958,-8109 5547,-8109 3541,0 5547,3215 5547,8109 0,4942 -2006,8109 -5547,8109z"/>
   <path id="_5" fill="white" fill-rule="nonzero" d="M217431 251671l6852 0 0 -17945c1814,-2006 3493,-2936 4980,-2936 2524,0 3685,1401 3685,5451l0 15431 6804 0 0 -17945c1862,-2006 3541,-2936 5038,-2936 2466,0 3637,1401 3637,5451l0 15431 6804 0 0 -16266c0,-6573 -2524,-10489 -8070,-10489 -3349,0 -5911,2054 -8339,4568 -1209,-2888 -3397,-4568 -7130,-4568 -3407,0 -5825,1862 -8013,4146l-144 0 -509 -3493 -5595 0 0 26102z"/>
   <path id="_6" fill="white" fill-rule="nonzero" d="M275853 252323c3215,0 6525,-1123 9088,-2888l-2332 -4194c-1910,1161 -3723,1766 -5825,1766 -3915,0 -6708,-2188 -7274,-6429l16083 0c182,-653 326,-1910 326,-3167 0,-7274 -3733,-12494 -10911,-12494 -6199,0 -12158,5268 -12158,13703 0,8627 5681,13703 13003,13703zm-6477 -16362c557,-3771 2984,-5729 5729,-5729 3407,0 4942,2236 4942,5729l-10671 0z"/>
   <path fill="white" fill-rule="nonzero" d="M222565 158386c1890,0 3253,403 3925,1353 681,950 950,2303 950,3791 0,1487 -269,2706 -950,3656 -672,950 -2034,1353 -3925,1353l-40083 0c1487,3387 2303,6641 2303,9750 0,7994 -2437,14087 -7178,18281 -4875,4059 -11919,5959 -21121,5556 -4606,-134 -9615,-681 -15172,-1497 -5547,-940 -11775,-2437 -18415,-4597 -2975,-950 -4741,-1900 -5278,-3119 -681,-1219 -681,-2706 -134,-4328 537,-1766 1487,-2850 2706,-3253 1219,-547 3387,-269 6497,672 6094,2034 11515,3387 16390,4337 4875,816 9203,1219 12993,1219 4606,0 8397,-537 11247,-1756 2840,-1219 4731,-3119 5412,-5691 816,-2984 950,-5691 537,-8397 -537,-2572 -1622,-4875 -3109,-7178l-67567 0c-1766,0 -3119,-403 -3800,-1353 -806,-950 -1219,-2169 -1219,-3656 0,-1487 413,-2840 1219,-3791 681,-950 2034,-1353 3800,-1353l53758 0c-950,-413 -1900,-681 -2850,-1084 -940,-269 -2025,-547 -2975,-950 -1487,-403 -2572,-1084 -3387,-2303 -816,-1219 -1219,-2437 -1084,-3791 134,-1353 681,-2706 1900,-3925 1219,-1219 2975,-2034 5547,-2706 3387,-816 6641,-1631 9615,-2303 2840,-681 5825,-1353 8665,-2034 1219,-269 1766,-537 1631,-816 -144,-134 -547,-269 -1363,-269l-53614 0c-3387,0 -5153,-1622 -5153,-4875 0,-3387 1766,-5009 5153,-5009l75964 0c3109,0 5547,816 7447,2437 1756,1622 2706,3387 2706,5278 0,1497 -537,2984 -1622,4203 -1219,1219 -2984,2303 -5422,2975 -5009,1219 -10422,2572 -15978,3791 -5547,1363 -10834,2581 -15843,3656 -672,144 -1084,278 -1084,413 0,134 413,537 1353,950 3253,1756 6238,3925 8944,6362l47664 0zm-65408 -80839c0,-1900 413,-3253 1353,-3934 816,-672 2034,-940 3800,-940 1487,0 2706,403 3647,1075 950,681 1363,2034 1363,3800l0 8531 52539 0c2025,0 3378,403 4059,1219 681,940 950,2159 950,3925 0,1487 -413,2706 -1084,3522 -816,940 -2169,1353 -3925,1353l-44287 0c3253,2437 6641,4741 10028,6900 3378,2169 6900,4203 10690,6094 3656,1900 7591,3791 11784,5556 4194,1756 8665,3522 13540,5278 2303,950 3791,1900 4472,3119 672,1219 672,2706 269,4194 -537,1766 -1487,2706 -2706,2984 -1353,403 -3253,134 -5691,-547 -5825,-2169 -11103,-4328 -15843,-6497 -4741,-2169 -9068,-4337 -13003,-6641 -4059,-2293 -7850,-4597 -11372,-7034 -3522,-2437 -7044,-5009 -10422,-7725l0 19634c0,3387 -1631,5153 -5009,5153 -1766,0 -2984,-413 -3800,-1084 -940,-681 -1353,-2034 -1353,-4069l0 -19356c-7034,5815 -14625,10968 -22743,15162 -8262,4337 -17196,8128 -26812,11237 -2716,950 -4741,1219 -6228,816 -1497,-269 -2581,-1353 -3119,-3119 -681,-2025 -537,-3522 403,-4741 816,-1075 2572,-2025 5153,-2975 16649,-5556 31408,-13003 44008,-22340l-42934 0c-1756,0 -3109,-413 -3791,-1353 -806,-816 -1219,-2034 -1219,-3522 0,-1766 413,-2984 1084,-3925 681,-816 1900,-1219 3925,-1219l52271 0 0 -8531z"/>
  </g>
 </g>
</svg>
