<?xml version="1.0" encoding="UTF-8"?>
<!DOCTYPE svg PUBLIC "-//W3C//DTD SVG 1.1//EN" "http://www.w3.org/Graphics/SVG/1.1/DTD/svg11.dtd">
<!-- Creator: CorelDRAW (评估版) -->
<svg xmlns="http://www.w3.org/2000/svg" xml:space="preserve" width="3.3867mm" height="3.3867mm" version="1.1" shape-rendering="geometricPrecision" text-rendering="geometricPrecision" image-rendering="optimizeQuality" fill-rule="evenodd" clip-rule="evenodd"
viewBox="0 0 324977 324977"
 xmlns:xlink="http://www.w3.org/1999/xlink"
 xmlns:xodm="http://www.corel.com/coreldraw/odm/2003">
 <g id="圖層_x0020_1">
  <metadata id="CorelCorpID_0Corel-Layer"/>
  <g id="_105553193395232">
   <path fill="#C47A9B" d="M223292 0l11649 10c3243,-10 6621,106 9836,163 7149,77 14288,700 21341,1871 7043,1199 13895,3464 20285,6688 12839,6535 23298,16994 29843,29833 3224,6400 5479,13252 6688,20314 1142,7034 1794,14221 1881,21341 86,3272 134,6544 134,9816 29,3886 29,7763 29,11649l0 121606c0,3877 0,7753 -29,11640 0,3272 -48,6544 -134,9816 -86,7120 -739,14307 -1881,21350 -1209,7053 -3464,13904 -6688,20304 -6544,12839 -17004,23298 -29843,29833 -6391,3224 -13242,5489 -20285,6688 -7053,1171 -14192,1794 -21341,1871 -3215,58 -6592,173 -9836,163l-11649 19 -121606 0 -11640 -19c-3243,10 -6621,-106 -9836,-163 -7149,-77 -14288,-700 -21341,-1871 -7043,-1199 -13895,-3464 -20285,-6688 -12839,-6535 -23298,-16994 -29843,-29833 -3224,-6400 -5479,-13252 -6688,-20304 -1142,-7043 -1794,-14230 -1881,-21350 -86,-3272 -134,-6544 -134,-9816 -38,-3886 -38,-7763 -38,-11640l0 -121606c0,-3886 0,-7763 38,-11649 0,-3272 48,-6544 134,-9816 86,-7120 739,-14307 1881,-21341 1209,-7062 3464,-13914 6688,-20314 6544,-12839 17004,-23298 29843,-29833 6391,-3224 13242,-5489 20285,-6688 7053,-1171 14192,-1794 21341,-1871 3215,-58 6592,-173 9836,-163l11640 -10 121606 0z"/>
   <g>
    <g>
     <path fill="white" fill-rule="nonzero" d="M162493 270656c-32836,0 -64147,-14940 -83722,-39937 -2255,-2869 -1746,-7014 1142,-9269 2860,-2255 7005,-1746 9260,1142 17100,21830 44505,34871 73321,34871 50128,0 90900,-38268 90900,-85344 0,-47076 -40772,-85325 -90900,-85325 -50128,0 -90900,38268 -90900,85344 0,7139 940,14192 2792,21034 940,3512 -1142,7149 -4664,8099 -3512,950 -7149,-1142 -8099,-4654 -2159,-7955 -3224,-16207 -3224,-24479 0,-54321 46712,-98538 104113,-98538 57411,0 104123,44217 104123,98538 -29,54331 -46741,98519 -104142,98519l0 0z" p-id="3968"/>
     <path fill="white" fill-rule="nonzero" d="M70547 145288c-1555,0 -3099,-528 -4337,-1622 -19767,-17291 -14192,-58380 -9097,-81295 796,-3570 3320,-6352 6794,-7494 3464,-1142 7178,-393 9941,1986l37250 32280c2764,2380 3061,6554 653,9317 -2370,2764 -6544,3051 -9308,653l-33470 -29008c-4903,24958 -5729,53429 5921,63619 2735,2399 3023,6573 624,9308 -1305,1507 -3128,2255 -4971,2255l0 0zm183892 0c-1852,0 -3666,-748 -4980,-2255 -2399,-2735 -2130,-6909 633,-9308 11640,-10191 10814,-38661 5921,-63619l-33470 29008c-2764,2380 -6938,2082 -9317,-653 -2399,-2764 -2082,-6938 662,-9317l37250 -32309c2764,-2399 6477,-3128 9941,-1986 3464,1142 5988,3953 6794,7494 5086,22943 10670,64003 -9097,81304 -1267,1113 -2812,1641 -4347,1641l10 0z" p-id="3969"/>
     <path fill="white" fill-rule="nonzero" d="M130069 151238m-9078 0c0,5009 4069,9068 9078,9068 5009,0 9068,-4059 9068,-9068 0,-5009 -4059,-9078 -9068,-9078 -5009,0 -9078,4069 -9078,9078l0 0z" p-id="3970"/>
     <path fill="white" fill-rule="nonzero" d="M186550 151238m-9068 0c0,5009 4059,9068 9068,9068 5009,0 9068,-4059 9068,-9068 0,-5009 -4059,-9078 -9068,-9078 -5009,0 -9068,4069 -9068,9078z" p-id="3971"/>
     <path fill="white" fill-rule="nonzero" d="M94901 188296c-345,0 -681,-48 -1046,-125l-51462 -12388c-2351,-566 -3809,-2936 -3253,-5316 557,-2351 2955,-3809 5316,-3253l51462 12398c2351,557 3809,2936 3253,5306 -489,2015 -2284,3378 -4270,3378zm729 27233l-52949 0c-2428,0 -4385,-1967 -4385,-4385 0,-2428 1958,-4395 4385,-4395l52949 0c2418,0 4385,1967 4385,4395 29,2428 -1967,4385 -4385,4385zm134455 -27233c-1986,0 -3781,-1363 -4270,-3378 -557,-2351 902,-4721 3253,-5306l51462 -12398c2351,-557 4731,902 5316,3253 557,2351 -902,4731 -3253,5316l-51462 12388c-345,77 -710,125 -1046,125zm20564 27233l-21293 0c-2428,0 -4385,-1967 -4385,-4385 0,-2428 1958,-4395 4385,-4395l21293 0c2428,0 4395,1967 4395,4395 0,2428 -1967,4385 -4395,4385zm31656 0l-14048 0c-2428,0 -4385,-1967 -4385,-4385 0,-2428 1958,-4395 4385,-4395l14048 0c2418,0 4385,1967 4385,4395 0,2428 -1967,4385 -4385,4385zm-136623 -3877c-12513,0 -22694,-10191 -22694,-22703 0,-1823 1478,-3301 3291,-3301 1823,0 3301,1478 3301,3301 0,8876 7226,16102 16102,16102 8876,0 16111,-7226 16111,-16102 0,-1823 1478,-3301 3291,-3301 1823,0 3301,1478 3301,3301 0,12513 -10191,22703 -22703,22703z" p-id="3972"/>
     <path fill="white" fill-rule="nonzero" d="M173720 211652c-12513,0 -22703,-10191 -22703,-22703 0,-1823 1487,-3301 3301,-3301 1823,0 3301,1478 3301,3301 0,8876 7226,16102 16102,16102 8876,0 16102,-7226 16102,-16102 0,-1823 1478,-3301 3301,-3301 1823,0 3301,1478 3301,3301 19,12513 -10162,22703 -22703,22703z" p-id="3973"/>
    </g>
   </g>
  </g>
 </g>
</svg>
