<?xml version="1.0" encoding="UTF-8"?>
<!DOCTYPE svg PUBLIC "-//W3C//DTD SVG 1.1//EN" "http://www.w3.org/Graphics/SVG/1.1/DTD/svg11.dtd">
<!-- Creator: CorelDRAW (评估版) -->
<svg xmlns="http://www.w3.org/2000/svg" xml:space="preserve" width="33.8667mm" height="33.8667mm" version="1.1" shape-rendering="geometricPrecision" text-rendering="geometricPrecision" image-rendering="optimizeQuality" fill-rule="evenodd" clip-rule="evenodd"
viewBox="0 0 835261 835261"
 xmlns:xlink="http://www.w3.org/1999/xlink"
 xmlns:xodm="http://www.corel.com/coreldraw/odm/2003">
 <g id="圖層_x0020_1">
  <metadata id="CorelCorpID_0Corel-Layer"/>
  <g id="_105553252567520">
   <g>
    <rect fill="none" x="-5" y="-6" width="835261" height="835261"/>
    <path fill="#99A4BC" d="M550519 62492l25450 32c7098,-12 14480,229 21499,348 15632,183 31236,1546 46653,4089 15382,2622 30365,7584 44332,14628 28052,14290 50920,37150 65222,65209 7044,13979 11986,28950 14615,44384 2511,15382 3919,31093 4109,46660 190,7150 308,14307 308,21457 64,8482 64,16963 64,25445l0 265793c0,8479 0,16961 -64,25443 0,7150 -118,14307 -308,21459 -190,15565 -1598,31275 -4109,46658 -2629,15437 -7572,30405 -14615,44386 -14302,28057 -37170,50920 -65222,65207 -13967,7046 -28950,12009 -44332,14630 -15417,2543 -31021,3904 -46653,4089 -7019,118 -14401,360 -21499,348l-25450 32 -265793 0 -25450 -32c-7098,12 -14477,-229 -21496,-348 -15632,-185 -31238,-1546 -46653,-4089 -15382,-2622 -30365,-7584 -44332,-14630 -28052,-14287 -50920,-37150 -65222,-65207 -7046,-13982 -11989,-28950 -14615,-44386 -2511,-15382 -3919,-31093 -4109,-46658 -192,-7152 -308,-14310 -308,-21459 -67,-8482 -67,-16963 -67,-25443l0 -265793c0,-8482 0,-16963 67,-25445 0,-7150 116,-14307 308,-21457 190,-15567 1598,-31278 4109,-46660 2627,-15434 7569,-30405 14615,-44384 14302,-28059 37170,-50920 65222,-65209 13967,-7044 28950,-12006 44332,-14628 15414,-2543 31021,-3907 46653,-4089 7019,-118 14398,-360 21496,-348l25450 -32 265793 0z"/>
   </g>
   <g>
    <path fill="white" fill-rule="nonzero" d="M249934 647325c-31411,-187 -56812,-25660 -56925,-57073l0 -345238c113,-31421 25514,-56891 56928,-57078l201067 0 113843 114124 0 86531c-14823,-4822 -30338,-7330 -45933,-7364 -80819,234 -146369,65545 -146894,146369 158,47893 23894,92682 63399,119730l-185484 0z" p-id="3200"/>
    <path fill="#CCCCCC" fill-rule="nonzero" d="M451931 274489c52,15703 12751,28437 28454,28540l56920 -2 -85411 -85613 37 57078 0 -2z" p-id="3200"/>
    <path fill="white" fill-rule="nonzero" d="M396088 526110c432,-67069 54952,-121217 122016,-121217 343,0 730,0 1073,0 355,0 742,0 1098,0 67059,0 121560,54158 121974,121212 -414,67064 -54915,121224 -121974,121224 -355,0 -728,0 -1085,0 -370,0 -728,0 -1085,0 -67064,0 -121585,-54153 -122016,-121215l0 -5z" p-id="3200"/>
    <polygon fill="#007BFF" fill-rule="nonzero" points="440854,521446 595633,521446 535958,465461 535958,499030 440854,499030 440854,521446 " p-id="3200"/>
    <polygon fill="#007BFF" fill-rule="nonzero" points="500527,599772 500527,566203 596573,566203 596573,543826 440820,543826 " p-id="3200"/>
   </g>
  </g>
 </g>
</svg>
