<?xml version="1.0" encoding="UTF-8"?>
<!DOCTYPE svg PUBLIC "-//W3C//DTD SVG 1.1//EN" "http://www.w3.org/Graphics/SVG/1.1/DTD/svg11.dtd">
<!-- Creator: CorelDRAW -->
<svg xmlns="http://www.w3.org/2000/svg" xml:space="preserve" width="33.8667mm" height="33.8667mm" version="1.1" style="shape-rendering:geometricPrecision; text-rendering:geometricPrecision; image-rendering:optimizeQuality; fill-rule:evenodd; clip-rule:evenodd"
viewBox="0 0 3372460 3372460"
 xmlns:xlink="http://www.w3.org/1999/xlink"
 xmlns:xodm="http://www.corel.com/coreldraw/odm/2003">
 <defs>
  <style type="text/css">
   <![CDATA[
    .fil1 {fill:none}
    .fil0 {fill:white}
    .fil4 {fill:#9755FC;fill-rule:nonzero}
    .fil2 {fill:#E50080;fill-rule:nonzero}
    .fil6 {fill:#EF5350;fill-rule:nonzero}
    .fil5 {fill:#FF9800;fill-rule:nonzero}
    .fil3 {fill:#FFB724;fill-rule:nonzero}
    .fil7 {fill:#FFD83C;fill-rule:nonzero}
   ]]>
  </style>
 </defs>
 <g id="圖層_x0020_1">
  <metadata id="CorelCorpID_0Corel-Layer"/>
  <path class="fil0" d="M2222814 252277l102757 129c28659,-50 58464,926 86804,1404 63114,737 126119,6244 188366,16510 62108,10585 122603,30621 178996,59071 113263,57687 205594,149988 263330,263281 28450,56442 48406,116887 59021,179205 10127,62108 15823,125541 16590,188396 767,28868 1245,57767 1245,86645 259,34236 259,68481 259,102727l0 1073168c0,34246 0,68481 -259,102727 0,28868 -478,57767 -1245,86645 -767,62845 -6463,126278 -16590,188386 -10615,62327 -30571,122763 -59021,179215 -57737,113293 -150068,205594 -263330,263281 -56392,28450 -116887,48486 -178996,59071 -62248,10267 -125252,15764 -188366,16510 -28341,478 -58145,1454 -86804,1404l-102757 129 -1073168 0 -102757 -129c-28659,50 -58454,-926 -86794,-1404 -63114,-747 -126129,-6244 -188366,-16510 -62108,-10585 -122603,-30621 -179006,-59071 -113263,-57687 -205584,-149988 -263330,-263281 -28450,-56452 -48406,-116887 -59011,-179215 -10137,-62108 -15823,-125541 -16600,-188386 -767,-28878 -1235,-57777 -1235,-86645 -269,-34246 -269,-68481 -269,-102727l0 -1073168c0,-34246 0,-68491 269,-102727 0,-28878 468,-57777 1235,-86645 777,-62855 6463,-126288 16600,-188396 10605,-62317 30561,-122763 59011,-179205 57747,-113293 150068,-205594 263330,-263281 56402,-28450 116897,-48486 179006,-59071 62238,-10267 125252,-15774 188366,-16510 28341,-478 58135,-1454 86794,-1404l102757 -129 1073168 0z"/>
  <polygon class="fil1" points="0,0 3372460,0 3372460,3372460 0,3372460 "/>
  <g id="_105553419465504">
   <path class="fil2" d="M2670089 1320018c-46126,-111460 -139612,-231793 -213002,-269803 59738,117585 94283,235518 107497,323507l0 2171c100208,272691 45588,549983 -33051,719409 -121667,262116 -416226,530803 -877343,517729 -497802,-14200 -936653,-385476 -1018608,-871358 -14927,-76687 0,-115583 7508,-177811 -9141,47948 -12627,61829 -17178,147080l0 5447c0,588650 475387,1065879 1061756,1065879 525187,0 961210,-382757 1046620,-885539 1763,-13613 3226,-27365 4810,-41117 20992,-182820 -2470,-374950 -69009,-535603l0 10z" p-id="6077"/>
   <path class="fil3" d="M2156025 1453366c2350,1643 4431,3286 6642,4919 -26678,-47400 -60057,-91066 -98863,-129146 -330846,-331324 -86715,-718433 -45568,-738130l438 -568c-267383,156829 -358091,446937 -366416,592105 12408,-846 24756,-1902 37382,-1902 199529,0 373327,109897 466385,272721l0 0z" p-id="6078"/>
   <path class="fil4" d="M1690308 1519537c-1723,26608 -95259,117983 -127991,117983 -302695,0 -351808,183347 -351808,183347 13284,154439 120731,281593 250724,348880 5935,3057 11920,5815 17715,8564 10416,4431 20862,8863 31268,12816 44552,15704 91365,24726 138526,26578 530515,24935 633361,-635213 250465,-826906 98007,-17078 199798,22445 256619,62397 -93008,-162814 -266856,-272721 -466385,-272721 -12617,0 -24975,1066 -37373,1902 -106690,7429 -208979,46962 -292936,113263 16252,13792 34594,32155 73172,70204 72365,71499 257595,145079 257993,153732l10 -40z" p-id="6079"/>
   <path class="fil5" d="M1309672 1260160c8634,5586 15724,10297 22147,14589 -12527,-43995 -18970,-89831 -18970,-135668 0,-42103 5417,-84135 16013,-124854 -109349,49900 -194391,128628 -256220,198304 5009,-139 159398,-2928 237041,47629l-10 0z" p-id="6080"/>
   <path class="fil6" d="M633750 1749767c82164,485883 522100,857158 1021486,871349 462262,13085 757379,-255603 879524,-517729 78838,-169466 133577,-446718 33130,-719389l0 -2041c0,269 0,627 219,1773 37741,246910 -87651,486102 -283685,647860 -199,448 -398,906 -578,1364 -382010,311488 -747540,187928 -821548,137501 -5138,-2480 -10416,-5089 -15475,-7688 -222732,-106451 -314734,-309805 -295017,-484070 -188008,0 -252148,-158871 -252148,-158871 0,0 168829,-120552 391351,-15704 206092,97131 399636,15744 399636,15704 -398,-8654 -185618,-82453 -257863,-153732 -38567,-38050 -56910,-56412 -73162,-70204 -8763,-7449 -17994,-14499 -27534,-20892 -6333,-4431 -13284,-8863 -22147,-14589 -77643,-50557 -232042,-47769 -237131,-47629l-488 10c-42212,-53524 -39245,-230100 -36845,-266955 -488,-2300 -31447,16102 -35431,18890 -37243,26618 -72106,56512 -104042,89254 -36327,36785 -69746,77075 -99401,119407 -68402,97031 -117097,206978 -142868,322979 -836,2041 -38707,167614 -20016,253482l30 -80z" p-id="6081"/>
   <path class="fil7" d="M2063814 1329130c38797,38090 72176,81756 98844,129166 5527,4113 10894,8584 15953,13274 241303,222473 115065,537426 105456,560040 196034,-161748 321416,-400941 283685,-647860 -120333,-300603 -324423,-421763 -491091,-685531 -8464,-13314 -16879,-26608 -25114,-40848 -4153,-7190 -8116,-14658 -11701,-22167 -6861,-13314 -12258,-27474 -15893,-42013 0,-40 0,-90 0,-119 0,-1394 -1016,-2569 -2390,-2768 -329,-90 -667,-129 -996,-129 -339,0 -677,40 -1006,129 -169,80 -339,189 -478,309 -269,0 -538,309 -797,398 -41196,19697 -285328,406806 45528,738120l0 0z" p-id="6082"/>
   <path class="fil5" d="M2178531 1471370c-5069,-4710 -10436,-9181 -15953,-13314 -2171,-1643 -4431,-3286 -6642,-4929 -56821,-39912 -158612,-79475 -256629,-62397 382867,191702 280060,851841 -250455,826916 -47131,-1882 -93944,-10904 -138447,-26588 -10406,-3904 -20862,-8205 -31268,-12816 -6025,-2748 -12009,-5507 -17715,-8564l707 448c74008,50557 439538,174126 821548,-137501 0,0 219,-568 568,-1364 9480,-22226 135708,-337179 -105675,-559861l-40 -30z" p-id="6083"/>
   <path class="fil7" d="M1210509 1820868c0,0 49113,-183357 351798,-183357 32732,0 126268,-91445 128001,-117973 1723,-26518 -193544,81437 -399636,-15694 -222512,-104858 -391351,15694 -391351,15694 0,0 64130,158871 252148,158871 -19707,174266 72275,377440 295017,484070 4959,2350 9659,4969 14748,7279 -129982,-67157 -237300,-194451 -250724,-348880l0 -10z" p-id="6084"/>
  </g>
 </g>
</svg>
