<?xml version="1.0" encoding="UTF-8"?>
<!DOCTYPE svg PUBLIC "-//W3C//DTD SVG 1.1//EN" "http://www.w3.org/Graphics/SVG/1.1/DTD/svg11.dtd">
<!-- Creator: CorelDRAW (评估版) -->
<svg xmlns="http://www.w3.org/2000/svg" xml:space="preserve" width="33.8667mm" height="33.8667mm" version="1.1" style="shape-rendering:geometricPrecision; text-rendering:geometricPrecision; image-rendering:optimizeQuality; fill-rule:evenodd; clip-rule:evenodd"
viewBox="0 0 3372460 3372460"
 xmlns:xlink="http://www.w3.org/1999/xlink"
 xmlns:xodm="http://www.corel.com/coreldraw/odm/2003">
 <defs>
  <style type="text/css">
   <![CDATA[
    .fil0 {fill:none}
    .fil1 {fill:#00B388}
    .fil2 {fill:white;fill-rule:nonzero}
   ]]>
  </style>
 </defs>
 <g id="圖層_x0020_1">
  <metadata id="CorelCorpID_0Corel-Layer"/>
  <g id="_105553223419712">
   <rect class="fil0" x="-21" y="-26" width="3372460" height="3372460"/>
   <path class="fil1" d="M2222814 252277l102757 129c28659,-50 58464,926 86804,1404 63114,737 126119,6244 188366,16510 62108,10585 122603,30621 178996,59061 113263,57697 205594,149998 263340,263291 28440,56442 48396,116887 59011,179205 10137,62108 15823,125541 16590,188396 767,28868 1245,57767 1245,86635 259,34246 259,68491 259,102737l0 1073168c0,34236 0,68481 -259,102727 0,28868 -478,57767 -1245,86645 -767,62845 -6453,126278 -16590,188386 -10615,62327 -30571,122763 -59011,179215 -57747,113283 -150078,205594 -263340,263281 -56392,28450 -116887,48486 -178996,59071 -62248,10267 -125252,15764 -188366,16510 -28341,478 -58145,1454 -86804,1404l-102757 129 -1073168 0 -102757 -129c-28659,50 -58454,-926 -86794,-1404 -63114,-747 -126129,-6244 -188366,-16510 -62108,-10585 -122603,-30621 -178996,-59071 -113263,-57687 -205594,-149998 -263340,-263281 -28450,-56452 -48406,-116887 -59011,-179215 -10137,-62108 -15823,-125541 -16590,-188386 -777,-28878 -1245,-57777 -1245,-86645 -269,-34246 -269,-68491 -269,-102727l0 -1073168c0,-34246 0,-68491 269,-102737 0,-28868 468,-57767 1245,-86635 767,-62855 6453,-126288 16590,-188396 10605,-62317 30561,-122763 59011,-179205 57747,-113293 150078,-205594 263340,-263291 56392,-28440 116887,-48476 178996,-59061 62238,-10267 125252,-15774 188366,-16510 28341,-478 58135,-1454 86794,-1404l102757 -129 1073168 0z"/>
  </g>
  <g id="_105553224094976">
   <path class="fil2" d="M548031 1238492l0 203154 707310 0 0 -203154 -707310 0zm663126 158960l-618932 0 0 -114766 618932 0 0 114766z"/>
   <path class="fil2" d="M639366 1866565l0 25632 -104141 0 0 64429 94711 0 0 24975 -94711 0 0 70134 104141 0 0 25642 -133488 0 0 -210682 133488 0 0 -129zm72534 210672l-28689 0 0 -155146 26956 0 0 28958c11163,-19528 28968,-32413 51941,-32413 36128,0 57388,23650 57388,58981l0 99481 -28699 0 0 -98824c0,-20583 -10755,-32672 -34664,-32672 -20593,0 -38119,13812 -44104,32413l0 99083 -129 139zm224882 3316c-38787,0 -54321,-16869 -54321,-47550l0 -85679 -32682 0 0 -25234 32682 0 0 -40121 28689 0 0 40121 44104 0 0 25234 -44104 0 0 82891c0,18592 10496,23511 28291,23511 4650,0 9440,-667 13423,-1992l2390 0 0 25244c-4391,1723 -10496,3316 -18592,3316l119 259zm126059 0c-51533,0 -84345,-30282 -84345,-79166 0,-48884 30422,-82622 74785,-82622 44373,0 69079,30691 69079,76249l0 15146 -114239 0c3983,30282 25632,44502 54998,44502 18193,0 32005,-3057 45548,-12756l3057 0 0 24576c-13812,10496 -31746,14071 -48884,14071zm-54321 -93108l85948 0c-1075,-28291 -15813,-43437 -40788,-43437 -24965,0 -41445,18193 -45160,43437zm239361 -36128c-3983,-2002 -10097,-3326 -16471,-3326 -18193,0 -32672,12886 -38777,33738l0 95368 -28699 0 0 -155146 26966 0 0 33349c9161,-25234 25632,-35729 44104,-35729 6771,0 12746,1056 15136,2380l0 29366 -2390 0 129 0zm59639 100417l0 82224 -28689 0 0 -212007 26966 0 0 26707c9171,-15813 26966,-30023 50886,-30023 46882,0 71459,37064 71459,79166 0,42113 -24576,80899 -71459,80899 -22196,0 -39723,-12089 -49282,-26966l119 0zm91405 -53933c0,-31348 -17536,-52200 -48884,-52200 -18602,0 -33349,9829 -42521,26698l0 53266c9171,16471 23919,26698 42521,26698 31348,0 48884,-21649 48884,-54321l0 -139zm156471 -46484c-3983,-2002 -10097,-3326 -16471,-3326 -18203,0 -32672,12886 -38787,33738l0 95368 -28699 0 0 -155146 26976 0 0 33349c9032,-25234 25632,-35729 44094,-35729 6781,0 12756,1056 15146,2380l0 29366 -2390 0 129 0zm48884 -44901c-10765,0 -20593,-9161 -20593,-20195 0,-11024 9829,-19926 20593,-19926 10755,0 20593,8773 20593,19926 0,11163 -9440,20195 -20593,20195zm14210 170561l-28689 0 0 -155156 28689 0 0 155156zm46494 -36805l2659 0c12746,10496 31746,15813 49551,15813 16859,0 31746,-6383 31746,-20195 0,-13812 -12487,-16869 -37064,-24975 -21918,-7439 -46494,-15136 -46494,-44493 0,-29356 24975,-47828 56990,-47828 18193,0 34395,3724 47819,12756l0 26309 -3057 0c-12089,-9171 -26698,-14877 -44502,-14877 -17795,0 -28291,8096 -28291,19518 0,12756 10765,16212 36128,23909 22595,7439 47560,16212 47560,45568 0,32005 -26299,48476 -60306,48476 -20593,0 -41176,-5039 -52608,-14210l0 -26030 -129 259zm229533 40121c-51533,0 -84345,-30282 -84345,-79166 0,-48884 30282,-82632 74785,-82632 44502,0 69079,30691 69079,76249l0 15146 -114239 0c3983,30282 25632,44502 54998,44502 18193,0 32005,-3057 45548,-12756l3057 0 0 24576c-13812,10486 -31746,14081 -48884,14081zm-54321 -93118l85948 0c-1075,-28291 -15813,-43437 -40788,-43437 -24975,0 -41445,18203 -45160,43437zm-1157254 -421215l0 210672 -45827 0 0 -87262 -85420 0 0 87262 -45817 0 0 -210672 45817 0 0 83289 85291 0 0 -83289 45827 0 129 0zm124326 214397c-58045,0 -88995,-31348 -88995,-81965 0,-50607 32413,-83946 79176,-83946 50607,0 75840,31746 75840,79166l0 17805 -107866 0c3336,26030 23919,32672 44104,32672 18203,0 32413,-2390 47161,-10356l5049 0 0 33071c-13553,9829 -35072,13553 -54590,13553l119 0zm-42103 -97768l63094 0c-1334,-23650 -11422,-34007 -30023,-34007 -15803,0 -30014,7439 -33071,34007zm162187 94044l-33071 -153025 0 -5447 42501 0 17934 96444 4382 30950 6114 -30950 21519 -96444 48217 0 21260 96444 6373 30950 5039 -30950 17934 -96444 40519 0 0 5447 -33340 153025 -58713 0 -18861 -84613 -5447 -31746 -5447 31746 -18602 84613 -58314 0zm279482 3724c-33738,0 -50607,-15545 -50607,-51543l0 -162854 45827 0 0 159797c0,11163 4650,14877 15545,14877 3326,0 8763,-1056 12089,-1992l657 0 0 38119c-5039,1733 -14877,3734 -23640,3734l129 -139zm126059 0c-58045,0 -88995,-31348 -88995,-81965 0,-50607 32413,-83946 79176,-83946 50607,0 75850,31746 75850,79166l0 17805 -107866 0c3316,26030 23909,32672 44104,32672 18193,0 32403,-2390 47151,-10356l5039 0 0 33071c-13543,9829 -35062,13553 -54590,13553l129 0zm-42103 -97768l63094 0c-1324,-23650 -11422,-34007 -30014,-34007 -15813,0 -30023,7439 -33081,34007zm263679 36397l0 -63094 -67077 0 0 60973c0,16202 5437,23640 20583,23640 4382,0 10097,-1334 13145,-2659l4391 0 0 37731c-6114,1982 -15146,4640 -28699,4640 -38787,0 -55257,-18592 -55257,-61361l0 -63094 -27355 0 0 -37731 27355 0 0 -38388 45837 0 0 38388 67077 0 0 -38388 45827 0 0 38388 38119 0 0 37731 -38119 0 0 60963c0,16212 5447,23650 20593,23650 4382,0 10087,-1324 13145,-2659l4382 0 0 37721c-6104,2002 -15146,4650 -28689,4650 -38787,0 -55257,-18462 -55257,-61371l0 269zm218768 -7439l0 65086 -45548 0 0 -210672 81955 0c46484,0 77175,25642 77175,73192 0,47560 -30691,72524 -77175,72524l-36407 0 0 -129zm32682 -106800l-32682 0 0 68143 32682 0c23252,0 34405,-13812 34405,-33738 0,-20593 -11153,-34405 -34405,-34405zm197528 148375c-9430,17536 -26698,25244 -47819,25244 -29356,0 -53674,-16879 -53674,-48227 0,-31348 21260,-49541 61371,-49541 13155,0 26309,1334 38797,3714l0 -9161c0,-16869 -11820,-24308 -35471,-24308 -17536,0 -32015,3714 -44104,9829l-5039 0 0 -34405c12079,-6373 33728,-11820 54580,-11820 49561,0 75193,22585 75193,61770l0 100417 -43835 0 0 -23640 0 129zm-1324 -25901l0 -20195c-7837,-2380 -17934,-3057 -26040,-3057 -18592,0 -28032,7050 -28032,21529 0,14479 9440,20185 23252,20185 13812,0 26299,-6771 30681,-18462l139 0zm78898 -29356c0,-51274 36138,-83289 83020,-83289 19259,0 34007,4382 44104,11163l0 39713 -4650 0c-9829,-7439 -20583,-10755 -34395,-10755 -22595,0 -40788,15803 -40788,43168 0,27365 18193,42511 40788,42511 13812,0 24566,-3326 34395,-10765l4650 0 0 39713c-10097,6781 -24975,11173 -44104,11173 -46882,0 -83020,-31627 -83020,-82632zm208282 1992l0 76906 -45827 0 0 -210672 45827 0 0 120084 10765 -16202 42113 -51543 48486 0 0 5447 -58723 66420 58723 81287 0 5447 -51543 0 -39185 -58045 -10765 -18861 129 -269zm213719 53266c-9420,17536 -26688,25244 -47809,25244 -29346,0 -53664,-16879 -53664,-48227 0,-31348 21260,-49541 61371,-49541 13155,0 26299,1334 38797,3714l0 -9161c0,-16869 -11830,-24308 -35481,-24308 -17526,0 -32005,3714 -44094,9829l-5049 0 0 -34405c12089,-6373 33738,-11820 54600,-11820 49541,0 75173,22585 75173,61770l0 100417 -43845 0 0 -23640 0 129zm-1305 -25901l0 -20195c-7708,-2380 -17944,-3057 -25911,-3057 -18592,0 -28022,7050 -28022,21529 0,14479 9430,20185 23232,20185 13822,0 26309,-6771 30701,-18462zm130829 -76916c8504,-23640 26309,-33728 44493,-33728 6124,0 11163,1723 13155,2649l0 43437 -4780 0c-4650,-2390 -9430,-3724 -15793,-3724 -18213,0 -31358,8375 -35082,26309l0 91385 -45817 0 0 -158472 43825 0 0 32015 0 129zm190228 104141c-10496,16481 -26966,25911 -47570,25911 -43158,0 -69736,-34803 -69736,-82622 0,-47828 26707,-83289 69736,-83289 19269,0 35072,8365 45578,22983l0 -71469 45817 0 0 210672 -43825 0 0 -22187zm-1992 -29346l0 -55267c-8504,-12089 -19946,-17924 -33091,-17924 -20852,0 -35062,16202 -35062,45827 0,29615 14210,45160 35062,45160 13145,0 24586,-5716 33091,-17795z"/>
  </g>
 </g>
</svg>
