<?xml version="1.0" encoding="UTF-8"?>
<!DOCTYPE svg PUBLIC "-//W3C//DTD SVG 1.1//EN" "http://www.w3.org/Graphics/SVG/1.1/DTD/svg11.dtd">
<!-- Creator: CorelDRAW (评估版) -->
<svg xmlns="http://www.w3.org/2000/svg" xml:space="preserve" width="33.8667mm" height="33.8667mm" version="1.1" shape-rendering="geometricPrecision" text-rendering="geometricPrecision" image-rendering="optimizeQuality" fill-rule="evenodd" clip-rule="evenodd"
viewBox="0 0 669511 669511"
 xmlns:xlink="http://www.w3.org/1999/xlink"
 xmlns:xodm="http://www.corel.com/coreldraw/odm/2003">
 <defs>
     <linearGradient id="id0" gradientUnits="userSpaceOnUse" x1="514621" y1="390169" x2="137565" y2="390163">
      <stop offset="0" stop-opacity="1" stop-color="#FF5496"/>
      <stop offset="1" stop-opacity="1" stop-color="#FF8E55"/>
     </linearGradient>
     <linearGradient id="id1" gradientUnits="userSpaceOnUse" x1="452503" y1="160088" x2="251353" y2="425840">
      <stop offset="0" stop-opacity="1" stop-color="#0080B5"/>
      <stop offset="1" stop-opacity="1" stop-color="#80DFDC"/>
     </linearGradient>
 </defs>
 <g id="圖層_x0020_1">
  <metadata id="CorelCorpID_0Corel-Layer"/>
  <g id="_105553195818016">
   <g>
    <rect fill="none" x="-4" y="-5" width="669511" height="669511"/>
    <path fill="#907DAC" d="M441280 50083l20400 26c5690,-10 11606,184 17233,279 12530,146 25037,1240 37395,3278 12330,2101 24340,6079 35535,11725 22485,11454 40815,29778 52279,52269 5646,11205 9608,23205 11715,35576 2012,12330 3141,24923 3294,37401 152,5731 247,11468 247,17199 51,6799 51,13597 51,20396l0 213049c0,6797 0,13595 -51,20394 0,5731 -95,11468 -247,17201 -152,12476 -1281,25069 -3294,37399 -2107,12373 -6069,24371 -11715,35578 -11464,22489 -29794,40815 -52279,52267 -11195,5648 -23205,9626 -35535,11727 -12358,2038 -24865,3129 -37395,3278 -5626,95 -11543,289 -17233,279l-20400 26 -213049 0 -20400 -26c-5690,10 -11604,-184 -17231,-279 -12530,-148 -25039,-1240 -37395,-3278 -12330,-2101 -24340,-6079 -35535,-11727 -22485,-11452 -40815,-29778 -52279,-52267 -5648,-11207 -9610,-23205 -11715,-35578 -2012,-12330 -3141,-24923 -3294,-37399 -154,-5733 -247,-11470 -247,-17201 -53,-6799 -53,-13597 -53,-20394l0 -213049c0,-6799 0,-13597 53,-20396 0,-5731 93,-11468 247,-17199 152,-12478 1281,-25071 3294,-37401 2105,-12371 6067,-24371 11715,-35576 11464,-22491 29794,-40815 52279,-52269 11195,-5646 23205,-9624 35535,-11725 12356,-2038 24865,-3131 37395,-3278 5626,-95 11541,-289 17231,-279l20400 -26 213049 0z"/>
   </g>
   <g>
    <path fill="url(#id0)" d="M268914 272629c-14338,45868 -3610,98450 27076,148697 5328,-923 9454,-4128 9693,-10875 981,-27513 899,-46874 25680,-62690 16683,-10646 34297,-11842 51364,-6061 58303,19741 49887,97782 4867,125458 -17707,10885 -38437,16578 -62051,15074 -80802,-5154 -123147,-55351 -151860,-126415 -279,-718 -597,-1356 -917,-1955 -2870,-5383 -10808,-4784 -12800,998 -3149,8973 -4818,18225 -5104,27675 -2782,91323 81966,165860 170401,169604 196381,8311 257306,-234255 100336,-290476 -51666,-18468 -107067,-9580 -156683,10966z"/>
    <path fill="url(#id1)" d="M272320 263039c-19158,48041 -9177,104501 23669,158287 -7099,1230 -16337,-1591 -21374,-5492 -39202,-30343 -58259,-61774 -78400,-108071 -41904,-96319 28748,-185607 128368,-190340 61436,-2918 111499,19267 150065,65441 4899,5863 8890,12282 11964,19261 1631,3709 -641,8006 -4626,8732 -2793,510 -5943,387 -9452,-397 -42988,-9622 -86881,-13378 -129847,-1755 -31674,8570 -57856,24575 -70366,54331z"/>
   </g>
  </g>
 </g>
</svg>
