<?xml version="1.0" encoding="UTF-8"?>
<!DOCTYPE svg PUBLIC "-//W3C//DTD SVG 1.1//EN" "http://www.w3.org/Graphics/SVG/1.1/DTD/svg11.dtd">
<!-- Creator: CorelDRAW -->
<svg xmlns="http://www.w3.org/2000/svg" xml:space="preserve" width="33.8667mm" height="33.8667mm" version="1.1" style="shape-rendering:geometricPrecision; text-rendering:geometricPrecision; image-rendering:optimizeQuality; fill-rule:evenodd; clip-rule:evenodd"
viewBox="0 0 3372460 3372460"
 xmlns:xlink="http://www.w3.org/1999/xlink"
 xmlns:xodm="http://www.corel.com/coreldraw/odm/2003">
 <defs>
  <style type="text/css">
   <![CDATA[
    .fil0 {fill:none}
    .fil1 {fill:#C49A6C}
    .fil2 {fill:#002B64;fill-rule:nonzero}
    .fil3 {fill:#002B64;fill-rule:nonzero}
   ]]>
  </style>
 </defs>
 <g id="圖層_x0020_1">
  <metadata id="CorelCorpID_0Corel-Layer"/>
  <g id="_105553297908672">
   <rect class="fil0" x="-22" y="-25" width="3372460" height="3372460"/>
   <path class="fil1" d="M2222824 252267l102757 129c28659,-50 58464,926 86804,1404 63114,737 126119,6244 188366,16510 62108,10585 122603,30621 178996,59071 113263,57687 205594,149988 263330,263281 28450,56442 48406,116887 59021,179205 10127,62108 15823,125541 16590,188396 767,28868 1245,57767 1245,86645 259,34236 259,68481 259,102727l0 1073168c0,34246 0,68481 -259,102727 0,28868 -478,57767 -1245,86645 -767,62845 -6463,126278 -16590,188386 -10615,62327 -30571,122763 -59021,179215 -57737,113293 -150068,205594 -263330,263281 -56392,28450 -116887,48486 -178996,59071 -62248,10267 -125252,15764 -188366,16510 -28341,478 -58145,1454 -86804,1404l-102757 129 -1073168 0 -102757 -129c-28659,50 -58454,-926 -86794,-1404 -63114,-747 -126129,-6244 -188366,-16510 -62108,-10585 -122603,-30621 -179006,-59071 -113263,-57687 -205584,-149988 -263330,-263281 -28450,-56452 -48406,-116887 -59011,-179215 -10137,-62108 -15823,-125541 -16600,-188386 -767,-28878 -1235,-57777 -1235,-86645 -269,-34246 -269,-68481 -269,-102727l0 -1073168c0,-34246 0,-68491 269,-102727 0,-28878 468,-57777 1235,-86645 777,-62855 6463,-126288 16600,-188396 10605,-62317 30561,-122763 59011,-179205 57747,-113293 150068,-205594 263330,-263281 56402,-28450 116897,-48486 179006,-59071 62238,-10267 125252,-15774 188366,-16510 28341,-478 58135,-1454 86794,-1404l102757 -129 1073168 0z"/>
  </g>
  <g id="_105553297910912">
   <path class="fil2" d="M467869 1944985l2738 -4909 2450 -4103 3555 -5188c13384,-18293 36596,-38229 68272,-58991 43975,-28948 69099,-35769 130540,-40957l15574 -1095c39055,-1912 92311,14479 121807,7927l5457 -1364c21031,-6284 19936,-5736 33598,-12288l2450 -1095 5467 -2729c3555,-1643 4372,-2460 7648,-3824 10107,-4640 18024,-13105 27584,-18851 40141,-34405 74556,-87661 98316,-112516 63363,-68003 134095,-116071 237051,-189263l21848 -15296c104062,-69368 119626,-75651 288395,-119895l36606 -7648c139821,-40141 207277,-107049 284292,-171776 6284,-5188 12567,-10924 18303,-16660 25941,-24855 54341,-58165 83837,-97489 26498,-35779 51891,-72375 75382,-110066l17476 -28131 13921 -23212 -2450 3824c-8195,10924 39324,-83030 72644,-127821 52977,-71280 117973,-121528 197448,-139004 65823,-14200 166050,-25124 182979,-29217 16929,-4103 33051,-8743 49432,-14479 20205,-6552 44244,-13384 59260,-21031 0,0 64996,-27305 95318,-31129 16112,-2181 32493,-2181 48884,0l11741 2181c57079,12567 92032,48615 108971,98326 1633,4909 2997,9829 4372,14748l3276 13105 3545 15564 1643 6284 538 6562 548 11462c279,13662 279,32772 -817,51075 -2460,40410 -9291,76189 -22396,105954 -24855,56263 -83568,117714 -151571,168510l-12836 9281c-63901,45887 -100775,93675 -110883,163591 -13374,86028 -33041,170960 -58713,252894l-67177 243335c-11203,44244 -12288,136276 24308,154031l100218 69915 -58444 58991c-42600,54889 -128359,81108 -214924,81108l-13662 -279c-63353,-2181 -120433,-18572 -166040,-48605l-1364 -1095 -3555 4640c-3814,5188 -8186,11472 -12836,18572l-10097 15833c-38787,61182 -61999,88766 -107607,113342 -106242,56811 -216567,92580 -325538,92580 -12836,0 -25941,-548 -39603,-1633l-182431 -15843 113880 -142012 12288 -15574c16122,-20484 30591,-40420 43696,-59260l4640 -6552 -4372 -548c-124256,-16929 -236225,-28131 -311328,-28131l-17207 279c-13384,538 -22674,0 -35232,817l-29496 2460c-48067,3814 -96951,2729 -161410,43427l-43148 27574c-157855,101871 -198543,146114 -337548,146114l-26498 -279c-151024,-16650 -191722,-58981 -196363,-66360 -1912,-3276 -4640,-5736 -3814,-10645 17476,-54072 64996,-84116 94492,-104878l5736 -5188 -16112 -5736c-66639,-30312 -116071,-42600 -96951,-81656l0 0zm111152 160315c-13652,14479 -10107,22665 2460,27584 12557,4909 64996,21031 132452,13652 109519,-12019 89304,-25941 222034,-112516l54889 -35779c93406,-60087 119895,-68272 232142,-88208 20753,-3555 45329,-5188 75104,-5188 104868,0 262454,18024 432866,44244l74556 15833 -37143 68820 -17207 26220c-25393,34405 -42332,52439 -52708,62815 -10376,10376 -77563,64996 -77563,64996 72375,-9281 176974,4372 329641,-76737 16381,-9012 27853,-21579 48336,-53256l10924 -17476c41784,-67735 66639,-97499 117983,-123450l50248 -25672 36048 43975c25124,30581 71549,49422 132721,49422l9560 -269c18034,-548 98863,-40141 116619,-44512l7100 -1912 -2997 -3007c-34136,-38508 -92580,-57627 -97499,-116061 -3814,-46972 1364,-94502 7648,-119357l63084 -253711c21579,-70184 42610,-132173 55178,-204548l6005 -36048c16112,-114985 90668,-169058 179155,-236782l11741 -8743c57079,-41784 93675,-92032 108971,-126716 -10376,27315 548,-1095 548,-1095 0,279 -279,548 -548,1095 1095,-2738 2181,-5467 3555,-9291 16112,-42600 20484,-110883 15296,-150207 -5198,-39324 -25124,-51065 -28400,-52429 -2738,-1912 -9839,-5467 -16660,-5736 -13384,-817 -23760,-548 -55168,13652l-110335 33051c-39603,7369 -57079,14469 -92859,18024l-10645 1095c-71280,8186 -86575,7100 -147479,36048 -51334,23481 -86018,39603 -122623,89851 -16650,22665 -39593,64180 -52160,89851l-22386 41515 -10107 17755 -20215 30860 -6821 11462c-26767,43427 -64996,80571 -95040,121807 -34963,47789 -90947,92859 -124266,125352 -8733,8743 -17745,16929 -26488,24308 -109519,93944 -175879,140379 -374970,180798 -80023,16381 -161410,72365 -254259,135459l-21310 15017c-99959,72644 -179693,141464 -238684,206191l-9301 10376c-52708,54072 -57627,63353 -98863,79744l-5467 2181 -538 279c-4103,1912 -5736,2729 -10386,4919 -21300,6005 -25393,5457 -54889,9002 -47520,4919 -79196,-15296 -131635,-12557l-13384 1095c-34684,3276 -84932,27305 -109509,41784 0,0 -9829,5726 1633,11741 5467,2729 123988,53793 123988,53793 0,0 -98316,81118 -111968,95587l0 10z" p-id="8759"/>
   <path class="fil3" d="M2386684 859399c25941,-16112 56532,-22943 86844,-19388 0,0 25682,56811 -33857,106511 -59818,49701 -100507,26767 -96414,-7100 4103,-34146 20215,-63632 43427,-80023z" p-id="8760"/>
   <path class="fil3" d="M983217 2601249c-4372,-69089 -9839,-153752 -9291,-204279l-1912 0c-16660,49979 -35500,103504 -61999,172055l-96673 250714 -22665 0 -90678 -244978c-26220,-71827 -45877,-126995 -59529,-177791l-1643 0c-1095,54072 -4372,134374 -9829,210832l-14479 211937 -31945 0 33588 -461008 37143 0 99132 265730c21848,58713 37970,104878 51075,149391l1633 0c11741,-42600 28131,-87113 51891,-148843l102687 -266278 39055 0 30860 461008 -32224 0 -14200 -218489zm321714 218489l-4919 -46972 -1364 0c-15843,25393 -52439,54620 -104599,54620 -66092,0 -96683,-46434 -96683,-90399 0,-75651 66639,-121259 200186,-119895l0 -8743c0,-32493 -6284,-97220 -83837,-96673 -28679,0 -58723,7648 -82482,24576l-10376 -23481c30033,-20215 66639,-28400 96135,-28400 94761,0 112785,71001 112785,129713l0 128090c0,25941 1095,52708 4919,77832l-29765 0 0 -269zm-7110 -175331c-71549,-2191 -165772,8733 -165772,87661 0,47251 31129,68272 65275,68272 54620,0 85749,-33857 97220,-65813 2460,-7100 3555,-13931 3555,-19667l0 -70463 -279 10zm138467 -54351c0,-32772 -1095,-66639 -2729,-98595l30043 0 1364 66639 1912 0c14469,-41515 48336,-74287 93128,-74287 4640,0 9281,548 13384,1643l0 31129c-4919,-1095 -9560,-1095 -15843,-1095 -45060,0 -77284,39055 -86296,91763 -1643,9560 -2738,20484 -2738,31139l0 181336 -32493 10 0 -229682 269 0zm244430 -192270c0,15296 -10107,28400 -27315,28400 -14748,0 -25393,-13105 -25393,-28400 0,-15017 11462,-28400 26488,-28400 15574,0 26220,12836 26220,28400zm-42610 421952l0 -328277 32503 0 0 328277 -32503 0zm321993 0l-4909 -46972 -1643 0c-15843,25393 -52439,54620 -104599,54620 -66092,0 -96673,-46434 -96673,-90399 0,-75651 66639,-121259 200186,-119895l0 -8743c0,-32493 -6284,-97220 -83847,-96673 -28679,0 -58713,7648 -82472,24576l-10386 -23481c30043,-20215 66639,-28400 96135,-28400 94771,0 112785,71001 112785,129713l0 128090c0,25941 1095,52708 4919,77832l-29496 0 0 -269zm-7369 -175331c-71558,-2191 -165781,8733 -165781,87661 0,47251 31139,68272 65275,68272 54620,0 85759,-33857 97230,-65813 2460,-7100 3545,-13931 3545,-19667l0 -70463 -269 10zm139283 -279114c35500,-5736 74556,-9829 118252,-9829 83847,0 147469,22665 185439,63084 37134,38239 57348,89851 57348,159767 0,67735 -18572,128907 -60087,174784 -40420,44522 -110056,70732 -198812,70732 -35510,0 -68820,-817 -102140,-4093l0 -454445zm32493 427130c18851,3007 45608,3555 74287,3555 148016,0 220939,-82751 220939,-216299 1095,-116887 -63911,-196910 -211658,-196910 -35779,0 -63632,3555 -83568,7369l0 402285 0 0zm409923 -427130c25672,-6005 58175,-9829 92859,-9829 57348,0 95040,12557 120433,38239 18572,18572 28400,43696 28400,75920 0,46972 -33320,86844 -79196,102687l0 1912c38508,8464 97230,42332 97230,117156 0,37691 -13384,66639 -34146,87939 -30312,31408 -80013,44244 -145567,44244 -34953,0 -61999,-2450 -80013,-4093l0 -454176zm32503 196363l67187 0c66629,0 108692,-39603 108692,-90678 0,-64717 -49163,-88487 -117435,-88487 -30591,0 -48067,2460 -58444,4919l0 174246 0 0zm0 230499c13384,2997 32493,3814 56532,3814 70732,0 136823,-25393 136823,-103773 0,-72923 -62268,-104052 -135180,-104052l-58175 0 0 204010z" p-id="8761"/>
  </g>
 </g>
</svg>
