<?xml version="1.0" encoding="UTF-8"?>
<!DOCTYPE svg PUBLIC "-//W3C//DTD SVG 1.1//EN" "http://www.w3.org/Graphics/SVG/1.1/DTD/svg11.dtd">
<!-- Creator: CorelDRAW (评估版) -->
<svg xmlns="http://www.w3.org/2000/svg" xml:space="preserve" width="33.8667mm" height="33.8667mm" version="1.1" shape-rendering="geometricPrecision" text-rendering="geometricPrecision" image-rendering="optimizeQuality" fill-rule="evenodd" clip-rule="evenodd"
viewBox="0 0 3513304 3513304"
 xmlns:xlink="http://www.w3.org/1999/xlink"
 xmlns:xodm="http://www.corel.com/coreldraw/odm/2003">
 <g id="圖層_x0020_1">
  <metadata id="CorelCorpID_0Corel-Layer"/>
  <g id="_105553225151168">
   <g>
    <rect fill="none" x="-23" y="-26" width="3513304" height="3513304"/>
    <path fill="#FF0066" d="M2315646 262813l107048 135c29856,-52 60905,965 90429,1463 65750,768 131386,6504 196233,17200 64702,11027 127724,31900 186471,61538 117993,60096 214180,156252 274328,274276 29638,58799 50428,121769 61486,186689 10550,64702 16484,130784 17283,196264 799,30074 1297,60179 1297,90263 270,35666 270,71341 270,107017l0 1117987c0,35676 0,71341 -270,107017 0,30074 -498,60179 -1297,90263 -799,65470 -6733,131552 -17283,196254 -11059,64930 -31848,127890 -61486,186699 -60148,118024 -156335,214180 -274328,274276 -58748,29638 -121769,50511 -186471,61538 -64847,10696 -130483,16422 -196233,17200 -29524,498 -60573,1515 -90429,1463l-107048 135 -1117987 0 -107048 -135c-29856,52 -60895,-965 -90419,-1463 -65750,-778 -131396,-6504 -196233,-17200 -64702,-11027 -127724,-31900 -186482,-61538 -117993,-60096 -214170,-156252 -274328,-274276 -29638,-58810 -50428,-121769 -61476,-186699 -10561,-64702 -16484,-130784 -17293,-196254 -799,-30084 -1286,-60189 -1286,-90263 -280,-35676 -280,-71341 -280,-107017l0 -1117987c0,-35676 0,-71352 280,-107017 0,-30084 488,-60189 1286,-90263 809,-65480 6733,-131562 17293,-196264 11048,-64920 31838,-127890 61476,-186689 60158,-118024 156335,-214180 274328,-274276 58758,-29638 121779,-50511 186482,-61538 64837,-10696 130483,-16432 196233,-17200 29524,-498 60563,-1515 90419,-1463l107048 -135 1117987 0z"/>
   </g>
   <path fill="white" fill-rule="nonzero" fill-opacity="0.988235" d="M1489104 2400629l851 -953062c0,-19358 12231,-36682 31589,-41776l849624 -270977c4067,-1017 8144,-2033 12220,-2033 21391,0 43809,17314 43809,43799l0 773604c-90046,-35977 -206109,-35468 -318189,9824 -195580,79018 -305149,264514 -244659,414200l-2189 -5529c62669,155225 270334,212531 465924,133492 159655,-64505 261983,-199957 261298,-328957l820 -1220751c0,-138554 -134477,-237366 -267927,-196617l-848607 269961c-87089,26267 -146698,106530 -146698,197561l0 956029c-90056,-35998 -206119,-35489 -318230,9803 -195580,79029 -305149,264514 -244669,414200l-2189 -5529c62679,155225 270344,212531 465924,133492 160391,-64796 262937,-201202 261298,-330731z" p-id="1617"/>
  </g>
 </g>
</svg>
