<?xml version="1.0" encoding="UTF-8"?>
<!DOCTYPE svg PUBLIC "-//W3C//DTD SVG 1.1//EN" "http://www.w3.org/Graphics/SVG/1.1/DTD/svg11.dtd">
<!-- Creator: CorelDRAW -->
<svg xmlns="http://www.w3.org/2000/svg" xml:space="preserve" width="33.8667mm" height="33.8667mm" version="1.1" style="shape-rendering:geometricPrecision; text-rendering:geometricPrecision; image-rendering:optimizeQuality; fill-rule:evenodd; clip-rule:evenodd"
viewBox="0 0 3372460 3372460"
 xmlns:xlink="http://www.w3.org/1999/xlink"
 xmlns:xodm="http://www.corel.com/coreldraw/odm/2003">
 <defs>
  <style type="text/css">
   <![CDATA[
    .fil1 {fill:none}
    .fil10 {fill:#2F2B2B}
    .fil3 {fill:#282826}
    .fil8 {fill:#50320D}
    .fil4 {fill:#73739C}
    .fil11 {fill:#92918F}
    .fil12 {fill:#B0946C}
    .fil13 {fill:#B6882D}
    .fil0 {fill:#E6E6E6}
    .fil7 {fill:#E8B866}
    .fil5 {fill:#F49C0C}
    .fil6 {fill:#FCE9C8}
    .fil2 {fill:#FEB23D}
    .fil9 {fill:#FEFEFE}
   ]]>
  </style>
 </defs>
 <g id="圖層_x0020_1">
  <metadata id="CorelCorpID_0Corel-Layer"/>
  <path class="fil0" d="M2222814 252277l102757 129c28659,-50 58464,926 86804,1404 63114,737 126119,6244 188366,16510 62108,10585 122603,30621 178996,59061 113263,57697 205594,149998 263340,263291 28440,56442 48396,116887 59011,179205 10137,62108 15823,125541 16590,188396 767,28868 1245,57767 1245,86635 259,34246 259,68491 259,102737l0 1073168c0,34236 0,68481 -259,102727 0,28868 -478,57767 -1245,86645 -767,62845 -6453,126278 -16590,188386 -10615,62327 -30571,122763 -59011,179215 -57747,113283 -150078,205594 -263340,263281 -56392,28450 -116887,48486 -178996,59071 -62248,10267 -125252,15764 -188366,16510 -28341,478 -58145,1454 -86804,1404l-102757 129 -1073168 0 -102757 -129c-28659,50 -58454,-926 -86794,-1404 -63114,-747 -126129,-6244 -188366,-16510 -62108,-10585 -122603,-30621 -178996,-59071 -113263,-57687 -205594,-149998 -263340,-263281 -28450,-56452 -48406,-116887 -59011,-179215 -10137,-62108 -15823,-125541 -16590,-188386 -777,-28878 -1245,-57777 -1245,-86645 -269,-34246 -269,-68491 -269,-102727l0 -1073168c0,-34246 0,-68491 269,-102737 0,-28868 468,-57767 1245,-86635 767,-62855 6453,-126288 16590,-188396 10605,-62317 30561,-122763 59011,-179205 57747,-113293 150078,-205594 263340,-263291 56392,-28440 116887,-48476 178996,-59061 62238,-10267 125252,-15774 188366,-16510 28341,-478 58135,-1454 86794,-1404l102757 -129 1073168 0z"/>
  <rect class="fil1" x="-21" y="-26" width="3372460" height="3372460"/>
  <g id="_105553489440992">
   <path class="fil2" d="M1892854 1932318l307733 -17765 34206 -535982c-4730,-26110 2679,-52648 -3505,-105834 -1125,-9709 -4581,-16391 -3734,-28769l6781 22615c189,-9221 1344,-12816 -1553,-20543l-6393 -16152c-13593,29277 -5567,33409 -4232,38229 1583,5766 1026,6652 2181,12069 1175,5537 946,3754 1872,6523 7289,21848 677,16520 80,47858l-3326 -11153c-209,-637 -597,-1653 -777,-2171 -179,-498 -727,-986 -856,-2101 -129,-1115 -468,-1454 -886,-2091 -7469,15644 1295,18213 -16630,17427 -3017,-5686 -6602,-7070 3057,-16889 15086,-15306 9480,-11073 10585,-50238 -2420,4471 -3864,6483 -5905,9878 -11193,18691 5168,1185 -11133,30770 -16978,30810 -149,32533 -4501,42939 -4083,9400 -8534,5417 -14469,10874l-21888 48117c-5049,13563 -8763,13931 -10267,20772 -2699,12248 3087,3127 -6353,26717 -149,368 -428,1185 -568,1514 -6104,15216 -90,-6712 -5965,5786 -3396,18104 -2977,12149 -8912,25552l-20394 47042c-3346,6851 -7180,13682 -8265,24098l-9649 -2519c4013,12428 -2171,17775 -5756,25602 -10785,23551 -11342,41137 -30501,46126l-89871 164965c-12627,22047 -63005,110853 -76946,124306 2669,-1484 2788,2350 6074,-4053 -1553,8494 -1334,5766 667,16481zm271645 -493839c-5616,-4391 -7190,-1414 -5387,-13613 1832,-12458 2031,-9689 8195,-12448 5108,6562 5487,13214 1593,21300 -2221,4591 -1812,2191 -4401,4760z"/>
   <path class="fil3" d="M1640547 2178799l-4083 -9988 -617 -4352 4103 -4262 19090 -55885 17476 16839c-8345,6941 -24756,31896 -32155,39663 -5079,9102 -7040,8773 -886,14021l1026 -4581c-558,-4640 -1753,-3694 2589,-3694 3933,-4820 8285,-9132 12527,-14638l81576 -106770c-2181,-7210 6921,169 -4172,-7369 -2798,6393 -8245,15515 -12965,21051l-29994 37641c-6284,8873 -10814,11741 -12577,18781 -12856,-5357 -9819,-6284 -19538,-16391 856,-17865 18034,-40191 -4451,-46175 -7777,-2061 -9540,-139 -17357,-5367l-3306 -10804 319 15007c-47360,-996 -38976,8883 -52469,50597 -8016,24815 -19747,51742 -25264,75621l-30810 -358c5527,-29486 41366,-98794 32204,-121568 -14200,-7488 -43288,-5935 -61949,-2768 -8743,10854 -27902,72594 -34933,93974 -6931,21111 -20424,55576 -1862,77603l17994 14290c-19767,797 -39892,-4710 -47978,10954 -4830,9361 -13334,34783 -9271,44542 7688,8723 10984,7568 25473,7478 23182,-139 75980,1235 92580,-1962 46604,-8952 56791,-41465 70433,-56512 67366,-2270 50826,9908 80312,-31567 6702,-9440 9570,-11502 14051,-21201 17994,-229 21679,3266 35062,4949 4501,578 14847,757 19538,597l-25443 -2858c7478,-4073 28390,-4949 39026,-2101 11034,2958 8663,18004 7797,30422l-60256 558c9460,4501 45478,2679 58404,1553l1932 4063c259,558 627,1414 916,2031 8205,17257 13214,13055 44911,13314 28560,229 37153,2111 35839,-28599 21918,21181 31238,28410 73550,28540 16889,50 33788,-90 50667,10 18044,110 30501,3017 36924,-9968 8255,-16700 43805,-133368 47699,-140608 3675,-6821 159,-2519 5218,-5766 3157,7956 -19528,65653 -24178,79555 -4760,14260 -8235,25522 -13443,39802 -5666,15554 -12497,27873 3914,35441 14111,4601 41535,2659 56781,-747 11691,-21738 36118,-97071 43327,-124087l18781 -50c-20633,90907 -82114,140936 31418,124904 8425,-15644 26140,-71459 33778,-94522 2051,-6204 3326,-10635 5626,-16909l6871 -13234 18014 408 -25015 70563c-259,1424 -976,6801 -1334,7907 -1972,6124 -966,3147 -2938,6284 -3127,13862 -8843,17476 -5318,33340 8006,13752 59529,7538 63552,4969 13672,-8743 12886,-38597 23242,-52489 5099,5905 7319,-10605 1384,11830 -9759,36895 -24357,44483 40898,43537 36456,-538 24178,-31428 54909,-100477 4889,5776 4630,-6234 2151,9122l-8803 25174c-19737,57309 -30501,72465 38617,66002 16112,-1504 16510,-9659 21659,-25353l33539 -101333 30900 1314c-10994,48137 -52459,113392 -25194,124346 3714,1494 8006,1175 12009,1235 44712,597 44174,2838 54431,-26747 9600,-27703 17566,-53435 26986,-79515 38488,-106591 -70294,-81706 -111052,-86496 3565,-8186 20016,-28440 26239,-34973 27663,-29087 69278,-57129 106800,-75502 29097,-14240 59499,-24238 93068,-30780 56621,-11063 39663,30 98505,-21081l0 -9450 -4611 -558c-19946,25931 -143177,12059 -235318,80889 -32792,24487 -68920,48386 -93486,91395 -56572,1553 -26658,21748 -48496,47241 -1374,-4989 3047,-12448 5477,-22854 8245,-35441 25134,-53037 18114,-79127 -13842,-4471 -32762,-4501 -49292,-4262 -18900,269 -21250,8136 -26986,25881 -5915,18273 -19010,66082 -28749,78609 -13463,-3714 -5935,2430 -11183,-9171 -5228,-11541 -3306,-22973 -28639,-31009 -26329,-8365 -115463,-5069 -148325,-5009 -13105,20 -26259,-60 -39354,10 -26508,139 -17895,3824 -31896,8395 5178,-21350 17745,-40848 13901,-61760 -13204,-7050 -44542,-8654 -63403,-2709 -14509,17377 -13872,39175 -25274,56382 -29844,-677 -61849,-448 -85629,14330l-30492 12199c-9580,2390 9052,-2012 -4561,1036l-28619 7787c-5985,2768 -3316,1354 -6343,4143 -12706,-39533 1862,-72793 -17905,-97071l-61033 687 -32304 38806c-70,488 -60,1434 -50,1902 10,508 458,1633 518,2071l2260 4571c-3316,-6791 -4083,-5726 2788,-2729 -3067,-7040 -5477,-7329 1962,-3844 -2888,-5616 -4471,-5069 1713,-3754l2081 -3485 1703 -518c-1703,-6413 -3286,-5905 2848,-3515l1633 -3973 1723 -3914c-309,-4143 -1295,-3147 2788,-3147 4879,-5138 7976,-9171 11860,-13762l51772 2031c4690,18691 21410,208800 19458,226247l-57129 -817 -3784 -51981 -89523 488 -37064 52210 -54301 -1155c2898,-10954 25035,-38767 34126,-47161zm771071 -39394c-2021,-3356 -4182,5417 -807,-8444 2878,-11790 5706,-16202 13174,-21848l-12368 30292zm-513457 -55626c-319,667 -767,1543 -1016,1942 -14638,23869 -26638,18422 -38777,26459l19358 -3804 -19139 45508 -2679 -41525c-40,-368 -249,-1105 -319,-1454 -2709,-13633 -5009,-10048 3197,-15823 6572,-4630 31507,-9928 39374,-11302zm412542 100945c5497,-28141 19000,-49501 23710,-82921l11103 3067c-7996,11372 -11940,28928 -16242,42650 -9072,28898 -7488,33837 -18572,37203zm130311 42132c-15734,946 -34136,2609 -47878,-1534 518,-14579 20404,-64897 26767,-82682 9809,-27395 19836,-56372 27902,-84165 27902,-1155 59549,-1464 87461,-488 26658,926 51433,6931 52320,34525 657,20524 -33160,111540 -41206,134244l-47629 388c110,-15325 13433,-46544 18731,-62676l16261 -52967c-1892,-17486 -35401,-11890 -49113,-9699l-43616 125053zm-398770 -1723c-1036,-13792 46245,-137949 53823,-166459 36357,-2370 186544,-5417 209208,7907 24895,14628 9141,56532 627,79893 -9759,26757 -17158,52588 -27215,79455 -14359,2340 -36307,3206 -47978,-697 -3037,-29436 44622,-97210 32115,-123908l-36327 -329 -42939 125999 -48615 -1324c1145,-20573 31756,-97987 40041,-124605l-42113 -50 -42800 124854c-12308,2619 -37373,3037 -47828,-737zm33320 -141952c3625,-10934 1583,-9321 7498,-16271 219,349 6552,10 607,11422 -3704,7090 -60,3864 -8106,4850zm285626 143456c-15166,1185 -37004,2589 -49372,-1364 -597,-8663 46653,-147160 54869,-165931l49491 -1046c-329,13413 -47639,152856 -54988,168341zm-847011 -45847c13901,5527 32792,3784 48755,3436l42889 -125631c16142,-1056 33310,-1852 49432,1334l-57179 168201c-9480,25532 -29297,47111 -57677,54680 -17267,4601 -92530,5118 -110903,1902 -398,-13702 7578,-25801 9311,-38279 55436,-4113 98923,10257 109230,-19538 -48794,1225 -102847,3983 -84026,-60007 5108,-17367 31776,-99013 37771,-108174l47251 -597c-3914,29944 -38368,99760 -34853,122673zm860046 -135818c-2470,-11890 7927,-32732 11721,-45588l50418 1036c-767,11462 -10396,37930 -15246,45678l-46892 -1125zm-364713 181336c-21360,2111 -92909,2828 -110813,-2948 -6971,-2241 -14828,-6045 -18761,-9301 -29336,-24288 -11880,-79405 7956,-109299 6244,-9410 20404,-19199 30402,-28281 30302,-27524 65793,-10765 98226,-19916l20494 -56930 46952 199c30,17357 -64229,197996 -74456,226476z"/>
   <path class="fil4" d="M1836502 1993540c19767,24278 5198,57538 17905,97071 3027,-2788 358,-1374 6343,-4143l28619 -7787c13613,-3047 -5019,1354 4561,-1036l30492 -12199c23780,-14778 55785,-15007 85629,-14330 11402,-17207 10765,-39006 25274,-56382 18861,-5945 50198,-4342 63403,2709 3844,20912 -8723,40410 -13901,61760 14001,-4571 5387,-8255 31896,-8395 13095,-70 26249,10 39354,-10 32862,-60 121996,-3356 148325,5009 25333,8036 23411,19468 28639,31009 5248,11601 -2280,5457 11183,9171 9739,-12527 22834,-60336 28749,-78609 5736,-17745 8086,-25612 26986,-25881 16530,-239 35451,-209 49292,4262 7020,26090 -9868,43686 -18114,79127 -2430,10406 -6851,17865 -5477,22854 21838,-25493 -8076,-45687 48496,-47241 24566,-43009 60694,-66908 93486,-91395 92142,-68830 215373,-54958 235318,-80889 -33041,637 -87003,10585 -121309,14917 -40061,5069 -79804,9739 -120542,14429 -58125,6692 -702181,89393 -724607,85978z"/>
   <path class="fil2" d="M1771157 1581128c-8096,13991 -18144,51613 -25393,70642l-75323 217782 498 3605c-249,5128 528,697 -627,5825 -717,3127 -3187,9341 -4411,12776l-26478 73451c-229,11133 24586,4332 46643,1743l151731 -15853 36944 -530037 -4073 -8215c-1962,-6264 -358,80 -1215,-5656 -1543,-10386 2629,-32234 3027,-39683 1225,-22595 1613,-34873 -20,-45110 -80,13244 -7797,28112 -14041,34256 1643,7429 -2499,-2649 896,906l3744 3963c-6473,4750 -10366,11830 -12049,19518 -2599,11850 1573,12677 -3017,25901 -3465,9978 -7080,12039 -8773,21161 -5935,32095 -7976,24875 -14837,34485 -4471,6244 -1424,2101 -3455,11820 -3764,18014 -8405,18154 -11840,25453l-12388 35520c-1902,5128 -1763,6433 -2888,12049 -5367,-5198 -9789,-4143 -3724,-18950l16670 -51254 -916 8584 -3615 5467 717 2888 -3854 5537 986 2420 -3854 6005 966 2549 -4023 5875 1364 2181 -4182 6244 -1364 8833 -3326 5198 588 3236 -3575 5188 568 2798 -3396 5626 -2151 11322 -3475 5527 548 2599c-4063,4879 5596,-24825 13453,-30272 3465,8693 2201,18193 -488,28291 -2549,9510 597,8743 -7996,11063 -13981,3784 -2509,3276 -8574,-3256zm-130669 377430l2081 -3097 -2081 3097zm13443 -40947l2390 -2201 -2390 2201zm2679 -7717l2808 -3197c-3943,0 -2868,-926 -2808,3197zm2798 -7927l2709 -3684c-4053,0 -2768,-876 -2709,3684zm3226 -8096l2440 -3216 -2440 3216zm3037 -8225l2310 -3047 -2310 3047z"/>
   <path class="fil2" d="M2312865 1603822c-468,22844 3923,49153 5208,72694l1155 157367c-438,25771 -3694,51493 -2758,76627l214914 -26090 548 -11163 -2709 -13334c20,-926 249,-1305 548,-1882l-2689 -1763c-4630,3953 -1753,6423 -2918,-2529 -1782,-1593 -2410,-1105 -4780,-4611 -1305,-1932 -936,-597 -1822,-3386 -3047,-9610 -2151,-2579 996,-7259l-2858 -1932c-2987,1394 -3744,5318 -5955,-7937 -2539,-1832 -2370,5427 -6433,-7658 -2888,-9321 -1852,-2908 946,-7120l-2569 -2420c-5108,2430 1324,6284 -2002,159 -3784,-6941 -797,1155 1514,-2818l-2629 -2380c-1115,448 597,9460 -5407,-3525l0 -9321 -2569 -1992c-1135,428 697,8763 -5507,-3246l-319 -9122 -2400 -1892c-3754,1434 448,6094 -1832,-289 -3565,-9948 -1504,2958 1384,-3206l-2490 -1543c-6124,1703 -3406,2151 -807,-3625l-2330 -1185c-5118,408 1115,3635 -4511,-2729 -90,-90 -3107,-4770 -3177,-4909 -5218,-11412 -3983,-4690 -896,-11014l-2440 -1663c-5079,1703 -3884,4153 -817,-3396l-2231 -1703c-358,70 -299,8902 -5885,-3226 -5577,-12119 -1852,-6164 717,-9739l-2808 -2908c-6991,5706 2709,4581 -2071,1105 -5835,-4222 568,-1185 1454,-2738l-2878 -2619c-607,279 707,9928 -5328,-3226 -4601,-10038 -3037,-4093 269,-9291l-2669 -2519c-1573,1016 -6901,10008 -777,-2290l-2380 -2280c-3824,1095 1992,8873 -6184,-4949 -2390,-4033 -3455,-6224 -5069,-12597l-34664 -57886c-5786,-9908 -10496,-18144 -16331,-28769 -7698,-14021 -11551,-12228 -8514,-30999l-2390 2231c-1623,7459 458,9918 -2778,1026l-8624 -12278 -8723 378c-1543,-17098 -14150,-22714 -11263,-30452 -4441,-667 -5288,4372 -13583,-11432 -438,2729 -6931,2211 1872,3605 5377,846 -3157,4501 4770,-2300l-7588 -8932c-20713,-38667 -16451,-30073 -23879,-27713 9938,-2729 2888,1344 6971,-6791l-9699 -17427c-2818,3406 -7757,1265 -1773,18064 1016,2858 2480,5865 3356,8574 7937,24557 20603,99361 17088,120174z"/>
   <path class="fil2" d="M2596868 1628309l-2729 -2012c-1563,358 1653,8255 -5039,-3545 -5318,-9380 -1912,-5397 -946,-7648l-2719 -2101c-249,20 -139,6971 -2918,-2470 -1852,-6293 -1484,-269 757,-4212 110,-4451 1175,-3296 -3356,-3296 -916,1205 -378,8385 -2440,-2131 -2370,-1962 -1773,408 -3834,-4332 -3017,-6961 -1852,-1573 896,-4372l-3047 -2599c-3744,1225 1773,3894 -3575,-2251 -3366,-3854 -9151,-13613 -7588,-17267l2320 3376 -2320 -3376c139,-4182 1245,-3296 -2659,-3296 -3296,827 1743,2898 -3545,-2081 -1394,-1324 -2151,-2908 -4561,-5577 -13991,-7359 -3615,-8255 -20723,-25184 -12597,-12467 -2450,-12756 -14409,-27434 -6961,-8524 -7040,-5367 -9211,-19189 -7797,-6393 -10336,-4879 -10924,-18671l-8504 -1972c-7747,-16570 -4123,-8644 -11273,-17078l-20633 -39723c-8972,-14001 -8883,-6443 -13194,-18004 -8265,9102 -1912,-3356 -2808,5218 -568,5537 1982,1892 2878,2171 -5975,-1773 -4192,-2609 -6692,-647 3117,-8912 2898,-15455 -3067,-25044 -3226,-5188 -5357,-8006 -10068,-15425 -7289,-11482 -7548,-6134 -10127,-9380 -3714,-4670 3814,-2021 -8325,-17128 -368,-458 -936,-1105 -1305,-1583 -11332,-14608 -5995,-16819 -14320,-24298l-4471 -3226c-229,-388 -1573,-5547 -1613,-5646l-3595 -15614c-9669,-3097 -3914,-906 -14260,-13911l-6851 -17885c458,-777 -119,-1534 -458,-4451 -6214,-2161 -2460,-1215 -7419,-4690 -2818,-1972 1902,-757 -5915,-4421 2898,20215 17038,43288 10785,67296 -956,15206 6313,20135 -388,31975l2410 6562 2569 -8504c1314,13015 4123,19279 2330,32115 19478,25732 7548,196930 15584,212754l33897 58792c8205,14788 11382,24945 19787,27683 -1494,12507 9639,15047 17974,21489 13533,10446 58683,49641 73859,51393 458,597 1036,846 1314,1802 279,966 1095,1384 1484,1653 4202,2987 777,1175 6144,3356 14768,12378 52907,31896 76060,39394l4411 1902 -4411 -1902c-1763,-12816 -5935,-11004 -16779,-13384 -15684,-3455 -7767,-2559 -18034,-9311 -14180,-9341 -24935,-14359 -41246,-16700 -578,-1962 368,-4760 -1852,-7299l-7090 488c787,-12139 -4531,-11133 -16819,-16451l-11830 -7100c-13692,-9619 -16441,-14429 -27315,-17088 6323,-14330 1135,-17815 -13374,-21559 -4969,-1285 478,70 -6453,-1145 -16132,-2818 2131,319 -11641,-8056l-4401 -1484c3973,-14738 757,1683 15027,-22694 219,-358 667,-1185 1036,-1753 916,1603 7737,-2768 -1205,9729 -5845,8176 -4879,1862 -7040,13204 15823,-5357 438,-4989 17944,-4182 5009,229 15027,1165 24288,1175 2729,-5666 2071,-2649 2808,-10994l56104 -279 339 -16660c6523,1812 3635,1245 11034,2649 378,-12089 2938,-14718 3107,-29824 7080,2599 10048,10277 13533,15515l-5108 20c-100,0 -677,-110 -1006,-20 5477,6204 10894,6861 16909,2838 -8076,-2868 -7966,-3445 -11302,-11541 10287,13085 11750,6264 19777,16710l8863 16919c10426,13354 1763,-3276 10257,17795 2619,6483 4093,6264 8166,11362 10396,13005 2768,15176 17885,20285 -558,-1972 -1125,-5328 -1185,-7001 -10,-319 488,-787 498,-1553 0,-727 538,-876 787,-1324l2241 3495 -2241 -3495c139,-4023 1135,-3047 -2858,-3047 -4840,1245 -11133,-11790 -8883,-16520l-2669 -2071c-378,80 1046,9032 -3087,-2330 -1832,-5029 -1543,-1115 378,-4571l-2719 -1693c-836,-10 1484,8385 -3087,-2400 -2171,-5128 -468,-2181 279,-3774l2191 3336 -2191 -3336c-2619,-6911 -2420,-5517 -5616,-8723l-4133 -1344c-4700,-8942 -1792,-9520 -1504,-10167z"/>
   <path class="fil3" d="M1369261 2179586c-3904,3694 -1066,-3475 -1085,-3555 -1972,-7867 4192,617 1085,3555zm-423087 105734c-677,-11920 67286,-214725 75412,-226585 23690,-1643 95050,-3157 113542,4252 29655,11900 36307,44323 24566,80351 -28629,87870 -92590,81686 -147001,83787l-20673 58394 -45847 -199zm402564 -113014c-9400,15754 -19717,28858 -28968,43985 -7887,12896 -6443,11063 -25612,10924 -12039,-100 -24168,319 -36745,-886l-747 -147678c-17636,43527 -29227,109309 -47629,148494l-50955 -1414c-2071,-14310 64438,-194680 73480,-226545l75004 299 -1105 158691c3007,-2559 1534,-1165 4391,-4909l104878 -153424c538,-229 59360,-4411 72385,3236l-76199 223757 -50169 219c159,-23939 41127,-114697 48008,-143087l-60017 88338zm5905 67177c13812,5069 23272,3605 40529,3694 37074,179 28171,-1135 54371,-79585 57976,-173628 73699,-171468 7309,-171019 -46036,319 -40977,-6622 -62985,25423l-53654 81158c-2958,4222 -5557,7986 -9281,13095l-10217 11143c-119,-18801 5517,-120273 -5925,-127712 -12448,-5716 -66599,-4810 -82592,-1285 -15993,15276 -41226,107547 -52389,137212 4312,-93944 -60764,-79844 -135868,-80322 -33120,-209 -29137,1384 -38488,30442 -11711,36397 -23850,70144 -36397,107278 -8006,23720 -36108,86854 -29257,108921 10018,4531 56034,8116 64857,-737 4700,-4720 17188,-44761 19119,-53644 51523,-1175 78191,906 114936,-34166 4989,-4770 7488,-8166 11681,-13553l11641 -13025c-9530,51085 -35331,63423 42232,60495 35311,-1334 23372,-52001 44801,-83717 1753,21539 -1713,47769 518,67336 2529,22266 27703,16082 50159,16341 29775,349 26867,-8823 39543,-27086 5915,-8524 7817,-12278 13573,-20294l14111 -17188c-2241,23750 -19090,35092 -12328,60794z"/>
   <path class="fil5" d="M1412737 2196146c5875,-14589 11890,-29854 16730,-46892 4182,-14698 11004,-31109 16072,-45837l30382 -95259c-9580,-886 -59778,-5975 -61063,5079 -1992,4541 -4581,10058 -6752,13423l-7379 9659c-209,-468 -906,1155 -1324,1753 -2260,14569 -1295,5716 -5616,8136 1653,5049 2669,4113 -2509,3266l-3465 4123c-597,6174 -10307,15007 -19408,31447 -18522,33419 -35998,40211 -25254,53216l-8873 -5158c-1245,10227 3406,7498 -7239,8683 -7608,29675 -2669,14011 -12477,21549 -11223,8634 -3037,15853 -16232,14081 -7708,-11083 -3266,-143266 -3963,-170283l-56552 747c-8614,14957 -29775,84942 -36895,106342 -40270,121209 -46454,105665 1464,105625 7568,-10964 23123,-69557 29237,-88308 6811,-20912 21121,-79386 31467,-83000 5218,9211 1225,145537 2669,171238l42262 -1185 85828 -127483c16730,-26229 18612,-36536 35232,-38906l-31278 89672c-2519,27146 -2480,-757 -8982,36018 -886,4989 -2778,4292 -896,10914l-8365 -1085 -4541 29366 28500 -1892c1185,-10556 1016,-12916 9221,-19050z"/>
   <path class="fil1" d="M2268472 1401744l2480 2161c4123,0 3137,-1056 3167,2958l5118 12179 2719 2699 90 2659 2689 2967 329 2280 3097 2012 5706 14917 2669 1723c4292,0 3436,-1185 3316,2788l-269 1962c4750,0 3495,-1115 3226,3824l1603 7180 2818 2191 329 2629 2888 2470 169 2480 3276 2499 4650 11810c4411,0 3246,-1075 3276,3426l-40 1235c5059,0 4033,-1334 3655,3465l4511 11810c3973,0 2987,-996 2938,2997l60 1703c4889,0 3933,-1305 3505,3326l4640 11920c3973,0 2868,-946 2967,3197l30 956c4879,0 3814,-1255 3475,3525l-249 2848c6194,3087 2031,-7648 4989,6762l418 1792c4033,0 3077,-1026 3007,2948l0 1982c3963,0 2818,-886 2639,3406 2679,7200 3694,6722 5577,14927l2778 -1026 2390 -2231c-1374,-33588 1095,-68561 -1075,-101990 -2290,-35232 -5666,-66022 -9321,-100178l-3625 -23192 -2410 -6562c-5039,-55426 -42830,-177801 -80481,-211808l-12029 216289c-3445,65136 1006,32364 8305,62088z"/>
   <path class="fil5" d="M2719949 1830676l-2290 -956c-5567,478 70,6562 -7001,-5467 -5796,-9868 -1125,-1623 -4899,-11830 2380,3545 3744,4252 4033,3575 179,-418 1165,368 1573,787l-4133 -5477c-5009,-2171 -5009,60 -458,-2848l-3316 -2738 -1733 2171 -388 -5059 -5766 -8863c-1265,-1344 -4531,-3585 -6323,-7508 -5328,-11691 -1404,-2450 -169,-6403l-2370 -1245c-1006,-179 -1056,2977 -5049,-4352 -5367,-9858 -1842,-5716 -727,-8176l-2928 -1812c-139,10 -30,6104 -3087,-2350 -1703,-4730 -627,-2440 339,-4919l-2499 -906 -707 -3286 -2589 -2310c-289,50 -349,6134 -3167,-2300 -1812,-5417 -916,-2041 627,-4969l-2669 -1464 -2420 -3465c-3376,-2480 -1553,996 -4073,-4282 -3933,-8235 -1553,-1932 707,-4591l-2629 -1623c-159,0 90,6821 -3366,-2509 -1852,-4979 -836,-1932 548,-4720l-2609 -1524 -2330 1792 -339 -5407c-488,-468 -1175,-1105 -1444,-1404 -269,-309 -1075,-1036 -1404,-1424l-5885 -8385c-5975,-9809 -3864,-8962 -2828,-11462l-2649 -2061 -2868 3923c-15116,-5108 -7488,-7279 -17885,-20285 -4073,-5099 -5547,-4879 -8166,-11362 -8494,-21071 169,-4441 -10257,-17795l-8863 -16919c-8026,-10446 -9490,-3625 -19777,-16710 3336,8096 3226,8673 11302,11541 -6015,4023 -11432,3366 -16909,-2838 329,-90 906,20 1006,20l5108 -20c-3485,-5238 -6453,-12916 -13533,-15515 -169,15106 -2729,17735 -3107,29824 -7399,-1404 -4511,-836 -11034,-2649l-339 16660 -56104 279c-737,8345 -80,5328 -2808,10994 -9261,-10 -19279,-946 -24288,-1175 -17506,-807 -2121,-1175 -17944,4182 2161,-11342 1195,-5029 7040,-13204 8942,-12497 2121,-8126 1205,-9729 -368,568 -817,1394 -1036,1753 -14270,24377 -11053,7956 -15027,22694l4401 1484c13772,8375 -4491,5238 11641,8056 6931,1215 1484,-139 6453,1145 14509,3744 19697,7230 13374,21559 10874,2659 13623,7469 27315,17088l11830 7100c12288,5318 17606,4312 16819,16451l7090 -488c2221,2539 1275,5338 1852,7299 16311,2340 27066,7359 41246,16700 10267,6752 2350,5855 18034,9311 10844,2380 15017,568 16779,13384l4411 1902c11432,8494 52728,19777 68531,24596 23531,7180 28102,2788 48824,44592 100,-10565 -5019,1922 797,-11203l-1952 -468 -4133 2659 2798 -6513 -4222 -4979c1802,9191 1066,2141 -1663,6891l-1135 -5009c-30,-478 90,-1663 90,-2091 -40,-14001 -3864,6353 1514,-3366z"/>
   <path class="fil3" d="M781945 2196037c-2689,3117 -617,-2778 -627,-2838 -1046,-5865 2350,846 627,2838zm-208989 89463c-408,-10705 67436,-213889 75153,-226645 23471,-2280 93904,-2898 113372,4153 56004,20265 30492,109927 -23820,146811 -30183,20504 -58404,15395 -97808,17486l-20424 58185 -46474 10zm207376 -58842c219,-9679 69348,-216169 75582,-227223l47749 1802 -17417 56900c48944,368 102050,-4202 84086,58653 -4103,14350 -33150,102279 -38607,110156l-45936 -1862c-1543,-13832 31398,-92570 33867,-106222 4352,-24089 -18671,-19518 -49740,-18034 -10217,34893 -28938,94014 -42919,125900l-46663 -70zm124973 -175431c6234,-33409 43417,-70622 -52778,-57119 -17695,28251 -27773,92689 -44224,118600 -5537,-44622 -28261,-60545 -75890,-61272 -103633,-1593 -87750,-4670 -101373,34953 -9440,27474 -68710,190189 -66052,207237 9261,10267 11800,8325 29645,8195 31995,-229 39603,10406 56343,-58135 51911,-2370 68830,2490 106910,-27524l17377 -16610c3505,-3326 1424,-1703 4919,-4093 -2310,18163 -11880,24059 -5796,43098 11561,6124 38558,7150 55566,4133 15086,-2689 16361,-20334 21718,-36775 9898,-30382 20135,-58444 29814,-88816l31019 -538c-7688,35361 -25901,70045 -34495,104569 -6861,27554 22087,22057 42620,22107 29785,80 26329,-5815 34973,-31657 32802,-98087 73241,-159070 -50298,-160354z"/>
   <path class="fil4" d="M659342 2191715c-16749,-30 -13613,-3077 -8156,-17765 6542,-17656 22953,-71310 28729,-80093 45229,-4023 82582,-1295 60854,51752 -16620,40589 -32433,46205 -81427,46106zm-42969 87471c2689,-11352 11143,-39284 16401,-50935 6572,-14559 17705,-5696 54769,-8305 90080,-6333 119735,-122016 83219,-146333 -19787,-13194 -90031,-10565 -118780,-8415 -11840,36636 -68551,191483 -71389,214098l35779 -110z"/>
   <path class="fil4" d="M1053421 2093857c13354,-787 34266,-1583 46972,1534 44781,11024 3336,81467 -20872,91136 -12228,4899 -30063,5517 -44174,5447 -21709,-100 -15734,-3953 -8853,-24776 5686,-17207 20275,-64070 26927,-73341zm-43178 127045c44871,-3137 114766,10177 143356,-78320 11561,-35779 8504,-64468 -23700,-74765 -15286,-4879 -86276,-4431 -105097,-2948l-71897 214138 36675 259c1673,-10068 15136,-50915 20663,-58364z"/>
   <path class="fil5" d="M2092802 2098906c289,8026 697,2948 -3694,5338l588 4730 -31886 109608 16839 -488 2121 -9490c-159,-1384 -1832,-1295 -2141,-4063 10615,-7578 9799,7568 16590,-8912 4730,-11462 -3575,-12487 9460,-21828 3246,-15704 21718,-67366 28500,-80292 15375,-1006 40589,-3276 51513,2141 5497,5278 697,9361 -4939,27584 -7578,24557 -28550,79585 -31517,96035l34813 677c2360,-12119 37492,-122554 47231,-126796 16152,-299 33210,-408 44801,5049 7369,29376 -14439,49113 -15525,75372 -4730,19418 -11362,25074 -12408,45010l26927 -647c2221,-8205 4242,-10775 6592,-18910l31428 -96523c2519,-20494 2480,-538 -3206,-15226 -40,-119 -2290,-6194 -2350,-6303 -7678,-15166 -13782,-8673 -27414,-14011l-163979 817c-4840,7279 -2649,-2868 -2818,7429 -179,10267 2639,3057 2838,2997 -23272,6672 -4909,7349 -18363,20703z"/>
   <path class="fil5" d="M1696522 2168592c8026,-8504 25483,-4461 49571,-4411 13473,30 37950,-4541 46514,2151 12577,9410 1504,28908 7379,50766l38757 1305c-528,-26578 -8225,-50846 -4362,-77454 -5646,-9410 -6791,-62576 -7658,-79615l-5507 -797c-20,10 100,368 90,378 -20,10 229,378 428,418 229,-10038 3346,-10356 1972,-25184 -906,-9868 -3515,-18024 -4421,-28012l-39494 0 -161440 211369 38388 -817c4013,-7947 15256,-21798 22147,-30910 14190,-18751 259,-9769 17636,-19189zm77752 -111281c7787,-14111 6393,-11223 14847,-13334l2251 53056c3197,4421 5148,4511 5557,20504 349,13463 -707,15236 -4561,18154 -10147,9400 -35650,-1285 -68740,5766 -3505,-12876 4023,8644 -866,-3694 -3774,-9530 -7439,-9112 1454,-19428l18243 -21420c12896,-25074 21709,-18691 22515,-32642 717,-12477 -1892,-8265 -5666,-9390 6861,-70 4033,1613 14967,2430z"/>
   <path class="fil5" d="M1446525 2253355c-3296,6463 -5855,13961 -7040,23650 19727,1643 85988,3027 102329,-2310 25831,-8425 41425,-26648 50716,-51861l51304 -156789 -31378 -1066c-8245,18393 -14668,41714 -21798,62367 -1424,4123 -18701,60037 -22704,62636 -16042,5019 -47072,2808 -60883,-3983 -4421,-34684 28231,-90369 32931,-120024l-33977 -787c-18104,72076 -66460,138496 -14330,151940 17128,4421 35381,548 52628,1444 9281,478 14230,-139 11760,9062 -9968,37293 -76129,25463 -109558,25722z"/>
   <path class="fil5" d="M1979121 2190420c-35082,11103 -95398,4282 -58673,-63990 15654,-29107 34286,-33688 67207,-34315 26150,-498 25005,1723 17765,22983 -6781,19896 -17954,60186 -26299,75323zm25433 28480c12199,-46564 66719,-182123 69786,-210782l-33429 -179c-21181,76737 -10705,54630 -69925,57936 -19667,1105 -34226,6981 -47729,15515 -39075,24716 -71549,98883 -38010,127144 21151,17835 86934,11302 119307,10366z"/>
   <path class="fil4" d="M894601 2005729l-33110 1085 -6981 14130c-12995,35142 -66331,188715 -65066,199440l31487 20c18393,-29924 28500,-96842 46205,-125860 18960,-956 45936,-4212 57597,7160 7628,27564 -28500,88318 -31318,118770l34156 -528c5865,-9540 33399,-90987 37203,-106212 14808,-59131 -41953,-49571 -88368,-49571l18193 -58434z"/>
   <path class="fil6" d="M1408754 2083969c-6881,28390 -47848,119148 -48008,143087l50169 -219 76199 -223757c-13025,-7648 -71847,-3465 -72385,-3236l-104878 153424c-2858,3744 -1384,2350 -4391,4909l1105 -158691 -75004 -299c-9042,31866 -75552,212236 -73480,226545l50955 1414c18402,-39185 29994,-104968 47629,-148494l747 147678c12577,1205 24706,787 36745,886 19169,139 17725,1972 25612,-10924 9251,-15126 19568,-28231 28968,-43985l60017 -88338zm3983 112177c-10884,26747 388,24925 -41555,23551 -1344,-13304 15963,-53674 21689,-67934 4172,-10386 -687,578 1514,-4182 3545,-7678 1075,-2450 3416,-5706l31278 -89672c-16620,2370 -18502,12677 -35232,38906l-85828 127483 -42262 1185c-1444,-25702 2549,-162027 -2669,-171238 -10346,3615 -24656,62088 -31467,83000 -6114,18751 -21669,77344 -29237,88308 -47918,40 -41734,15584 -1464,-105625 7120,-21400 28281,-91385 36895,-106342l56552 -747c7279,1514 4969,5626 5338,14608 1394,33927 -4571,129694 139,151731 13384,-4491 12079,-17237 27195,-31686 2609,-7588 9132,-13782 14489,-21718l28719 -44343c5437,-8673 9759,-16929 17566,-22127 508,-7090 -1185,-3923 3465,-4123 -1205,-5377 -2599,-4850 2509,-3266 2051,-7160 488,-5039 5616,-8136 2151,-11511 8086,-18104 15455,-24835 1285,-11053 51483,-5965 61063,-5079l-30382 95259c-5069,14728 -11890,31139 -16072,45837 -4840,17038 -10854,32304 -16730,46892z"/>
   <path class="fil3" d="M2268472 1401744l548 5208 1932 -3047 -2480 -2161c-7299,-29725 -11750,3047 -8305,-62088l12029 -216289c37651,34007 75442,156381 80481,211808 6702,-11840 -568,-16769 388,-31975 -7897,-12348 -23252,-86237 -30671,-107358l-46016 -88577 -2151 -23770 -2738 -2420c-269,637 -538,956 -607,1992l-1354 6732c-558,4511 -637,9410 -956,13951 -627,8783 -846,16769 -1305,25861 -926,18104 -2300,36387 -3326,54530l-17745 315570c-4541,70662 -7150,140837 -11531,210613l-12448 211977c-9958,-10157 -4023,-35102 -3206,-48984 657,-10874 4959,-40569 -1165,-49979l-4561 105774c17227,269 14828,-737 15425,-19249 378,-11581 1125,-23162 1733,-34425l11113 -201959c3535,-59370 9749,-226715 15943,-271556 7100,9141 17018,37751 18631,51135 6971,-5497 637,-16451 -2669,-25861 -3037,-8673 -5975,-18751 -10048,-25333 3655,-4332 -1255,-3535 5059,-119zm10695 56213c31119,123968 38886,207844 37472,336612 -388,35052 -6363,91763 -3167,122922l229473 -27166 -2460 -11611c-4630,6483 -149,3007 -9102,5706l-214914 26090c-936,-25134 2320,-50856 2758,-76627l-1155 -157367c-1285,-23541 -5676,-49850 -5208,-72694 -5865,-13623 -8922,-57667 -12846,-77135 -5218,-25941 -13533,-51364 -18173,-75850l-2679 7120zm-52817 213829l-5108 133358 70 17556c10,-30 12039,-140478 5039,-150914zm8106 -152248c2251,37691 -9211,90459 -4312,124366l-279 27036c100,-378 9560,-134045 7001,-145358l-2410 -6045zm32314 -440793l428 -279 -428 279zm15057 37094l-2529 -5875c-2310,3117 -2898,-1623 -657,4123 4640,11880 3087,1792 3187,1753zm3226 4979l-428 -2091c-1932,3625 -5596,-6064 -1085,2171 2748,5019 -2241,1683 1514,-80zm3147 4421l-239 -1922c-2021,3585 -6961,-7439 -1334,2450 2639,4630 -2649,2360 1573,-528zm5417 9092l-289 -2121c-4033,110 -2967,926 -2141,-3316 -1912,2868 -2499,-956 -508,3973 4023,9928 2071,2111 2938,1464zm5338 9390l-2161 -6971c-2838,3894 -2629,-1135 -976,4770 2908,10446 3067,2221 3137,2201zm3067 4899l-378 -2211c-5059,9908 -2081,3615 378,2211zm5099 9082l-2111 -6612c-2579,3754 -2221,-1066 -588,4431 2689,9122 2689,2181 2699,2181zm3177 4660l-169 -2012c-249,458 -757,787 -757,1344 0,388 -468,946 -458,976 2380,5417 -2290,2031 1384,-309zm5497 9331l-2270 -6732c-2420,3406 -2539,-1125 -787,4551 2818,9122 3007,2181 3057,2181zm8564 13613l-5686 -11163 588 7857c5965,10785 4511,3445 5099,3306zm5377 8972l-2241 -6831c-2719,4372 -2330,-1295 -558,4541 3426,11352 2768,2300 2798,2290zm3147 4421l-209 -2041c-2569,5089 -4959,-6632 -1115,2310 2251,5218 -1364,1444 1324,-269zm5298 9550l-2201 -6513c-1454,3226 -2171,-1454 -408,4192 3655,11721 2529,2340 2609,2320zm8415 13583l-5328 -10924c-1364,2908 -5069,-3993 986,7249 6244,11611 3465,3864 4342,3675zm4043 7010c966,7459 -518,2798 2270,6104 4342,5158 -1006,3226 2171,159l-4441 -6264 -1066 -4053c-229,279 -8345,-1912 1066,4053zm4979 16172l2748 -4899 259 -1763c-4083,2619 -2908,-4123 -3007,6662zm8315 3854l-299 -1225c-4073,-50 -2858,846 -2509,-3655l-468 4172c4073,7817 1444,2669 3276,707zm5238 9171l-1942 -6064c-2878,4391 -2241,-1324 -597,4282 3187,10894 2480,1812 2539,1782zm3206 4421l-100 -1344c-1673,2938 -6134,-3933 -1275,2270 3107,3943 -2559,2778 1374,-926zm5347 9122l-1872 -5527c-2709,3983 -2599,-1653 -817,4272 2828,9361 1792,1982 2689,1255zm-538 9679c647,309 1573,319 1812,1195 299,1125 2768,1802 3216,2061 6941,4023 -866,3226 3834,1743l-4939 -11312c-4192,2619 -2121,-3406 -3923,6313zm17586 18263l-5477 -10546c-1344,2490 -5497,-3495 667,7488 6323,11273 3894,3485 4810,3057zm13832 22704l-10496 -19906c-896,1782 -3346,946 2719,11611 8813,15505 4720,10705 7777,8295zm3206 4481l199 -1314c-3316,5268 -4929,-4720 -1494,2390 2310,4780 -1862,2201 1295,-1075zm2619 7518c2768,9440 1683,3535 2729,2430 40,-3923 1026,-3216 -2729,-2430l856 -3734c-4113,3037 -4690,717 -856,3734zm7757 11432l-1962 -6542c-2340,3894 -2131,-1245 -538,4551 2569,9361 1992,2310 2499,1992zm3366 4332l-129 -1364c-1882,3266 -6045,-4889 -1175,2091 2958,4222 -2470,2490 1305,-727zm5228 9540l-1862 -6284c-2878,4401 -2460,-1902 -787,4382 2699,10078 2490,1972 2649,1902zm3376 4322l-60 -1912c-3137,5328 -5357,-6274 -1414,2460 2450,5427 -1573,1633 1474,-548zm5377 9440l-229 -2181c-4143,0 -3137,916 -2231,-3356 -1036,2171 -2579,-1593 -378,3794 3376,8275 966,2300 2838,1743zm8195 14489l-5178 -11880c-1066,2340 -408,11442 5178,11880zm5507 8484l-2340 -6323c-2241,3704 -2450,-1384 -508,4362 4202,12408 2290,2221 2848,1962zm3256 4153l-279 -1175c-1036,1972 -6473,-2569 -1066,2081 3734,3216 -3236,3465 1344,-906zm5218 9928l-2121 -6254c-2300,3545 -2480,-1623 -677,4222 3406,11073 2599,2101 2798,2031zm8564 12995l-5367 -10595c-1504,2758 -5577,-3306 617,7976 6762,12318 3515,3864 4750,2619zm5935 11930c2768,10506 1633,3675 2758,2181l-2758 -2181 -2420 -8584c-6064,4551 -3585,4391 2420,8584zm11203 15933l-5318 -10695c-1235,2260 -5636,-3107 408,7887 6214,11292 4182,3177 4909,2808zm5208 10127l-1753 -7210c-4471,4272 -2191,-1165 -936,4541 1902,8673 1543,2719 2689,2669zm1683 7309l1374 -2918 -339 -1912 -1036 4830zm6712 5865l-199 -1285c-4670,0 -3296,976 -2539,-4153 -637,1743 -2231,-817 -90,3784 3754,8076 -90,2709 2828,1653zm4212 12806c6184,5806 1543,4252 4431,528l-5477 -10307c-1842,3605 -1862,-1862 -916,4153 10,20 1553,4491 1962,5626zm13035 14350l-5547 -10446c-1056,2260 -5447,-3356 836,7817 6841,12179 3017,4083 4710,2629zm5985 12039c2470,10167 1394,3465 2549,1464l-2549 -1464 -2579 -8723c-3914,3495 -3455,-1075 -1255,4411 1743,4332 1852,2629 3834,4312zm7956 10755l-1952 -5955c-3316,4601 -2649,-1534 -896,4441 2768,9490 1852,2171 2848,1514zm6164 11571c1912,10307 946,4272 2270,1912l-2270 -1912 -2649 -8743c-3525,3187 -4441,-2778 -1354,4640 1723,4143 1036,2051 4003,4103zm7708 10765l-1723 -5547c-3864,5029 -2918,-2141 -1115,4521 2918,10824 2569,1285 2838,1026zm3107 4959l249 -1414c-3953,6174 -4153,-5975 -1474,2320 1703,5288 -1514,1812 1225,-906zm8494 15027l-5009 -11870c-5148,339 -4003,-976 -3097,4212 2410,2669 3167,4252 4561,5577 5288,4979 249,2908 3545,2081zm13822 22814l-8843 -16142 -2320 -3376c-1563,3655 4222,13413 7588,17267 5347,6144 -169,3475 3575,2251zm5985 11302c2061,10516 1524,3336 2440,2131l-2440 -2131 -2938 -8703c-2748,2798 -3914,-2589 -896,4372 2061,4740 1464,2370 3834,4332zm7956 12109l-2161 -6682c-2241,3943 -2609,-2081 -757,4212 2778,9440 2669,2490 2918,2470zm8703 13294l-5985 -11193c-966,2251 -4372,-1733 946,7648 6692,11800 3475,3904 5039,3545zm8365 13523l-5636 -11511c-289,647 -3197,1225 1504,10167l4133 1344zm8425 14897l-617 -2838 -2191 -3336c-747,1593 -2450,-1354 -279,3774 4571,10785 2251,2390 3087,2400zm5427 8594l-2709 -6901c-1922,3455 -2211,-458 -378,4571 4133,11362 2709,2410 3087,2330zm11551 18592l-8883 -16520c-2251,4730 4043,17765 8883,16520zm2758 12926l2868 -3923 -528 -2460 -2241 -3495c-249,448 -787,597 -787,1324 -10,767 -508,1235 -498,1553 60,1673 627,5029 1185,7001zm17078 20812l339 5407 2330 -1792c-20,-4969 1514,-4481 -2669,-3615l-11561 -22674c-1036,2499 -3147,1653 2828,11462l5885 8385c329,388 1135,1115 1404,1424 269,299 956,936 1444,1404zm8096 12368l-2818 -7230c-1384,2788 -2400,-259 -548,4720 3455,9331 3206,2509 3366,2509zm5995 10496l2420 3465 -2420 -3465 -3366 -8873c-2260,2659 -4640,-3645 -707,4591 2519,5278 697,1802 4073,4282zm7628 12199l-2539 -7269c-1543,2928 -2440,-448 -627,4969 2818,8434 2878,2350 3167,2300zm3296 5596l-707 -3286 707 3286zm5248 8176l-2748 -7269c-966,2480 -2041,189 -339,4919 3057,8454 2948,2360 3087,2350zm8703 14340c-2290,-5776 -3107,-6871 -5776,-12527 -1115,2460 -4640,-1683 727,8176 3993,7329 4043,4172 5049,4352zm8863 15156l5766 8863 388 5059 1733 -2171 -2121 -2888 -5766 -8863 -6493 -13911c-1235,3953 -5158,-5288 169,6403 1792,3923 5059,6164 6323,7508zm11661 17337l-458 -2848c-4551,2908 -4551,677 458,2848zm-352146 -469571l3625 23192 1275 418c1792,-12836 -1016,-19100 -2330,-32115l-2569 8504zm-75850 77304l-5118 -12179c-1484,2888 -5567,-4063 358,8235 6114,12657 3824,4083 4760,3943zm2808 5357l-90 -2659c-249,458 -767,787 -777,1374 0,428 -478,1006 -468,1056 1703,6642 -1115,1135 1334,229zm3017 5248l-329 -2280c-209,408 -667,697 -657,1205 0,368 -398,876 -388,906 2181,5357 -1185,1075 1374,169zm8803 16929l398 5318 2270 -3595 -2669 -1723 -5706 -14917c-1514,3436 -2380,856 -388,6642 1056,3067 667,1633 1802,3445 2081,3326 2848,3356 4292,4830zm5716 6473l269 -1962c-3684,3625 -4899,-4242 -2270,5547l2002 -3585zm4830 11004l-1603 -7180c-2768,3436 -2549,-1364 -1314,4889 1882,9540 2868,2300 2918,2290zm3147 4820l-329 -2629c-3027,2699 -3475,-4013 -1852,5407l2181 -2778zm3057 4949l-169 -2480c-2948,3097 -4073,-4212 -1713,5059l1882 -2579zm7927 14310l-4650 -11810c-1354,2599 -4640,-1344 10,8823 5935,13005 3684,3824 4640,2987zm3236 4660l40 -1235c-3436,2649 -4770,-3814 -1782,4879l1743 -3645zm8166 15276l-4511 -11810c-3485,3127 -5766,-3665 -139,8405 5955,12766 3675,3953 4650,3406zm2997 4700l-60 -1703c-3336,2808 -3784,-4023 -2081,5338l2141 -3635zm2390 15236c657,309 1812,50 2031,757 169,568 1474,339 1693,309 11362,-1782 -6752,8026 2031,-1056l-4640 -11920c-2569,4391 -1245,-1255 -1593,4790 -40,677 458,6542 478,7120zm8753 4162l-30 -956c-3147,2290 -3774,-3704 -1932,4581l1962 -3625zm3226 6373l249 -2848c-617,458 -1942,458 -1842,1364 896,7956 -7598,-1494 1593,1484z"/>
   <path class="fil5" d="M2410941 2194105l-1384 19846 26668 1753c2918,-13752 1095,-17606 9191,-25174 1842,-2699 11701,-34654 14270,-41664 5527,-15076 13334,-33529 14758,-47540 -2878,-16013 -10,-5148 1902,-9082 13105,-3844 55068,-8663 62397,5925l6264 2231c836,41694 -32433,97380 -30402,107178 2878,13891 -2898,5467 8683,8235 29038,6961 16361,-16062 27902,-27504 -3436,-15495 -1603,-5596 2569,-9012 8883,-14031 34534,-87382 21390,-101871 -15096,-16660 -92321,-14539 -119755,-10824 -5039,5985 -43925,117853 -44453,127503z"/>
   <path class="fil6" d="M2100679 2173801c-3923,12477 -10008,37293 -16411,45339l-32334 687c-2151,-7857 3605,-18104 6433,-25911 6901,-19060 17815,-60386 26468,-77912l4860 -7030 -588 -4730c1046,-11143 -468,-4611 3694,-5338l5437 -24965c3236,-7837 159,-2699 4491,-7339 15993,-4382 64020,-2231 84235,-1912 15126,239 29884,-239 44931,-468l41027 1892c568,159 1494,508 2201,846 18213,-4312 34604,12029 35869,14589 7787,15714 -22366,96005 -31597,122613 -3197,9211 -2450,12756 -11024,15754 -6831,2400 -21460,866 -28928,-388 1195,-11282 1713,-14449 5875,-23969l6154 -16550c2290,-4342 1384,-2778 4083,-5437 1085,-26259 22894,-45996 15525,-75372 -11591,-5457 -28649,-5347 -44801,-5049 -9739,4242 -44871,114677 -47231,126796l-34813 -677c2967,-16451 23939,-71479 31517,-96035 5636,-18223 10436,-22306 4939,-27584 -10924,-5417 -36138,-3147 -51513,-2141 -6781,12926 -25254,64588 -28500,80292zm-58434 51334c10456,3774 35520,3356 47828,737l42800 -124854 42113 50c-8285,26618 -38896,104032 -40041,124605l48615 1324 42939 -125999 36327 329c12507,26698 -35152,94472 -32115,123908 11671,3904 33618,3037 47978,697 10058,-26867 17456,-52698 27215,-79455 8514,-23362 24268,-65265 -627,-79893 -22665,-13324 -172852,-10277 -209208,-7907 -7578,28510 -54859,152667 -53823,166459z"/>
   <path class="fil7" d="M2234794 1378571l18422 -264595c-11382,11063 -7877,24786 -16271,40041 -1633,13483 -31099,114995 -35172,116250 -12856,10695 -20593,52469 -28092,71071 -9181,22764 -17735,49780 -27355,73719 -8843,21997 -57448,129723 -57139,143834 -4471,2689 -2778,667 -6562,5786l-29695 65942c19159,-4989 19717,-22575 30501,-46126 3585,-7827 9769,-13174 5756,-25602l9649 2519c1085,-10416 4919,-17247 8265,-24098l20394 -47042c5935,-13404 5517,-7449 8912,-25552 5875,-12497 -139,9430 5965,-5786 139,-329 418,-1145 568,-1514 9440,-23591 3655,-14469 6353,-26717 1504,-6841 5218,-7210 10267,-20772l21888 -48117c5935,-5457 10386,-1474 14469,-10874 4352,-10406 -12477,-12129 4501,-42939 16301,-29585 -60,-12079 11133,-30770 2041,-3396 3485,-5407 5905,-9878 -1105,39165 4501,34933 -10585,50238 -9659,9819 -6074,11203 -3057,16889 17924,787 9161,-1782 16630,-17427 418,637 757,976 886,2091 129,1115 677,1603 856,2101 179,518 568,1534 777,2171l3326 11153c597,-31338 7210,-26010 -80,-47858 -926,-2768 -697,-986 -1872,-6523 -1155,-5417 -597,-6303 -2181,-12069 -1334,-4820 -9361,-8952 4232,-38229l6393 16152c2898,7727 1743,11322 1553,20543l-6781 -22615c-846,12378 2609,19060 3734,28769 6184,53186 -1225,79724 3505,105834zm-25114 -139383l2948 -4153c-4690,0 -3286,-1016 -2948,4153zm2330 -8673c4501,-1046 3197,349 3455,-4541 -5596,0 -4182,-1285 -3455,4541zm6363 -14260l-3316 5875 3316 -5875zm5796 -21609l2689 -4113c-4262,0 -2818,-866 -2689,4113zm5467 -19408l2649 -4133c-4302,0 -2858,-876 -2649,4133zm14389 -50318l2400 -4003 -2400 4003z"/>
   <path class="fil6" d="M1446525 2253355c33429,-259 99590,11571 109558,-25722 2470,-9201 -2480,-8584 -11760,-9062 -17247,-896 -35500,2977 -52628,-1444 -52130,-13443 -3774,-79863 14330,-151940l33977 787c-4700,29655 -37353,85340 -32931,120024 13812,6791 44841,9002 60883,3983 4003,-2599 21280,-58513 22704,-62636 7130,-20653 13553,-43975 21798,-62367l31378 1066 -51304 156789c-9291,25214 -24885,43437 -50716,51861 -16341,5338 -82602,3953 -102329,2310 1185,-9689 3744,-17188 7040,-23650zm67655 -72564c-3515,-22913 30940,-92729 34853,-122673l-47251 597c-5995,9161 -32662,90807 -37771,108174 -18821,63990 35232,61232 84026,60007 -10307,29794 -53793,15425 -109230,19538 -1733,12477 -9709,24576 -9311,38279 18373,3216 93635,2699 110903,-1902 28380,-7568 48197,-29147 57677,-54680l57179 -168201c-16122,-3187 -33290,-2390 -49432,-1334l-42889 125631c-15963,349 -34853,2091 -48755,-3436z"/>
   <path class="fil4" d="M1888642 1261694c-7239,-6752 -10277,7110 -12059,15385 5497,-3744 3426,8245 5606,-5696l1763 5567c1085,-3197 717,-4640 1583,-7498 2091,-6911 -100,-3545 3107,-7757 1942,16550 -1583,55257 -3864,72853 -2828,21838 -4212,52429 -4860,74755 -1404,48784 -10366,101572 -10087,149281l-17178 320579c7757,12985 -2808,62258 -518,78091 1165,8026 -358,4222 3475,8494 2908,-5248 1842,-1912 3127,-11053l1932 -31428c12448,-160016 18761,-329611 30581,-490902l10486 -175271 4053 2191c-488,-4501 627,-3426 -4053,-2191 -2619,-4093 5377,-3376 -5686,-3535l-7409 8136zm-24387 401369l-2699 16779c4760,-7717 3505,-5835 2699,-16779z"/>
   <path class="fil8" d="M2246425 1120917l-2400 4003 -7080 29097 -4660 17088 -2649 4133 -2778 15296 -2689 4113 -5796 21609 -3316 5875 408 3844c-259,4889 1046,3495 -3455,4541l617 4521 -2948 4153 -7907 31079c4073,-1255 33539,-102767 35172,-116250 8395,-15256 4889,-28978 16271,-40041l-18422 264595 -34206 535982 -307733 17765 -7399 -110c-7837,4401 -1832,-2141 -5049,7110 15694,3216 316636,-15495 322641,-18801 4501,-6025 2002,50 3734,-10745 568,-3565 747,-10267 956,-14111 518,-9520 1135,-18472 1733,-27992 3834,-61849 26976,-380666 25801,-406527 717,-36855 5288,-122583 10386,-137799 229,-707 617,-1693 1046,-2490l14579 -230728c-966,-5975 -169,-3346 -1912,-6622 -80,10187 309,8086 -4810,14379l-2758 2838c-3824,5377 -4700,12776 -5377,20195zm-9998 391232c3426,-4043 3874,-28112 3555,-32224 -1424,-18373 1135,-5168 -3187,-10307l-368 42531z"/>
   <path class="fil4" d="M2259370 1083505c1743,3276 946,647 1912,6622l-14579 230728c-428,797 -817,1782 -1046,2490 -5099,15216 -9669,100945 -10386,137799l1524 8474c4322,5138 1763,-8066 3187,10307 319,4113 -129,28181 -3555,32224 -2758,2241 -3714,-7777 -1972,7389l2410 6045c2559,11312 -6901,144979 -7001,145358l279 -27036c-3704,4800 -1673,-1743 -3256,10107 -787,5845 -588,11940 -538,17775 7001,10436 -5029,150884 -5039,150914l-70 -17556c-1733,3077 -737,-2639 -2519,6612 -1115,5766 -787,6045 -876,11581 6124,9410 1822,39105 1165,49979 -817,13882 -6752,38826 3206,48984l12448 -211977c4382,-69776 6991,-139950 11531,-210613l17745 -315570c1026,-18144 2400,-36427 3326,-54530 458,-9092 677,-17078 1305,-25861 319,-4541 398,-9440 956,-13951l1354 -6732c70,-1036 339,-1354 607,-1992l2738 2420c149,-4232 1215,-3615 -2738,-2420 747,-4989 1414,-3306 -4292,-2609l-428 279c-10814,1324 -5268,-368 -7399,4760z"/>
   <path class="fil4" d="M1775469 1994227c-11840,6513 -4292,6771 -15803,10635l-102239 12766c-16122,1902 -31039,289 -20593,18890l3306 10804c7817,5228 9580,3306 17357,5367 22485,5985 5308,28311 4451,46175 9719,10107 6682,11034 19538,16391 1763,-7040 6293,-9908 12577,-18781l29994 -37641c4720,-5537 10167,-14658 12965,-21051 11093,7538 1992,159 4172,7369l4700 -3575c3923,119 3067,1095 2788,-2729l1962 -3844 1713 -3754 2081 -3485 -2081 3485c-6184,-1314 -4601,-1862 -1713,3754 -7439,-3485 -5029,-3197 -1962,3844 -6871,-2997 -6104,-4063 -2788,2729l-2260 -4571c-60,-438 -508,-1563 -518,-2071 -10,-468 -20,-1414 50,-1902l32304 -38806zm-16481 29506l1633 -3973 1723 -3914 2788 -3147c-4083,0 -3097,-996 -2788,3147l-1723 3914 -1633 3973c-6134,-2390 -4551,-2898 -2848,3515 4063,0 2858,916 2848,-3515z"/>
   <path class="fil6" d="M1819284 2008139c2290,2191 3794,-1205 5955,13802l4660 50527c1085,12776 6025,60455 4481,68481 3097,10297 8982,67884 4959,78360l-40400 946 -5009 -51374 -97410 -289c-17377,9420 -3445,438 -17636,19189 -6891,9112 -18134,22963 -22147,30910l-38388 817 161440 -211369 39494 0zm-54152 4561l-2788 3147 -1723 3914 -1633 3973c10,4431 1215,3515 -2848,3515l-1703 518 -2081 3485 -1713 3754 -1962 3844c279,3824 1135,2848 -2788,2729l-4700 3575 -81576 106770c-4242,5507 -8594,9819 -12527,14638l-2589 3694 -1026 4581c538,5029 1812,3963 -2928,3963 -9092,8395 -31228,36207 -34126,47161l54301 1155 37064 -52210 89523 -488 3784 51981 57129 817c1952,-17446 -14768,-207555 -19458,-226247l-51772 -2031c-3884,4591 -6981,8624 -11860,13762z"/>
   <path class="fil6" d="M2474444 2101326c-1424,14011 -9231,32463 -14758,47540 -2569,7010 -12428,38966 -14270,41664 -2460,7319 -5148,19976 -9619,29516l-31507 458c-1314,-8076 -1812,-5686 548,-14708 349,-1354 1534,-4561 2241,-6045 1414,-2967 2838,-4252 3864,-5646 528,-9649 39414,-121518 44453,-127503 27434,-3714 104659,-5835 119755,10824 13145,14489 -12507,87840 -21390,101871l-2569 9012 -8594 31985 -34903 -378c548,-14539 14389,-46594 19707,-62497 7409,-22167 14359,-34096 11342,-59250 -15644,-7060 -41515,-5357 -58832,-3923 -1314,1942 -3635,5148 -5467,7080zm10187 478c13712,-2191 47221,-7787 49113,9699l-16261 52967c-5298,16132 -18622,47350 -18731,62676l47629 -388c8046,-22704 41864,-113721 41206,-134244 -886,-27594 -25662,-33598 -52320,-34525 -27912,-976 -59559,-667 -87461,488 -8066,27793 -18094,56771 -27902,84165 -6363,17785 -26249,68103 -26767,82682 13742,4143 32145,2480 47878,1534l43616 -125053z"/>
   <path class="fil9" d="M876407 2064162c46414,0 103175,-9560 88368,49571 -3804,15226 -31338,96673 -37203,106212l-34156 528c2818,-30452 38946,-91206 31318,-118770 -11661,-11372 -38637,-8116 -57597,-7160 -17705,29018 -27813,95936 -46205,125860l-31487 -20c-1265,-10725 52071,-164298 65066,-199440l6981 -14130 33110 -1085 -18193 58434zm-96075 162495l46663 70c13981,-31886 32702,-91007 42919,-125900 31069,-1484 54092,-6054 49740,18034 -2470,13652 -35411,92391 -33867,106222l45936 1862c5457,-7877 34505,-95806 38607,-110156 17964,-62855 -35142,-58284 -84086,-58653l17417 -56900 -47749 -1802c-6234,11053 -75362,217543 -75582,227223z"/>
   <path class="fil8" d="M1883952 1276949l-9211 144113 -36944 530037 -151731 15853c-22057,2589 -46872,9390 -46643,-1743l26478 -73451c1225,-3436 3694,-9649 4411,-12776 1155,-5128 378,-697 627,-5825l-498 -3605 -2460 13045 -2310 3047 -597 5009 -2440 3216 -518 4411 -2709 3684 10 4730 -2808 3197 -289 5517 -2390 2201 -11362 37851 -2081 3097 -1066 6652 -4770 11402c9958,5328 200973,-14828 206221,-19896 5626,-7658 22137,-250992 20683,-276873l2699 -16779 5577 -104480c-279,-47709 8683,-100497 10087,-149281 647,-22326 2031,-52917 4860,-74755 2280,-17596 5806,-56303 3864,-72853 -3206,4212 -1016,846 -3107,7757 -866,2858 -498,4302 -1583,7498z"/>
   <path class="fil6" d="M2004554 2218900c-32374,936 -98156,7469 -119307,-10366 -33539,-28261 -1066,-102428 38010,-127144 13503,-8534 28062,-14409 47729,-15515 59220,-3306 48745,18801 69925,-57936l33429 179c-3067,28659 -57587,164218 -69786,210782zm4959 7409c10227,-28480 74486,-209119 74456,-226476l-46952 -199 -20494 56930c-32433,9151 -67924,-7608 -98226,19916 -9998,9082 -24158,18870 -30402,28281 -19836,29894 -37293,85012 -7956,109299 3933,3256 11790,7060 18761,9301 17905,5776 89453,5059 110813,2948z"/>
   <path class="fil5" d="M2363740 2091228l-44034 127672 35759 398c5099,-9191 40360,-114069 40300,-123111l6881 -17516 1215 -9958 -32752 -159 -7369 22674z"/>
   <path class="fil8" d="M2610500 1785566l-4411 -1902c-23152,-7498 -61292,-27016 -76060,-39394 -5367,-2181 -1942,-368 -6144,-3356 -388,-269 -1205,-687 -1484,-1653 -279,-956 -856,-1205 -1314,-1802 -15176,-1753 -60326,-40947 -73859,-51393 -8335,-6443 -19468,-8982 -17974,-21489 -8405,-2738 -11581,-12896 -19787,-27683l-33897 -58792c-8036,-15823 3894,-187022 -15584,-212754l-1275 -418c3655,34156 7030,64946 9321,100178 2171,33429 -299,68402 1075,101990 -3037,18771 817,16978 8514,30999 5835,10625 10546,18861 16331,28769l34664 57886c1613,6373 2679,8564 5069,12597 8176,13822 2360,6045 6184,4949 -1763,-3914 -2051,-5397 -4800,-9749 -2798,-4411 538,408 -2340,-3326 -2231,-2898 -2878,-3306 -4113,-4471 7419,-2081 23939,16540 33031,23202l74406 49312c12796,7120 26100,15037 39962,21718 35321,17038 73670,31308 112386,42083 28331,7877 22525,28122 35839,40201 4511,4093 -1713,1185 5288,2868 9102,2191 5049,199 6791,-279 -189,-7299 -4143,-11999 -7668,-20304 -5815,13125 -697,637 -797,11203 -20723,-41804 -25293,-37412 -48824,-44592 -15803,-4820 -57099,-16102 -68531,-24596zm114866 53664l-2798 6513 4133 -2659 -1334 -3854zm-4222 -4979l-1195 -3575c-5377,9719 -1553,-10635 -1514,3366 0,428 -119,1613 -90,2091l1135 5009c2729,-4750 3465,2300 1663,-6891zm-9779 -17466c-408,-418 -1394,-1205 -1573,-787 -289,677 -1653,-30 -4033,-3575 3774,10207 -896,1962 4899,11830 7070,12029 1434,5945 7001,5467 -2649,-7528 -1942,-5895 -6293,-12935zm-268339 -109917l-777 -2290c-6124,12298 -797,3306 777,2290zm7727 15037l-5059 -12517c-3306,5198 -4869,-747 -269,9291 6035,13155 4720,3505 5328,3226zm3495 4252l-617 -1633c-886,1553 -7289,-1484 -1454,2738 4780,3475 -4919,4601 2071,-1105zm7976 15873l-5168 -12965c-2569,3575 -6293,-2380 -717,9739 5586,12129 5527,3296 5885,3226zm3047 5099l-817 -3396c-3067,7548 -4262,5099 817,3396zm11024 20314l-8584 -18651c-3087,6323 -4322,-398 896,11014 70,139 3087,4820 3177,4909 5626,6363 -607,3137 4511,2729zm3137 4810l-807 -3625c-2599,5776 -5318,5328 807,3625zm2938 5039l-448 -3495c-2888,6164 -4949,-6742 -1384,3206 2280,6383 -1922,1723 1832,289zm8225 14260l-5825 -12368 319 9122c6204,12009 4372,3675 5507,3246zm7976 14837l-5407 -12846 0 9321c6005,12985 4292,3973 5407,3525zm3117 5039l-488 -2659c-2310,3973 -5298,-4123 -1514,2818 3326,6124 -3107,2270 2002,-159zm8056 17198c2211,13254 2967,9331 5955,7937 -1822,-4461 229,-1334 -1753,-3804 -3057,-3814 -2121,-2440 -4202,-4133l-5487 -14778c-2798,4212 -3834,-2201 -946,7120 4063,13085 3894,5825 6433,7658zm14419 25124c1165,8952 -1713,6483 2918,2529l-2918 -2529 -5606 -15256c-3147,4680 -4043,-2350 -996,7259 886,2788 518,1454 1822,3386 2370,3505 2997,3017 4780,4611zm7767 19508l3953 -946 -6114 -14270c-299,578 -528,956 -548,1882l2709 13334zm-165214 -303929l-2778 1026c-1882,-8205 -2898,-7727 -5577,-14927 -4541,777 -3236,1494 -2639,-3406l0 -1982c-4461,687 -3396,1613 -3007,-2948l-418 -1792c-6094,-5248 -309,-4093 -4581,-777l7598 13553 8624 12278c3236,8893 1155,6433 2778,-1026z"/>
   <path class="fil7" d="M1874741 1421062l9211 -144113 -1763 -5567c-2181,13941 -110,1952 -5606,5696l-17805 47131c-6523,17725 -11531,31268 -17775,49840 -8992,26747 -30989,79425 -34246,103175l-16670 51254c-6064,14808 -1643,13752 3724,18950 1125,-5616 986,-6921 2888,-12049l12388 -35520c3436,-7299 8076,-7439 11840,-25453 2031,-9719 -1016,-5577 3455,-11820 6861,-9610 8902,-2390 14837,-34485 1693,-9122 5308,-11183 8773,-21161 4591,-13224 418,-14051 3017,-25901 1683,-7688 5577,-14768 12049,-19518l-3744 -3963c-3396,-3555 747,6523 -896,-906 6244,-6144 13961,-21011 14041,-34256 1633,10237 1245,22515 20,45110 -398,7449 -4571,29297 -3027,39683 856,5736 -747,-607 1215,5656l4073 8215zm-99979 154240c-5158,0 -2997,-956 -3605,5825 6064,6532 -5407,7040 8574,3256 8594,-2320 5447,-1553 7996,-11063 2689,-10097 3953,-19597 488,-28291 -7857,5447 -17516,35152 -13453,30272zm-548 -2599l3475 -5527c-4929,0 -2888,-926 -3475,5527zm5626 -16849l3396 -5626c-5029,0 -2967,-946 -3396,5626zm2828 -8425l3575 -5188c-4949,0 -3017,-976 -3575,5188zm2987 -8425l3326 -5198 -3326 5198zm4690 -14031l4182 -6244c-6204,0 -3943,-1255 -4182,6244zm2818 -8425l4023 -5875c-5427,0 -3226,-1056 -4023,5875zm3057 -8425l3854 -6005c-5507,0 -3286,-1056 -3854,6005zm2868 -8425l3854 -5537c-5417,0 -3376,-1085 -3854,5537zm3137 -8425l3615 -5467c-5099,0 -3077,-986 -3615,5467z"/>
   <path class="fil9" d="M1010243 2220902c-5527,7449 -18990,48296 -20663,58364l-36675 -259 71897 -214138c18821,-1484 89812,-1932 105097,2948 32204,10297 35261,38986 23700,74765 -28590,88497 -98485,75183 -143356,78320zm-64070 64419l45847 199 20673 -58394c54411,-2101 118371,4083 147001,-83787 11741,-36028 5089,-68452 -24566,-80351 -18492,-7409 -89851,-5895 -113542,-4252 -8126,11860 -76089,214665 -75412,226585z"/>
   <path class="fil9" d="M616373 2279186l-35779 110c2838,-22615 59549,-177462 71389,-214098 28749,-2151 98993,-4780 118780,8415 36516,24318 6861,140000 -83219,146333 -37064,2609 -48197,-6254 -54769,8305 -5258,11651 -13712,39583 -16401,50935zm-43417 6313l46474 -10 20424 -58185c39404,-2091 67625,3017 97808,-17486 54311,-36885 79824,-126547 23820,-146811 -19468,-7050 -89901,-6433 -113372,-4153 -7717,12756 -75562,215940 -75153,226645z"/>
   <path class="fil3" d="M1852654 1879162c856,22714 -9032,77115 -2888,92341 17934,19777 16431,-58075 17277,-73002 1753,-31039 3943,-61760 5726,-92729 4113,-71479 35998,-517659 33021,-546487l-4053 -2191 -10486 175271c-11820,161290 -18134,330886 -30581,490902l-1932 31428c-1285,9141 -219,5806 -3127,11053 -3834,-4272 -2310,-468 -3475,-8494 -2290,-15833 8275,-65106 518,-78091z"/>
   <path class="fil7" d="M2494300 1468642c588,13792 3127,12278 10924,18671 2171,13822 2251,10665 9211,19189 11960,14678 1812,14967 14409,27434 17108,16929 6732,17825 20723,25184 -906,-5188 -2051,-3874 3097,-4212 388,-4461 1295,-3157 -3485,-3157 -2738,2719 478,6194 -1225,906 -2679,-8295 -2480,3854 1474,-2320 249,-4720 1374,-3545 -3356,-3545 -269,259 80,9799 -2838,-1026 -1802,-6662 -2748,508 1115,-4521 448,-4700 1364,-3306 -3714,-3306 -1324,2360 -358,8395 -2270,-1912 -2967,-2051 -2280,40 -4003,-4103 -3087,-7419 -2171,-1454 1354,-4640 20,-4063 916,-2828 -3515,-2828 -996,657 -80,7976 -2848,-1514 -1753,-5975 -2420,159 896,-4441 209,-4561 1255,-3336 -3455,-3336 -1155,2002 -80,8703 -2549,-1464 -1982,-1683 -2091,20 -3834,-4312 -2201,-5487 -2659,-916 1255,-4411 50,-4471 1135,-3316 -3406,-3316 -1693,1454 2131,9550 -4710,-2629 -6284,-11173 -1892,-5557 -836,-7817 -189,-4312 1006,-3376 -3057,-3376 -2888,3724 1753,5278 -4431,-528 -408,-1135 -1952,-5606 -1962,-5626 -946,-6015 -926,-548 916,-4153l-3167 -3027c-2918,1056 926,6423 -2828,-1653 -2141,-4601 -548,-2041 90,-3784 -757,5128 -2131,4153 2539,4153l-2539 -4153c807,-4382 1773,-3346 -2599,-3346l-1374 2918 1036 -4830 -2719 -2480c-1145,50 -787,6005 -2689,-2669 -1255,-5706 -3535,-269 936,-4541 339,-4212 1165,-2918 -3455,-2918 -727,368 1305,8484 -4909,-2808 -6045,-10994 -1643,-5626 -408,-7887 60,-4123 1056,-3057 -3127,-3057 -1125,1494 10,8325 -2758,-2181 -6005,-4192 -8484,-4033 -2420,-8584 637,-4710 1534,-3346 -3515,-3346 -1235,1245 2012,9699 -4750,-2619 -6194,-11282 -2121,-5218 -617,-7976l-3197 -2400c-199,70 607,9042 -2798,-2031 -1802,-5845 -1623,-677 677,-4222 179,-4720 1384,-3675 -3097,-3675 -4581,4372 2390,4123 -1344,906 -5407,-4650 30,-110 1066,-2081l-2977 -2977c-558,259 1354,10446 -2848,-1962 -1942,-5746 -1733,-657 508,-4362l-3167 -2161c-5586,-438 -6244,-9540 -5178,-11880l-3017 -2609c-1872,558 538,6532 -2838,-1743 -2201,-5387 -657,-1623 378,-3794 -906,4272 -1912,3356 2231,3356l-2231 -3356c916,-5059 2071,-3904 -2918,-3904 -3047,2181 976,5975 -1474,548 -3943,-8733 -1723,2868 1414,-2460l-3316 -2410c-159,70 50,8176 -2649,-1902 -1673,-6284 -2091,20 787,-4382 -159,-4332 966,-3256 -3366,-3256 -3774,3216 1653,4949 -1305,727 -4869,-6981 -707,1175 1175,-2091l-3236 -2967c-508,319 70,7369 -2499,-1992 -1593,-5796 -1802,-657 538,-4551l-3067 -2460c-1046,1105 40,7010 -2729,-2430 -3834,-3017 -3256,-697 856,-3734 398,-5039 1563,-3784 -3475,-3784 -3157,3276 1016,5855 -1295,1075 -3436,-7110 -1822,2878 1494,-2390 100,-4352 1105,-3167 -3406,-3167 -3057,2410 1036,7210 -7777,-8295 -6064,-10665 -3615,-9829 -2719,-11611 80,-3963 946,-2798 -3336,-2798 -916,428 1514,8215 -4810,-3057 -6164,-10984 -2012,-4999 -667,-7488l-3246 -2719c-4700,1484 3107,2280 -3834,-1743 -448,-259 -2918,-936 -3216,-2061 -239,-876 -1165,-886 -1812,-1195 1802,-9719 -269,-3694 3923,-6313 199,-4551 1255,-3366 -3386,-3366 -896,727 139,8106 -2689,-1255 -1782,-5925 -1892,-289 817,-4272 468,-4879 1524,-3595 -3475,-3595 -3933,3704 1733,4869 -1374,926 -4860,-6204 -398,667 1275,-2270 -70,-4093 976,-3077 -3107,-3077 -60,30 647,9112 -2539,-1782 -1643,-5606 -2280,110 597,-4282 159,-4272 1135,-3107 -3296,-3107 -1832,1962 797,7110 -3276,-707l468 -4172c-349,4501 -1563,3605 2509,3655l-2509 -3655c398,-4850 1683,-3874 -2758,-3874l-2748 4899c100,-10785 -1075,-4043 3007,-6662 -129,-4401 976,-3246 -3545,-3246 -3177,3067 2171,4999 -2171,-159 -2788,-3306 -1305,1354 -2270,-6104 -9410,-5965 -1295,-3774 -1066,-4053l-2977 -2958c-876,189 1902,7937 -4342,-3675 -6054,-11243 -2350,-4342 -986,-7249l-3087 -2659c-80,20 1046,9400 -2609,-2320 -1763,-5646 -1046,-966 408,-4192 40,-4083 1036,-3037 -3097,-3037 -2689,1713 926,5487 -1324,269 -3844,-8942 -1454,2778 1115,-2310l-2938 -2380c-30,10 627,9062 -2798,-2290 -1773,-5835 -2161,-169 558,-4541l-3137 -2141c-588,139 866,7478 -5099,-3306l-588 -7857 -2878 -2450c-50,0 -239,6941 -3057,-2181 -1753,-5676 -1633,-1145 787,-4551l-3226 -2599c-3675,2340 996,5726 -1384,309 -10,-30 458,-588 458,-976 0,-558 508,-886 757,-1344l-3007 -2649c-10,0 -10,6941 -2699,-2181 -1633,-5497 -1992,-677 588,-4431l-2987 -2470c-2460,1404 -5437,7698 -378,-2211l-2689 -2689c-70,20 -229,8245 -3137,-2201 -1653,-5905 -1862,-876 976,-4770l-3177 -2420c-866,647 1085,8464 -2938,-1464 -1992,-4929 -1404,-1105 508,-3973 -827,4242 -1892,3426 2141,3316l-2141 -3316c777,-4820 1832,-3655 -2987,-3655 -4222,2888 1066,5158 -1573,528 -5626,-9888 -687,1135 1334,-2450l-2908 -2499c-3754,1763 1235,5099 -1514,80 -4511,-8235 -846,1454 1085,-2171l-2798 -2888c-100,40 1454,10127 -3187,-1753 -2241,-5746 -1653,-1006 657,-4123l-2918 -2699 46016 88577c7419,21121 22774,95010 30671,107358 6254,-24009 -7887,-47082 -10785,-67296 7817,3665 3097,2450 5915,4421 4959,3475 1205,2529 7419,4690 339,2918 916,3675 458,4451l6851 17885c10346,13005 4591,10814 14260,13911l3595 15614c40,100 1384,5258 1613,5646l4471 3226c8325,7478 2987,9689 14320,24298 368,478 936,1125 1305,1583 12139,15106 4611,12458 8325,17128 2579,3246 2838,-2101 10127,9380 4710,7419 6841,10237 10068,15425 5965,9590 6184,16132 3067,25044 2499,-1962 717,-1125 6692,647 -896,-279 -3445,3366 -2878,-2171 896,-8574 -5457,3884 2808,-5218 4312,11561 4222,4003 13194,18004l20633 39723c7150,8434 3525,508 11273,17078l8504 1972z"/>
   <path class="fil6" d="M2402646 2078671c-787,7478 -2012,13015 -6881,17516 60,9042 -35202,113920 -40300,123111l-35759 -398 44034 -127672c1952,-10307 4362,-19259 8733,-26737l34664 1384c458,9560 388,6961 -4491,12796zm-41455 147967c7349,-15485 54660,-154927 54988,-168341l-49491 1046c-8215,18771 -55466,157267 -54869,165931 12368,3953 34206,2549 49372,1364z"/>
   <path class="fil3" d="M1047407 2178570c2888,-14160 14290,-51214 21918,-61670 12756,-1225 24218,-2141 34554,2559 3595,12975 -2310,59220 -56472,59111zm-19817 6483c43527,2091 63253,-1334 77503,-34634 21639,-50537 1922,-53096 -47002,-50228 -8126,10795 -26409,69169 -30501,84862z"/>
   <path class="fil10" d="M674249 2178361c4810,-16749 13603,-51015 22933,-62885l33977 2868c2828,15415 -6363,36536 -14111,45707 -8922,10575 -23899,15286 -42800,14310zm-19428 7210c42989,40 63124,-3206 78011,-36805 20733,-46813 -846,-54052 -48217,-48207 -7319,9878 -26060,68840 -29794,85012z"/>
   <path class="fil3" d="M1962650 2165097l40 3037c14300,-249 5806,677 8793,2719 -4272,10605 -3495,8614 -17536,8245 -11063,-299 -15047,-40 -21967,-5437 1773,-8893 -2111,-2778 5019,-5417l-6244 -2350 3714 -5915c3475,-32065 20474,-42760 54899,-44054l-15694 49482 -11024 -309zm-44602 11213c11860,10277 35690,11332 55496,7578l28898 -83438c-27514,-966 -49940,-1394 -64817,14837 -11731,12796 -22655,37831 -19578,61023z"/>
   <path class="fil6" d="M1918048 2176310c-3077,-23192 7847,-48227 19578,-61023 14877,-16232 37303,-15803 64817,-14837l-28898 83438c-19807,3754 -43636,2699 -55496,-7578zm61073 14111c8345,-15136 19518,-55426 26299,-75323 7239,-21260 8385,-23481 -17765,-22983 -32921,627 -51553,5208 -67207,34315 -36725,68272 23591,75094 58673,63990z"/>
   <path class="fil9" d="M674249 2178361c18900,976 33877,-3734 42800,-14310 7747,-9171 16939,-30292 14111,-45707l-33977 -2868c-9331,11870 -18124,46136 -22933,62885z"/>
   <path class="fil9" d="M1047407 2178570c54162,110 60067,-46136 56472,-59111 -10336,-4700 -21798,-3784 -34554,-2559 -7628,10456 -19030,47510 -21918,61670z"/>
   <path class="fil7" d="M2335330 1528002c-2888,7737 9719,13354 11263,30452l8723 -378 -7598 -13553c4272,-3316 -1514,-4471 4581,777 -2958,-14409 1205,-3675 -4989,-6762 -9191,-2977 -697,6473 -1593,-1484 -100,-906 1225,-906 1842,-1364 339,-4780 1404,-3525 -3475,-3525l-1962 3625c-1842,-8285 -1215,-2290 1932,-4581 -100,-4143 1006,-3197 -2967,-3197 -8783,9082 9331,-727 -2031,1056 -219,30 -1524,259 -1693,-309 -219,-707 -1374,-448 -2031,-757 -20,-578 -518,-6443 -478,-7120 349,-6045 -976,-398 1593,-4790 428,-4630 1384,-3326 -3505,-3326l-2141 3635c-1703,-9361 -1255,-2529 2081,-5338 50,-3993 1036,-2997 -2938,-2997 -976,548 1305,9361 -4650,-3406 -5626,-12069 -3346,-5278 139,-8405 378,-4800 1404,-3465 -3655,-3465l-1743 3645c-2987,-8693 -1653,-2231 1782,-4879 -30,-4501 1135,-3426 -3276,-3426 -956,836 1295,10018 -4640,-2987 -4650,-10167 -1364,-6224 -10,-8823l-3276 -2499 -1882 2579c-2360,-9271 -1235,-1962 1713,-5059l-2888 -2470 -2181 2778c-1623,-9420 -1175,-2709 1852,-5407l-2818 -2191c-50,10 -1036,7249 -2918,-2290 -1235,-6254 -1454,-1454 1314,-4889 269,-4939 1524,-3824 -3226,-3824l-2002 3585c-2629,-9789 -1414,-1922 2270,-5547 119,-3973 976,-2788 -3316,-2788l-2270 3595 -398 -5318c-1444,-1474 -2211,-1504 -4292,-4830 -1135,-1812 -747,-378 -1802,-3445 -1992,-5786 -1125,-3206 388,-6642l-3097 -2012c-2559,906 807,5188 -1374,-169 -10,-30 388,-538 388,-906 -10,-508 448,-797 657,-1205l-2689 -2967c-2450,906 368,6413 -1334,-229 -10,-50 468,-627 468,-1056 10,-588 528,-916 777,-1374l-2719 -2699c-936,139 1354,8713 -4760,-3943 -5925,-12298 -1842,-5347 -358,-8235 -30,-4013 956,-2958 -3167,-2958l-1932 3047 -548 -5208c-6313,-3416 -1404,-4212 -5059,119 4073,6582 7010,16660 10048,25333 3306,9410 9639,20364 2669,25861l3037 4899 2679 -7120c4640,24487 12955,49910 18173,75850 3923,19468 6981,63512 12846,77135 3515,-20812 -9151,-95617 -17088,-120174 -876,-2709 -2340,-5716 -3356,-8574 -5985,-16799 -1046,-14658 1773,-18064l9699 17427c-4083,8136 2967,4063 -6971,6791 7429,-2360 3167,-10954 23879,27713l7588 8932c-7927,6801 607,3147 -4770,2300 -8803,-1394 -2310,-876 -1872,-3605 8295,15803 9141,10765 13583,11432zm17387 19090c-388,4561 -1454,3635 3007,2948 70,-3973 1026,-2948 -3007,-2948zm3007 4929c-597,4899 -1902,4182 2639,3406 179,-4292 1324,-3406 -2639,-3406z"/>
   <path class="fil9" d="M654821 2185571c3734,-16172 22475,-75133 29794,-85012 47370,-5845 68949,1394 48217,48207 -14887,33598 -35022,36845 -78011,36805zm4521 6144c48994,100 64807,-5517 81427,-46106 21728,-53046 -15624,-55775 -60854,-51752 -5776,8783 -22187,62437 -28729,80093 -5457,14688 -8594,17735 8156,17765z"/>
   <path class="fil9" d="M1027590 2185053c4093,-15694 22376,-74068 30501,-84862 48924,-2868 68641,-309 47002,50228 -14250,33300 -33977,36725 -77503,34634zm25831 -91196c-6652,9271 -21241,56133 -26927,73341 -6881,20822 -12856,24676 8853,24776 14111,70 31945,-548 44174,-5447 24208,-9669 65653,-80112 20872,-91136 -12706,-3117 -33618,-2320 -46972,-1534z"/>
   <path class="fil9" d="M1934469 2159979c657,7787 14389,-2619 28181,5118l11024 309 15694 -49482c-34425,1295 -51423,11989 -54899,44054z"/>
   <path class="fil6" d="M1732062 2128422c11024,-20673 10625,-17038 25114,-36327 8962,-11940 15734,-24128 25264,-34604l2748 70842 -53126 90zm42212 -71110l-26837 36058c-4182,4740 538,468 -4979,3545 -4959,14379 -17805,22117 -18741,37631l68651 1145 -996 -38657 -2251 -53056c-8454,2111 -7060,-777 -14847,13334z"/>
   <path class="fil3" d="M1758929 2120764c4252,-10874 9968,-19090 17068,-23581l926 24218 -17994 -637zm-26867 7658l53126 -90 -2748 -70842c-9530,10476 -16301,22665 -25264,34604 -14489,19289 -14091,15654 -25114,36327z"/>
   <path class="fil2" d="M2092802 2098906c-4162,727 -2649,-5806 -3694,5338 4391,-2390 3983,2689 3694,-5338 13453,-13354 -4909,-14031 18363,-20703 -199,60 -3017,7269 -2838,-2997 169,-10297 -2021,-149 2818,-7429l163979 -817c13633,5338 19737,-1155 27414,14011 60,110 2310,6184 2350,6303 5686,14688 5726,-5268 3206,15226l-31428 96523c-2350,8136 -4372,10705 -6592,18910l-26927 647c1046,-19936 7678,-25592 12408,-45010 -2699,2659 -1792,1095 -4083,5437l-6154 16550c-4162,9520 -4680,12687 -5875,23969 7469,1255 22097,2788 28928,388 8574,-2997 7827,-6542 11024,-15754 9231,-26608 39384,-106900 31597,-122613 -1265,-2559 -17656,-18900 -35869,-14589 -707,-339 -1633,-687 -2201,-846l-41027 -1892c-15047,229 -29804,707 -44931,468 -20215,-319 -68242,-2470 -84235,1912 -4332,4640 -1255,-498 -4491,7339l-5437 24965z"/>
   <path class="fil2" d="M1327038 2141785c10645,-1185 5995,1543 7239,-8683l8873 5158c-10745,-13005 6732,-19797 25254,-53216 9102,-16441 18811,-25274 19408,-31447l3465 -4123c5178,846 4162,1782 2509,-3266 4322,-2420 3356,6433 5616,-8136 418,-597 1115,-2221 1324,-1753l7379 -9659c2171,-3366 4760,-8883 6752,-13423 -7369,6732 -13304,13324 -15455,24835 -5128,3097 -3565,976 -5616,8136 -5108,-1583 -3714,-2111 -2509,3266 -4650,199 -2958,-2967 -3465,4123 -7807,5198 -12129,13453 -17566,22127l-28719 44343c-5357,7937 -11880,14130 -14489,21718 -15116,14449 -13812,27195 -27195,31686 -4710,-22037 1255,-117804 -139,-151731 -368,-8982 1942,-13095 -5338,-14608 697,27016 -3744,159199 3963,170283 13194,1773 5009,-5447 16232,-14081 9809,-7538 4869,8126 12477,-21549z"/>
   <path class="fil2" d="M1834381 2140949c-3864,26608 3834,50876 4362,77454l-38757 -1305c-5875,-21858 5198,-41356 -7379,-50766 -8564,-6692 -33041,-2121 -46514,-2151 -24089,-50 -41545,-4093 -49571,4411l97410 289 5009 51374 40400 -946c4023,-10476 -1862,-68063 -4959,-78360 1543,-8026 -3396,-55705 -4481,-68481l-4660 -50527c-2161,-15007 -3665,-11611 -5955,-13802 906,9988 3515,18144 4421,28012 1374,14828 -1743,15146 -1972,25184 -199,-40 -448,-408 -428,-418 10,-10 -110,-368 -90,-378l5507 797c866,17038 2012,70204 7658,79615z"/>
   <path class="fil6" d="M2386813 2024191l2061 -5945c0,-7996 -408,-6692 5616,-11163l27126 -259c12169,-50 1474,-777 5666,3963l-8932 28799 -36486 568c1205,-11890 -508,-8295 4949,-15963zm-12587 20782l46892 1125c4850,-7747 14479,-34216 15246,-45678l-50418 -1036c-3794,12856 -14190,33698 -11721,45588z"/>
   <path class="fil2" d="M2474444 2101326c1832,-1932 4153,-5138 5467,-7080 17317,-1434 43188,-3137 58832,3923 3017,25154 -3933,37084 -11342,59250 -5318,15903 -19159,47958 -19707,62497l34903 378 8594 -31985 2569 -9012c-4172,3416 -6005,-6483 -2569,9012 -11541,11442 1135,34465 -27902,27504 -11581,-2768 -5806,5656 -8683,-8235 -2031,-9799 31238,-65484 30402,-107178l-6264 -2231c-7329,-14589 -49292,-9769 -62397,-5925 -1912,3933 -4780,-6931 -1902,9082z"/>
   <path class="fil9" d="M1898162 2083780c-7867,1374 -32802,6672 -39374,11302 -8205,5776 -5905,2191 -3197,15823 70,349 279,1085 319,1454l2679 41525 19139 -45508 -19358 3804c12139,-8036 24138,-2589 38777,-26459 249,-398 697,-1275 1016,-1942z"/>
   <path class="fil2" d="M2100679 2173801c-13035,9341 -4730,10366 -9460,21828 -6791,16481 -5975,1334 -16590,8912 309,2768 1982,2679 2141,4063l-2121 9490 -16839 488 31886 -109608 -4860 7030c-8654,17526 -19568,58852 -26468,77912 -2828,7807 -8584,18054 -6433,25911l32334 -687c6403,-8046 12487,-32862 16411,-45339z"/>
   <path class="fil5" d="M2388874 2018246l-2061 5945 956 13483c10605,-2171 10297,-1305 15425,-8624l14031 3515 4391 -25742 -27126 259 -358 9560 -5258 1603z"/>
   <path class="fil2" d="M1742458 2096914l-18243 21420c-8893,10317 -5228,9898 -1454,19428 4889,12338 -2639,-9181 866,3694 33091,-7050 58593,3635 68740,-5766 3854,-2918 4909,-4690 4561,-18154 -408,-15993 -2360,-16082 -5557,-20504l996 38657 -68651 -1145c936,-15515 13782,-23252 18741,-37631 5517,-3077 797,1195 4979,-3545l26837 -36058c-10934,-817 -8106,-2499 -14967,-2430 3774,1125 6383,-3087 5666,9390 -807,13951 -9619,7568 -22515,32642z"/>
   <path class="fil9" d="M1639950 2160198l-1135 4441c1763,-2589 3007,-2071 5547,-3824 7399,-7767 23810,-32722 32155,-39663l-17476 -16839 -19090 55885zm-3485 8614c2888,-2589 6513,757 -617,-4352l617 4352z"/>
   <path class="fil3" d="M1978324 1078486c10725,4043 9958,-6453 27554,-1643 11601,3167 15256,10655 23840,15106 33857,-28590 36297,-7867 50149,-13463 -6015,-8663 -16222,-9898 -26578,-7578 -10506,2360 -16869,9719 -23571,14081 -4401,-2659 -1553,-926 -5487,-3854 -10028,-7469 -26190,-15515 -39743,-8793 -6084,3017 -2987,1075 -6164,6144z"/>
   <path class="fil3" d="M2014273 1136700c33728,-10376 28341,-6572 50896,7877 17825,-13672 25074,-19348 50637,-7508 10,-10257 6891,-4182 -6025,-9341 -15983,-6393 -31547,428 -43566,8773 -9301,-3993 -42551,-24606 -51941,199z"/>
   <path class="fil9" d="M2310704 2184724c11083,-3366 9500,-8305 18572,-37203 4302,-13722 8245,-31278 16242,-42650l-11103 -3067c-4710,33419 -18213,54779 -23710,82921z"/>
   <path class="fil2" d="M1412737 2196146c-8205,6134 -8036,8494 -9221,19050l-28500 1892 4541 -29366 8365 1085c-1882,-6622 10,-5925 896,-10914 6503,-36775 6463,-8873 8982,-36018 -2340,3256 129,-1972 -3416,5706 -2201,4760 2659,-6204 -1514,4182 -5726,14260 -23033,54630 -21689,67934 41943,1374 30671,3197 41555,-23551z"/>
   <path class="fil2" d="M2388874 2018246l-2061 5945c-5457,7668 -3744,4073 -4949,15963l36486 -568 8932 -28799c-4192,-4740 6503,-4013 -5666,-3963l-4391 25742 -14031 -3515c-5128,7319 -4820,6453 -15425,8624l-956 -13483 2061 -5945 5258 -1603 358 -9560c-6025,4471 -5616,3167 -5616,11163z"/>
   <path class="fil9" d="M1962690 2168134l-25692 110c-7130,2639 -3246,-3475 -5019,5417 6921,5397 10904,5138 21967,5437 14041,368 13264,2360 17536,-8245 -2987,-2041 5507,-2967 -8793,-2719z"/>
   <path class="fil2" d="M2410941 2194105c-1026,1394 -2450,2679 -3864,5646 -707,1484 -1892,4690 -2241,6045 -2360,9022 -1862,6632 -548,14708l31507 -458c4471,-9540 7160,-22196 9619,-29516 -8096,7568 -6274,11422 -9191,25174l-26668 -1753 1384 -19846z"/>
   <path class="fil4" d="M1758929 2120764l17994 637 -926 -24218c-7100,4491 -12816,12706 -17068,23581z"/>
   <path class="fil7" d="M2164500 1438479c2589,-2569 2181,-169 4401,-4760 3894,-8086 3515,-14738 -1593,-21300 -6164,2758 -6363,-10 -8195,12448 -1802,12199 -229,9221 5387,13613z"/>
   <path class="fil2" d="M2363740 2091228l7369 -22674 32752 159 -1215 9958 -6881 17516c4869,-4501 6094,-10038 6881,-17516 4879,-5835 4949,-3236 4491,-12796l-34664 -1384c-4372,7478 -6781,16431 -8733,26737z"/>
   <path class="fil11" d="M1936998 2168244l25692 -110 -40 -3037c-13792,-7737 -27524,2669 -28181,-5118l-3714 5915 6244 2350z"/>
   <path class="fil12" d="M1886113 1919890c-2818,5736 -9550,13623 -5706,19428 3216,-9251 -2788,-2709 5049,-7110l7399 110c-2002,-10715 -2221,-7986 -667,-16481 -3286,6403 -3406,2569 -6074,4053z"/>
   <path class="fil9" d="M2411618 2139405l12368 -30292c-7469,5646 -10297,10058 -13174,21848 -3376,13862 -1215,5089 807,8444z"/>
   <path class="fil9" d="M2075564 2083182c8046,-986 4401,2241 8106,-4850 5945,-11412 -388,-11073 -607,-11422 -5915,6951 -3874,5338 -7498,16271z"/>
   <path class="fil11" d="M2229048 2202101c1972,-3137 966,-159 2938,-6284 358,-1105 1075,-6483 1334,-7907l-12607 2848c6771,11950 -2231,-3436 5278,5825 4202,5178 657,-2888 3057,5517z"/>
   <path class="fil13" d="M2531384 1884420c8952,-2699 4471,777 9102,-5706 -2878,-8474 -2529,-4531 -4601,-6403l-3953 946 -548 11163z"/>
   <path class="fil11" d="M1635847 2164460c7130,5108 3505,1763 617,4352l4083 9988c4740,0 3465,1066 2928,-3963l1026 -4581 2589 -3694c-4342,0 -3147,-946 -2589,3694l-1026 4581c-6154,-5248 -4192,-4919 886,-14021 -2539,1753 -3784,1235 -5547,3824l1135 -4441 -4103 4262z"/>
  </g>
 </g>
</svg>
