<?xml version="1.0" encoding="UTF-8"?>
<!DOCTYPE svg PUBLIC "-//W3C//DTD SVG 1.1//EN" "http://www.w3.org/Graphics/SVG/1.1/DTD/svg11.dtd">
<!-- Creator: CorelDRAW -->
<svg xmlns="http://www.w3.org/2000/svg" xml:space="preserve" width="33.8667mm" height="33.8667mm" version="1.1" shape-rendering="geometricPrecision" text-rendering="geometricPrecision" image-rendering="optimizeQuality" fill-rule="evenodd" clip-rule="evenodd"
viewBox="0 0 3372.42 3372.42"
 xmlns:xlink="http://www.w3.org/1999/xlink"
 xmlns:xodm="http://www.corel.com/coreldraw/odm/2003">
 <g id="圖層_x0020_1">
  <metadata id="CorelCorpID_0Corel-Layer"/>
  <g id="_105553153564576">
   <rect fill="none" x="-0.02" y="-0.02" width="3372.42" height="3372.42"/>
   <path fill="#007FC0" d="M2222.8 252.26l102.76 0.13c28.66,-0.05 58.46,0.93 86.8,1.4 63.11,0.74 126.12,6.24 188.36,16.51 62.11,10.59 122.6,30.62 178.99,59.07 113.26,57.69 205.59,149.99 263.33,263.28 28.45,56.44 48.41,116.89 59.02,179.2 10.13,62.11 15.82,125.54 16.59,188.39 0.77,28.87 1.24,57.77 1.24,86.64 0.26,34.24 0.26,68.48 0.26,102.73l0 1073.16c0,34.25 0,68.48 -0.26,102.73 0,28.87 -0.48,57.77 -1.24,86.64 -0.77,62.84 -6.46,126.28 -16.59,188.38 -10.62,62.33 -30.57,122.76 -59.02,179.21 -57.74,113.29 -150.07,205.59 -263.33,263.28 -56.39,28.45 -116.89,48.49 -178.99,59.07 -62.25,10.27 -125.25,15.76 -188.36,16.51 -28.34,0.48 -58.14,1.45 -86.8,1.4l-102.76 0.13 -1073.16 0 -102.76 -0.13c-28.66,0.05 -58.45,-0.93 -86.79,-1.4 -63.11,-0.75 -126.13,-6.24 -188.36,-16.51 -62.11,-10.59 -122.6,-30.62 -179,-59.07 -113.26,-57.69 -205.58,-149.99 -263.33,-263.28 -28.45,-56.45 -48.41,-116.89 -59.01,-179.21 -10.14,-62.11 -15.82,-125.54 -16.6,-188.38 -0.77,-28.88 -1.23,-57.78 -1.23,-86.64 -0.27,-34.25 -0.27,-68.48 -0.27,-102.73l0 -1073.16c0,-34.25 0,-68.49 0.27,-102.73 0,-28.88 0.47,-57.78 1.23,-86.64 0.78,-62.85 6.46,-126.29 16.6,-188.39 10.61,-62.32 30.56,-122.76 59.01,-179.2 57.75,-113.29 150.07,-205.59 263.33,-263.28 56.4,-28.45 116.9,-48.49 179,-59.07 62.24,-10.27 125.25,-15.77 188.36,-16.51 28.34,-0.48 58.13,-1.45 86.79,-1.4l102.76 -0.13 1073.16 0z"/>
   <g>
    <g>
     <g>
      <path fill="white" fill-rule="nonzero" d="M1808.24 1574.52c0,10.04 3.16,18.79 9.3,26.23 6.13,7.44 13.58,13.95 22.69,19.72 8.92,5.77 18.41,10.61 28.27,14.51 9.86,3.9 18.6,7.63 26.42,11.16 19.72,8.74 36.83,17.49 51.34,26.23 14.32,8.74 26.23,18.22 35.71,28.27 9.31,10.05 16,21.4 20.28,34.05 4.09,12.65 5.94,27.16 5.58,43.35 -0.93,43.34 -14.51,78.12 -40.74,104.54 -26.23,26.6 -66.22,40.74 -119.98,42.41 -19.72,0.94 -38.14,-1.48 -55.44,-6.88 -17.3,-5.4 -32.37,-11.53 -45.02,-18.04 -11.34,-5.77 -20.45,-12.09 -27.16,-19.35 -6.88,-7.25 -11.72,-14.51 -14.88,-21.95 -3.17,-7.45 -4.47,-14.7 -4.28,-21.77 0.19,-6.88 2.04,-12.84 5.58,-17.68 6.14,-9.48 13.39,-14.88 21.96,-15.99 8.55,-1.12 16.55,0.75 23.99,5.58 6.51,4.28 13.39,8.93 20.65,13.96 7.26,5.02 14.88,9.67 23.06,13.76 8.01,4.27 16.56,7.63 25.49,10.23 8.92,2.79 18.6,4.09 29.21,4.09 8.74,0 17.49,-1.48 26.04,-4.65 8.37,-3.16 15.99,-7.44 22.5,-13.2 6.51,-5.77 11.91,-12.84 15.81,-21.39 3.9,-8.37 5.95,-18.05 5.95,-29.03 0,-10.6 -2.42,-19.72 -7.26,-27.71 -4.83,-7.82 -10.61,-14.7 -17.3,-20.65 -6.88,-5.76 -14.33,-10.78 -22.33,-14.69 -8.19,-3.9 -15.62,-7.07 -22.14,-9.12 -18.41,-6.51 -35.53,-13.76 -51.34,-21.39 -15.99,-7.63 -29.94,-16.74 -41.66,-27.34 -11.91,-10.42 -21.39,-22.88 -28.28,-37.39 -7.07,-14.32 -10.6,-31.44 -10.6,-51.15 0,-21.02 4.27,-39.43 12.84,-55.44 8.55,-15.99 19.9,-29.21 33.85,-39.8 13.96,-10.43 29.76,-18.23 47.44,-23.63 17.68,-5.21 35.72,-7.63 54.13,-7.07 20.65,0.37 39.62,3.54 57.11,9.68 17.49,6.13 31.99,13.94 43.72,23.06 11.53,9.11 19.35,19.16 23.62,29.76 4.09,10.78 3.36,21.02 -2.23,30.69 -3.16,4.84 -6.88,8.74 -11.53,11.53 -4.65,2.8 -9.3,4.84 -14.32,5.77 -5.03,1.13 -10.05,1.3 -14.89,0.38 -4.83,-0.93 -8.74,-2.61 -11.9,-5.21 -4.28,-3.17 -9.3,-6.51 -15.07,-10.24 -5.77,-3.71 -11.72,-7.06 -18.04,-10.23 -6.33,-2.98 -13.02,-5.59 -20.28,-7.82 -7.25,-2.04 -14.51,-3.16 -21.95,-3.16 -8.37,0 -15.81,1.67 -22.32,4.83 -6.51,3.36 -12.1,7.45 -16.75,12.47 -4.65,5.02 -8.19,10.78 -10.78,17.12 -2.8,6.32 -4.09,12.46 -4.09,18.6z"/>
      <path fill="white" fill-rule="nonzero" d="M1485.5 1736.95l-50.6 -162.76 -50.42 162.76 101.01 0zm-117.56 74.23l-28.84 75.52c-3.9,10.43 -9.48,18.79 -16.37,25.3 -6.88,6.32 -17.3,9.49 -30.88,9.49 -13.57,0 -24.37,-3.72 -32.36,-11.16 -8.19,-7.44 -9.11,-20.09 -2.98,-38.14l135.05 -394.36c2.23,-7.07 6.88,-13.39 14.14,-18.79 7.26,-5.39 16.93,-8.19 29.21,-8.19 12.28,0 21.95,2.8 29.21,8.19 7.25,5.4 11.9,11.72 14.13,18.79l136.54 395.67c5.21,16.56 3.72,28.84 -4.28,36.47 -8,7.62 -18.97,11.53 -32.55,11.53 -13.57,0.37 -23.62,-2.61 -30.13,-8.93 -6.51,-6.32 -11.53,-13.95 -15.07,-22.69l-31.44 -78.69 -133.38 0z"/>
      <path fill="white" fill-rule="nonzero" d="M890.64 1887.28c0,8.74 -3.35,16.74 -9.86,23.81 -6.51,6.88 -17.49,10.42 -32.92,10.42 -15.26,0 -26.23,-3.71 -32.74,-11.16 -6.51,-7.44 -9.86,-15.07 -9.86,-23.06l0 -405.53c0,-8 2.23,-15.07 6.69,-21.39 4.28,-6.33 14.33,-9.49 30.13,-9.49 8.75,0 15.82,2.61 21.21,7.82 5.4,5.39 10.24,10.6 14.14,15.81l207.41 278.84 0 -268.25c0,-8 3.35,-15.62 9.86,-23.06 6.51,-7.44 17.49,-11.16 32.74,-11.16 15.44,0 26.42,3.54 32.92,10.42 6.51,7.07 9.68,15.07 9.68,23.81l0 406.83c0,7.44 -2.23,14.33 -6.51,20.46 -4.28,6.13 -14.14,9.11 -29.58,9.11 -8.74,0 -16,-2.6 -21.77,-7.81 -5.95,-5.4 -10.97,-10.61 -14.88,-15.81l-206.68 -269.73 0 259.13z"/>
     </g>
     <path fill="white" fill-rule="nonzero" d="M2363.71 1126.57l38.2 0.05c7.77,-0.02 15.3,0.15 22.69,0.31l9.99 0.21c13.21,0.16 25.58,0.75 37.03,1.74 11.77,1.04 24.08,2.6 36.95,4.71 13.03,2.2 25.71,5.36 37.98,9.41 12.2,4.02 24.3,9.06 36.21,15.05 23.5,11.94 44.86,27.54 63.39,46.08 18.6,18.59 34.25,39.99 46.2,63.49 5.97,11.94 11,24.04 15.02,36.22 4.02,12.22 7.18,24.94 9.41,38.1 2.09,12.88 3.67,25.27 4.72,37.11 1,11.34 1.59,23.58 1.76,36.62l0.34 16.42 0.18 16.41 0.09 38.21 0.06 398.97c0,5.65 0,11.29 -0.15,38.21l-0.18 16.41 -0.34 16.42c-0.17,13.03 -0.77,25.27 -1.76,36.62 -1.05,11.84 -2.63,24.24 -4.72,37.11 -2.23,13.15 -5.39,25.88 -9.41,38.1 -4.01,12.19 -9.04,24.28 -15.02,36.22 -11.96,23.5 -27.6,44.9 -46.2,63.49 -18.53,18.53 -39.89,34.14 -63.39,46.08 -11.91,5.98 -24.01,11.02 -36.21,15.05 -12.27,4.05 -24.94,7.21 -37.98,9.41 -12.88,2.11 -25.18,3.67 -36.95,4.71 -11.45,1 -23.82,1.58 -37.03,1.74l-9.99 0.21c-7.4,0.16 -14.93,0.33 -22.69,0.31l-38.2 0.1 -1354.95 0 -38.2 -0.1c-7.77,0.02 -15.3,-0.15 -22.69,-0.31l-9.99 -0.21c-13.21,-0.16 -25.58,-0.75 -37.03,-1.74 -11.77,-1.04 -24.08,-2.6 -36.95,-4.71 -13.03,-2.2 -25.71,-5.36 -37.98,-9.41 -12.2,-4.02 -24.3,-9.06 -36.21,-15.05 -23.5,-11.94 -44.86,-27.54 -63.39,-46.08 -18.6,-18.59 -34.25,-39.99 -46.2,-63.49 -5.97,-11.94 -11,-24.03 -15.02,-36.22 -4.02,-12.22 -7.18,-24.94 -9.41,-38.1 -2.09,-12.88 -3.67,-25.27 -4.72,-37.11 -1,-11.34 -1.59,-23.58 -1.76,-36.62l-0.34 -16.42 -0.18 -16.41 -0.09 -38.21 -0.06 -398.97c0,-5.65 0.01,-11.3 0.15,-38.21l0.18 -16.41 0.34 -16.42c0.17,-13.03 0.77,-25.27 1.76,-36.62 1.05,-11.84 2.63,-24.24 4.72,-37.11 2.23,-13.15 5.39,-25.88 9.41,-38.1 4.01,-12.18 9.04,-24.28 15.02,-36.22 11.96,-23.5 27.6,-44.9 46.2,-63.49 18.53,-18.53 39.89,-34.14 63.39,-46.08 11.91,-5.98 24.01,-11.02 36.21,-15.05 12.27,-4.05 24.94,-7.21 37.98,-9.41 12.88,-2.11 25.18,-3.67 36.95,-4.71 11.45,-1 23.82,-1.58 37.03,-1.74l9.99 -0.21c7.4,-0.16 14.93,-0.33 22.69,-0.31l38.2 -0.1 1354.95 0.05zm-57.51 1066.16l-267.07 -506.54 82.22 -155.95c1.08,0.11 2.15,0.16 3.24,0.16l83.91 0 0 353.63c0,8.01 3.35,15.62 9.86,23.07 6.5,7.44 17.49,11.15 32.92,11.15 15.26,0 26.23,-3.54 32.74,-10.42 6.51,-7.06 9.86,-15.07 9.86,-23.81l0 -353.63 84.08 0c7.81,0 15.43,-2.79 22.87,-8.55 7.45,-5.77 11.16,-15.62 11.16,-29.58 0,-13.58 -3.53,-23.25 -10.42,-29.21 -7.07,-5.95 -14.88,-8.93 -23.62,-8.93l-216.48 0 144.72 -274.48 -1297.45 -0.05 -38.2 -0.01c-6.83,-0.01 -14.3,0.16 -21.66,0.32l-10.3 0.21c-10.22,0.12 -21.29,0.71 -33.19,1.74 -11.49,1.01 -22.41,2.36 -32.71,4.04 -10.12,1.76 -20.21,4.3 -30.18,7.59 -10.06,3.32 -19.7,7.3 -28.79,11.9 -18.64,9.52 -35.51,21.82 -50.03,36.33 -14.45,14.46 -26.72,31.29 -36.25,49.94 -4.6,9.09 -8.57,18.72 -11.89,28.8 -3.3,10.04 -5.83,20.12 -7.54,30.15 -1.7,10.35 -3.07,21.39 -4.09,33.02 -1.05,11.85 -1.64,22.89 -1.76,32.97l-0.34 16.11 -0.08 15.84 -0.09 437.12 0.09 38.15 0.08 15.84 0.34 16.11c0.12,10.08 0.72,21.12 1.76,32.97 1.03,11.63 2.39,22.67 4.08,33.02 1.72,10.04 4.25,20.12 7.55,30.15 3.32,10.08 7.29,19.71 11.89,28.8 9.53,18.65 21.8,35.48 36.25,49.94 14.52,14.51 31.39,26.81 50.03,36.32 9.09,4.61 18.73,8.59 28.79,11.91 9.97,3.29 20.07,5.83 30.19,7.55 10.3,1.72 21.21,3.08 32.7,4.08 11.9,1.04 22.97,1.62 33.19,1.74l10.3 0.21c7.36,0.16 14.83,0.33 21.66,0.32l38.2 -0.01 1297.45 -0.05z"/>
    </g>
   </g>
  </g>
 </g>
</svg>
