<?xml version="1.0" encoding="UTF-8"?>
<!DOCTYPE svg PUBLIC "-//W3C//DTD SVG 1.1//EN" "http://www.w3.org/Graphics/SVG/1.1/DTD/svg11.dtd">
<!-- Creator: CorelDRAW (评估版) -->
<svg xmlns="http://www.w3.org/2000/svg" xml:space="preserve" width="33.8667mm" height="33.8667mm" version="1.1" style="shape-rendering:geometricPrecision; text-rendering:geometricPrecision; image-rendering:optimizeQuality; fill-rule:evenodd; clip-rule:evenodd"
viewBox="0 0 2842286 2842286"
 xmlns:xlink="http://www.w3.org/1999/xlink"
 xmlns:xodm="http://www.corel.com/coreldraw/odm/2003">
 <defs>
  <style type="text/css">
   <![CDATA[
    .fil0 {fill:none}
    .fil1 {fill:#13BEF9}
    .fil2 {fill:white}
    .fil4 {fill:#2F2B2B;fill-rule:nonzero}
    .fil3 {fill:white;fill-rule:nonzero}
   ]]>
  </style>
 </defs>
 <g id="圖層_x0020_1">
  <metadata id="CorelCorpID_0Corel-Layer"/>
  <rect class="fil0" x="-19" y="-21" width="2842286" height="2842286"/>
  <path class="fil1" d="M1873372 212617l86603 109c24154,-42 49273,781 73158,1183 53192,621 106292,5262 158754,13915 52344,8921 103329,25807 150856,49785 95457,48618 173273,126409 221933,221891 23978,47569 40796,98512 49743,151033 8535,52344 13336,105805 13982,158779 646,24330 1049,48685 1049,73024 218,28854 218,57716 218,86578l0 904459c0,28862 0,57716 -218,86578 0,24330 -403,48685 -1049,73024 -646,52966 -5447,106426 -13982,158771 -8946,52529 -25765,103464 -49743,151041 -48660,95482 -126476,173273 -221933,221891 -47527,23978 -98512,40863 -150856,49785 -52462,8653 -105562,13285 -158754,13915 -23885,403 -49004,1225 -73158,1183l-86603 109 -904459 0 -86603 -109c-24154,42 -49264,-781 -73150,-1183 -53192,-629 -106300,-5262 -158754,-13915 -52344,-8921 -103329,-25807 -150865,-49785 -95457,-48618 -173265,-126409 -221933,-221891 -23978,-47577 -40796,-98512 -49734,-151041 -8544,-52344 -13336,-105805 -13990,-158771 -646,-24338 -1041,-48694 -1041,-73024 -227,-28862 -227,-57716 -227,-86578l0 -904459c0,-28862 0,-57724 227,-86578 0,-24338 394,-48694 1041,-73024 655,-52974 5447,-106435 13990,-158779 8938,-52521 25757,-103464 49734,-151033 48669,-95482 126476,-173273 221933,-221891 47536,-23978 98520,-40863 150865,-49785 52454,-8653 105562,-13294 158754,-13915 23885,-403 48996,-1225 73150,-1183l86603 -109 904459 0z"/>
  <g id="_105553221754944">
   <g>
    <circle class="fil2" cx="1421147" cy="1588395" r="128664"/>
    <path class="fil3" d="M2181002 805577l-132678 132678c-162472,-156765 -383574,-253204 -627177,-253204 -243603,0 -464722,96447 -627177,253204l-132687 -132678c196436,-190738 464478,-308175 759863,-308175 295393,0 563410,117437 759855,308175z"/>
    <path class="fil4" d="M825795 1121684l133962 133962c-67585,93552 -107416,208513 -107416,332765 0,157075 63674,299304 166592,402231 102926,102910 245155,166584 402214,166584 157075,0 299304,-63691 402214,-166601 102926,-102910 166609,-245139 166609,-402214 0,-124252 -39865,-239197 -107433,-332765l133962 -133962c100921,128549 161121,290626 161121,466728 0,208849 -84698,398009 -221589,534884 -136891,136891 -326018,221589 -534884,221589 -208866,0 -397992,-84698 -534884,-221572 -136883,-136891 -221572,-326018 -221572,-534900 0,-176068 60183,-338179 161104,-466728z"/>
    <path class="fil3" d="M1944432 1042147l-132712 132712c-101861,-96246 -239348,-155263 -390573,-155263 -151242,0 -288713,59017 -390573,155263l-132703 -132703c135876,-130169 320235,-210217 523277,-210217 203033,0 387426,80032 523285,210209z"/>
    <path class="fil3" d="M1703138 1283442l-132770 132770c-39965,-34645 -92159,-55651 -149220,-55651 -57036,0 -109204,20956 -149279,55592l-132712 -132712c74006,-68618 173122,-110530 281990,-110530 108868,0 207985,41912 281990,110530z"/>
   </g>
  </g>
 </g>
</svg>
