<?xml version="1.0" encoding="UTF-8"?>
<!DOCTYPE svg PUBLIC "-//W3C//DTD SVG 1.1//EN" "http://www.w3.org/Graphics/SVG/1.1/DTD/svg11.dtd">
<!-- Creator: CorelDRAW -->
<svg xmlns="http://www.w3.org/2000/svg" xml:space="preserve" width="33.8667mm" height="33.8667mm" version="1.1" style="shape-rendering:geometricPrecision; text-rendering:geometricPrecision; image-rendering:optimizeQuality; fill-rule:evenodd; clip-rule:evenodd"
viewBox="0 0 3372460 3372460"
 xmlns:xlink="http://www.w3.org/1999/xlink"
 xmlns:xodm="http://www.corel.com/coreldraw/odm/2003">
 <defs>
  <style type="text/css">
   <![CDATA[
    .fil0 {fill:none}
    .fil1 {fill:white}
    .fil3 {fill:#007BFF;fill-rule:nonzero}
    .fil2 {fill:#CCCCCC;fill-rule:nonzero}
    .fil4 {fill:#FF354A;fill-rule:nonzero}
   ]]>
  </style>
 </defs>
 <g id="圖層_x0020_1">
  <metadata id="CorelCorpID_0Corel-Layer"/>
  <rect class="fil0" x="-22" y="-25" width="3372460" height="3372460"/>
  <path class="fil1" d="M2222814 252267l102757 129c28659,-50 58464,926 86804,1404 63114,737 126119,6244 188366,16510 62108,10585 122603,30621 178996,59071 113263,57687 205594,149988 263330,263281 28450,56442 48406,116887 59021,179205 10127,62108 15823,125541 16590,188396 767,28868 1245,57767 1245,86645 259,34236 259,68481 259,102727l0 1073168c0,34246 0,68481 -259,102727 0,28868 -478,57767 -1245,86645 -767,62845 -6463,126278 -16590,188386 -10615,62327 -30571,122763 -59021,179215 -57737,113293 -150068,205594 -263330,263281 -56392,28450 -116887,48486 -178996,59071 -62248,10267 -125252,15764 -188366,16510 -28341,478 -58145,1454 -86804,1404l-102757 129 -1073168 0 -102757 -129c-28659,50 -58454,-926 -86794,-1404 -63114,-747 -126129,-6244 -188366,-16510 -62108,-10585 -122603,-30621 -179006,-59071 -113263,-57687 -205584,-149988 -263330,-263281 -28450,-56452 -48406,-116887 -59011,-179215 -10137,-62108 -15823,-125541 -16600,-188386 -767,-28878 -1235,-57777 -1235,-86645 -269,-34246 -269,-68481 -269,-102727l0 -1073168c0,-34246 0,-68491 269,-102727 0,-28878 468,-57777 1235,-86645 777,-62855 6463,-126288 16600,-188396 10605,-62317 30561,-122763 59011,-179205 57747,-113293 150068,-205594 263330,-263281 56402,-28450 116897,-48486 179006,-59071 62238,-10267 125252,-15774 188366,-16510 28341,-478 58135,-1454 86794,-1404l102757 -129 1073168 0z"/>
  <g id="_105553499261888">
   <path class="fil2" d="M2190331 1221513l-1008192 0c-133906,0 -242349,-108453 -242349,-242349l0 -146632c0,-133896 108453,-242349 242349,-242349l1007584 -10c133906,0 242359,108463 242359,242359l0 146622c597,133906 -108463,242359 -241751,242359l0 0z" p-id="13322"/>
   <path class="fil3" d="M2534471 2160029l-1696472 0c-133906,0 -242359,-108463 -242359,-242359l0 -714938c0,-133906 108463,-242359 242359,-242359l1696472 0c133906,0 242359,108463 242359,242359l0 714938c0,133298 -108463,242359 -242359,242359z" p-id="13323"/>
   <path class="fil2" d="M2190331 2782277l-1008192 0c-133906,0 -242349,-108463 -242349,-242359l0 -675563 1492292 0 0 676171c597,133288 -108463,241751 -241751,241751z" p-id="13324"/>
   <path class="fil4" d="M1031872 1435382m-145407 0c10,80302 65126,145417 145417,145417 80292,0 145407,-65116 145407,-145417 10,-80292 -65106,-145407 -145397,-145407 -80302,0 -145417,65116 -145417,145407l-10 0z" p-id="13325"/>
  </g>
 </g>
</svg>
