<?xml version="1.0" encoding="UTF-8"?>
<!DOCTYPE svg PUBLIC "-//W3C//DTD SVG 1.1//EN" "http://www.w3.org/Graphics/SVG/1.1/DTD/svg11.dtd">
<!-- Creator: CorelDRAW (评估版) -->
<svg xmlns="http://www.w3.org/2000/svg" xml:space="preserve" width="33.8667mm" height="33.8667mm" version="1.1" shape-rendering="geometricPrecision" text-rendering="geometricPrecision" image-rendering="optimizeQuality" fill-rule="evenodd" clip-rule="evenodd"
viewBox="0 0 699033 699033"
 xmlns:xlink="http://www.w3.org/1999/xlink"
 xmlns:xodm="http://www.corel.com/coreldraw/odm/2003">
 <g id="圖層_x0020_1">
  <metadata id="CorelCorpID_0Corel-Layer"/>
  <g id="_105553252284000">
   <g>
    <rect fill="none" x="-4" y="-5" width="699033" height="699033"/>
    <path fill="#907DAC" d="M460738 52291l21299 27c5940,-10 12118,192 17993,291 13082,153 26141,1294 39044,3422 12874,2194 25413,6347 37102,12242 23477,11959 42615,31091 54584,54574 5895,11699 10031,24228 12232,37145 2101,12874 3280,26022 3439,39050 159,5984 258,11974 258,17957 54,7098 54,14197 54,21295l0 222443c0,7096 0,14195 -54,21293 0,5984 -99,11974 -258,17959 -159,13026 -1338,26174 -3439,39048 -2200,12919 -6337,25446 -12232,37147 -11970,23481 -31108,42615 -54584,54572 -11689,5897 -24228,10050 -37102,12244 -12903,2128 -25962,3267 -39044,3422 -5874,99 -12052,301 -17993,291l-21299 27 -222443 0 -21299 -27c-5940,10 -12116,-192 -17990,-291 -13082,-155 -26144,-1294 -39044,-3422 -12874,-2194 -25413,-6347 -37102,-12244 -23477,-11957 -42615,-31091 -54584,-54572 -5897,-11701 -10033,-24228 -12232,-37147 -2101,-12874 -3280,-26022 -3439,-39048 -161,-5986 -258,-11976 -258,-17959 -56,-7098 -56,-14197 -56,-21293l0 -222443c0,-7098 0,-14197 56,-21295 0,-5984 97,-11974 258,-17957 159,-13028 1338,-26177 3439,-39050 2198,-12917 6335,-25446 12232,-37145 11970,-23483 31108,-42615 54584,-54574 11689,-5895 24228,-10048 37102,-12242 12900,-2128 25962,-3269 39044,-3422 5874,-99 12050,-301 17990,-291l21299 -27 222443 0z"/>
   </g>
   <g>
    <g>
     <path fill="black" d="M348906 236464c316,345 867,345 1197,0 19262,-21134 38456,-42200 57594,-63222 24645,-27083 65109,-27165 91777,-2906 497,454 537,1212 83,1707l-148667 163303c-138,153 -303,277 -497,359 -1032,481 -1967,248 -2807,-689 -49428,-54520 -98883,-108975 -148353,-163371 -260,-289 -248,-743 43,-1005 27659,-25925 68317,-23681 93306,3938 18793,20760 37558,41387 56324,61887z"/>
     <path fill="#E47000" d="M236916 350341c318,-262 345,-731 68,-1046l-114397 -125524c-359,-400 -332,-1005 39,-1377 29768,-29023 74899,-25541 102105,4198 35467,38757 70905,77555 106304,116383 1707,1872 3455,3691 5245,5466 648,646 592,1721 -124,2285 -1666,1335 -3290,2877 -4859,4613 -35620,39308 -71237,78602 -106855,117881 -27219,30016 -72517,32053 -101761,3594 -427,-425 -454,-1100 -41,-1542 36472,-40078 72971,-80185 109499,-120319 1542,-1695 3137,-3222 4776,-4611z"/>
     <path fill="#E47000" d="M462288 349018c-262,277 -291,689 -70,937l113933 124876c729,811 702,1598 -97,2353 -30276,28445 -74156,25857 -101953,-4667 -37271,-40933 -74459,-81783 -111577,-122577 -262,-289 -262,-592 0,-881 37298,-40850 74540,-81630 111701,-122371 27756,-30426 71813,-32590 102062,-4640 524,483 551,1294 70,1818l-114069 125151z"/>
     <path fill="black" d="M349251 462550c-991,675 -1942,1527 -2850,2533 -15530,17225 -31101,34406 -46729,51521 -8646,9486 -15270,15805 -19869,18944 -25429,17404 -58211,13617 -80515,-7282 -289,-262 -303,-716 -41,-1005l149206 -163854c729,-813 1474,-813 2202,0l149234 163937c219,233 204,605 -29,840 -25760,24534 -66651,24934 -91090,-1695 -19495,-21258 -39005,-42530 -58514,-63829 -303,-330 -634,-372 -1005,-109z"/>
    </g>
   </g>
  </g>
 </g>
</svg>
