<?xml version="1.0" encoding="UTF-8"?>
<!DOCTYPE svg PUBLIC "-//W3C//DTD SVG 1.1//EN" "http://www.w3.org/Graphics/SVG/1.1/DTD/svg11.dtd">
<!-- Creator: CorelDRAW -->
<svg xmlns="http://www.w3.org/2000/svg" xml:space="preserve" width="33.8667mm" height="33.8667mm" version="1.1" shape-rendering="geometricPrecision" text-rendering="geometricPrecision" image-rendering="optimizeQuality" fill-rule="evenodd" clip-rule="evenodd"
viewBox="0 0 3372.42 3372.42"
 xmlns:xlink="http://www.w3.org/1999/xlink"
 xmlns:xodm="http://www.corel.com/coreldraw/odm/2003">
 <g id="圖層_x0020_1">
  <metadata id="CorelCorpID_0Corel-Layer"/>
  <g id="_105553216996480">
   <rect fill="none" x="-0.02" y="-0.02" width="3372.42" height="3372.42"/>
   <path fill="#2F67BA" d="M2222.8 252.26l102.76 0.13c28.66,-0.05 58.46,0.93 86.8,1.4 63.11,0.74 126.12,6.24 188.36,16.51 62.11,10.59 122.6,30.62 178.99,59.07 113.26,57.69 205.59,149.99 263.33,263.28 28.45,56.44 48.41,116.89 59.02,179.2 10.13,62.11 15.82,125.54 16.59,188.39 0.77,28.87 1.24,57.77 1.24,86.64 0.26,34.24 0.26,68.48 0.26,102.73l0 1073.16c0,34.25 0,68.48 -0.26,102.73 0,28.87 -0.48,57.77 -1.24,86.64 -0.77,62.84 -6.46,126.28 -16.59,188.38 -10.62,62.33 -30.57,122.76 -59.02,179.21 -57.74,113.29 -150.07,205.59 -263.33,263.28 -56.39,28.45 -116.89,48.49 -178.99,59.07 -62.25,10.27 -125.25,15.76 -188.36,16.51 -28.34,0.48 -58.14,1.45 -86.8,1.4l-102.76 0.13 -1073.16 0 -102.76 -0.13c-28.66,0.05 -58.45,-0.93 -86.79,-1.4 -63.11,-0.75 -126.13,-6.24 -188.36,-16.51 -62.11,-10.59 -122.6,-30.62 -179,-59.07 -113.26,-57.69 -205.58,-149.99 -263.33,-263.28 -28.45,-56.45 -48.41,-116.89 -59.01,-179.21 -10.14,-62.11 -15.82,-125.54 -16.6,-188.38 -0.77,-28.88 -1.23,-57.78 -1.23,-86.64 -0.27,-34.25 -0.27,-68.48 -0.27,-102.73l0 -1073.16c0,-34.25 0,-68.49 0.27,-102.73 0,-28.88 0.47,-57.78 1.23,-86.64 0.78,-62.85 6.46,-126.29 16.6,-188.39 10.61,-62.32 30.56,-122.76 59.01,-179.2 57.75,-113.29 150.07,-205.59 263.33,-263.28 56.4,-28.45 116.9,-48.49 179,-59.07 62.24,-10.27 125.25,-15.77 188.36,-16.51 28.34,-0.48 58.13,-1.45 86.79,-1.4l102.76 -0.13 1073.16 0z"/>
   <g>
    <path fill="#64D4F9" d="M1270.27 2182.84c-75.1,37.84 -159.94,59.16 -249.75,59.16 -153.46,0 -292.41,-62.23 -393,-162.81 -100.59,-100.58 -162.81,-239.55 -162.81,-393 0,-153.45 62.22,-292.41 162.81,-393 100.58,-100.58 239.54,-162.81 393,-162.81 89.81,0 174.65,21.32 249.75,59.16l0 -59.16 306.05 0 0 1488.18c0,84.51 -68.52,153.02 -153.02,153.02 -84.51,0 -153.02,-68.51 -153.02,-153.02l0 -435.72zm-73.14 -673.28c-45.19,-45.18 -107.64,-73.13 -176.61,-73.13 -68.99,0 -131.43,27.95 -176.62,73.13 -45.19,45.19 -73.14,107.64 -73.14,176.62 0,68.99 27.95,131.43 73.14,176.62 45.19,45.18 107.64,73.13 176.62,73.13 68.98,0 131.42,-27.95 176.61,-73.13 45.19,-45.19 73.14,-107.64 73.14,-176.62 0,-68.99 -27.95,-131.43 -73.14,-176.62z"/>
    <path fill="white" d="M2102.15 1189.53c75.09,-37.84 159.93,-59.16 249.74,-59.16 153.47,0 292.41,62.23 393,162.81 100.59,100.58 162.81,239.55 162.81,393 0,153.45 -62.22,292.41 -162.81,393 -100.58,100.58 -239.53,162.81 -393,162.81 -89.81,0 -174.65,-21.32 -249.74,-59.16l0 59.16 -306.06 0 0 -1488.18c0,-84.51 68.52,-153.02 153.02,-153.02 84.51,0 153.03,68.51 153.03,153.02l0 435.72zm73.13 673.28c45.19,45.18 107.64,73.13 176.61,73.13 69,0 131.44,-27.95 176.62,-73.13 45.19,-45.19 73.14,-107.64 73.14,-176.62 0,-68.99 -27.95,-131.43 -73.14,-176.62 -45.18,-45.18 -107.63,-73.13 -176.62,-73.13 -68.98,0 -131.42,27.95 -176.61,73.13 -45.19,45.19 -73.13,107.64 -73.13,176.62 0,68.99 27.94,131.43 73.13,176.62z"/>
   </g>
  </g>
 </g>
</svg>
