<?xml version="1.0" encoding="UTF-8"?>
<!DOCTYPE svg PUBLIC "-//W3C//DTD SVG 1.1//EN" "http://www.w3.org/Graphics/SVG/1.1/DTD/svg11.dtd">
<!-- Creator: CorelDRAW (评估版) -->
<svg xmlns="http://www.w3.org/2000/svg" xml:space="preserve" width="33.8666mm" height="33.8666mm" version="1.1" style="shape-rendering:geometricPrecision; text-rendering:geometricPrecision; image-rendering:optimizeQuality; fill-rule:evenodd; clip-rule:evenodd"
viewBox="0 0 17277455 17277455"
 xmlns:xlink="http://www.w3.org/1999/xlink"
 xmlns:xodm="http://www.corel.com/coreldraw/odm/2003">
 <defs>
  <style type="text/css">
   <![CDATA[
    .fil0 {fill:none}
    .fil1 {fill:#0F79D5}
    .fil2 {fill:white;fill-rule:nonzero}
   ]]>
  </style>
 </defs>
 <g id="圖層_x0020_1">
  <metadata id="CorelCorpID_0Corel-Layer"/>
  <g id="_105553223751744">
   <rect class="fil0" x="-26" y="26" width="17277455" height="17277455"/>
   <path class="fil1" d="M11387736 1292649l526436 663c146825,-255 299516,4745 444708,7193 323341,3775 646120,31987 965023,84585 318188,54230 628112,156875 917016,302577 580258,295588 1053281,768457 1349124,1348869 145702,289160 247939,598828 302322,918088 51935,318188 81065,643161 84993,965176 3928,147896 6377,295945 6377,443841 1326,175445 1326,350889 1326,526334l0 5497915c0,175394 0,350838 -1326,526283 0,147896 -2449,295945 -6377,443892 -3928,321963 -33059,646937 -84993,965125 -54383,319310 -156620,628928 -302322,918139 -295843,580360 -768865,1053281 -1349124,1348818 -288905,145753 -598828,248398 -917016,302628 -318902,52598 -641682,80759 -965023,84585 -145192,2449 -297884,7448 -444708,7193l-526436 663 -5497915 0 -526436 -663c-146825,255 -299465,-4745 -444657,-7193 -323341,-3826 -646171,-31987 -965023,-84585 -318188,-54230 -628112,-156875 -917016,-302628 -580258,-295537 -1053281,-768457 -1349124,-1348818 -145753,-289211 -247990,-598828 -302322,-918139 -51935,-318188 -81065,-643161 -84993,-965125 -3979,-147947 -6377,-295996 -6377,-443892 -1377,-175445 -1377,-350889 -1377,-526283l0 -5497915c0,-175445 0,-350889 1377,-526334 0,-147896 2398,-295945 6377,-443841 3928,-322014 33059,-646988 84993,-965176 54332,-319259 156569,-628928 302322,-918088 295843,-580411 768865,-1053281 1349124,-1348869 288905,-145702 598828,-248347 917016,-302577 318851,-52598 641682,-80810 965023,-84585 145192,-2449 297833,-7448 444657,-7193l526436 -663 5497915 0z"/>
   <g id="_105553243061792">
    <path class="fil2" d="M8894013 10553111l-5870384 0 0 1276221c0,561484 459452,1020936 1020936,1020936l5895892 0c-638111,-561535 -1046444,-1378305 -1046444,-2297158zm-3190401 1531354l-1276170 0c-204167,0 -382826,-178659 -382826,-382826 0,-204167 178659,-382877 382826,-382877l1276170 0c204167,0 382826,178659 382826,382877 0,204167 -178659,382826 -382826,382826l0 0zm5232324 -7656921l-6891320 0c-561484,0 -1020936,459452 -1020936,1020936l0 1276170 8933193 0 0 -1276170c0,-561484 -459452,-1020936 -1020936,-1020936zm-5232324 1531354l-1276170 0c-204167,0 -382826,-178659 -382826,-382826 0,-204167 178659,-382877 382826,-382877l1276170 0c204167,0 382826,178659 382826,382826 0,204218 -178659,382877 -382826,382877l0 0zm3573226 0c-204167,0 -382826,-178659 -382826,-382826 0,-204167 178659,-382826 382826,-382826 204218,0 382877,178659 382877,382826 0,204167 -178659,382826 -382877,382826zm1276170 0c-204167,0 -382826,-178659 -382826,-382826 0,-204167 178659,-382826 382826,-382826 204167,0 382826,178659 382826,382826 0,204167 -178659,382826 -382826,382826zm-7529380 3828511l5972468 0c178659,-689178 587044,-1276170 1123020,-1684504l25508 -51 229726 -153151 25508 -25508c76575,-51016 153151,-76524 229726,-127592 25508,0 25508,-25508 51067,-25508 76524,-25508 153151,-51067 229675,-102134 25508,0 51067,-25508 76575,-25508 76575,-25508 153151,-51016 229726,-51016 25508,0 51067,-25508 76575,-25508 76524,-25559 153151,-25559 229675,-51067 25559,0 51067,0 76575,-25508 102134,0 204167,-25508 331809,-25508l-8907634 -51 0 2322615zm1403813 -1531354l1276170 0c204167,0 382826,178710 382826,382826 0,204167 -178659,382826 -382826,382826l-1276170 51c-204167,0 -382826,-178710 -382826,-382877 0,-204116 178659,-382826 382826,-382826z" p-id="7761"/>
    <path class="fil2" d="M11956822 8256055c-1276170,0 -2297107,1020885 -2297107,2297107 0,1276170 1020936,2297107 2297107,2297107 1276170,0 2297107,-1020936 2297107,-2297107 0,-1276221 -1020936,-2297107 -2297107,-2297107zm-127643 3394516l-765702 433893 -765702 -433893 0 -893294 765702 -433893 765702 433893 0 893294zm-638009 -1556862l0 -893294 765702 -433893 765702 433893 0 893294 -765702 459401 -765702 -459401 0 0zm1658996 1990806l-765702 -433893 0 -893294 765702 -433893 765702 433893 0 893294 -765702 433893z" p-id="7762"/>
   </g>
  </g>
 </g>
</svg>
