<?xml version="1.0" encoding="UTF-8"?>
<!DOCTYPE svg PUBLIC "-//W3C//DTD SVG 1.1//EN" "http://www.w3.org/Graphics/SVG/1.1/DTD/svg11.dtd">
<!-- Creator: CorelDRAW -->
<svg xmlns="http://www.w3.org/2000/svg" xml:space="preserve" width="33.8667mm" height="33.8667mm" version="1.1" style="shape-rendering:geometricPrecision; text-rendering:geometricPrecision; image-rendering:optimizeQuality; fill-rule:evenodd; clip-rule:evenodd"
viewBox="0 0 3372420 3372420"
 xmlns:xlink="http://www.w3.org/1999/xlink"
 xmlns:xodm="http://www.corel.com/coreldraw/odm/2003">
 <defs>
  <style type="text/css">
   <![CDATA[
    .fil0 {fill:none}
    .fil1 {fill:#EB502A}
    .fil2 {fill:white;fill-rule:nonzero}
   ]]>
  </style>
 </defs>
 <g id="圖層_x0020_1">
  <metadata id="CorelCorpID_0Corel-Layer"/>
  <g id="_105553421667616">
   <rect class="fil0" x="-22" y="-25" width="3372420" height="3372420"/>
   <g>
    <path class="fil1" d="M2222798 252264l102756 129c28659,-50 58463,926 86803,1404 63113,737 126117,6244 188364,16510 62108,10585 122602,30621 178994,59070 113261,57686 205591,149986 263327,263278 28450,56442 48405,116886 59021,179203 10127,62108 15823,125540 16590,188394 767,28868 1245,57766 1245,86644 259,34235 259,68481 259,102726l0 1073155c0,34245 0,68481 -259,102726 0,28868 -478,57766 -1245,86644 -767,62844 -6463,126276 -16590,188384 -10615,62327 -30571,122761 -59021,179213 -57736,113291 -150066,205591 -263327,263278 -56392,28450 -116886,48485 -178994,59070 -62247,10267 -125251,15763 -188364,16510 -28340,478 -58144,1454 -86803,1404l-102756 129 -1073155 0 -102756 -129c-28659,50 -58453,-926 -86793,-1404 -63113,-747 -126127,-6244 -188364,-16510 -62108,-10585 -122602,-30621 -179004,-59070 -113261,-57686 -205581,-149986 -263327,-263278 -28450,-56451 -48405,-116886 -59011,-179213 -10137,-62108 -15823,-125540 -16600,-188384 -767,-28878 -1235,-57776 -1235,-86644 -269,-34245 -269,-68481 -269,-102726l0 -1073155c0,-34245 0,-68491 269,-102726 0,-28878 468,-57776 1235,-86644 777,-62854 6463,-126286 16600,-188394 10605,-62317 30561,-122761 59011,-179203 57746,-113291 150066,-205591 263327,-263278 56402,-28450 116896,-48485 179004,-59070 62237,-10267 125251,-15773 188364,-16510 28340,-478 58134,-1454 86793,-1404l102756 -129 1073155 0z"/>
    <g>
     <g>
      <path class="fil2" d="M1720251 1157021zm600722 0l68919 0 0 405646 -68919 0 0 -405646z"/>
      <path class="fil2" d="M1720251 1157021zm502178 125420l-69028 0 0 -250721 69028 0 0 250721z"/>
      <path class="fil2" d="M1720251 1157021zm334825 -47838l-68929 0 0 -154925 68929 0 0 154925z"/>
      <path class="fil2" d="M1720251 1157021zm167572 125420l-68929 0 0 -250721 68929 0 0 250721z"/>
      <polygon class="fil2" points="1651651,1157021 1720251,1157021 1720251,1562667 1651651,1562667 "/>
      <path class="fil2" d="M1720251 1157021zm-235853 280335l68929 0 0 250621 -68929 0 0 -250621z"/>
      <path class="fil2" d="M1720251 1157021zm-403206 453494l69028 0 0 155234 -69028 0 0 -155234z"/>
      <path class="fil2" d="M1720251 1157021zm-570460 280335l68929 0 0 250621 -68929 0 0 -250621z"/>
      <path class="fil2" d="M1720251 1157021zm-668784 405646l-68929 0 0 -405646 68929 0 0 405646z"/>
     </g>
     <path class="fil2" d="M2059498 2317567l-122950 0 -31537 94580 -68192 0 141024 -404282 84075 0 140925 404481 -74515 0 -111708 -331659 -61261 177400 84065 0 20075 59479zm-1229654 -309701l0 266922c0,93634 -60634,143344 -156578,143344 -95955,0 -155433,-49710 -155433,-143344l0 -266922 68730 0 0 266922c0,54330 33528,83228 86704,83228 53175,0 87849,-28898 87849,-83228l0 -266922 68730 0zm222480 126107l0 278483 -68839 0 0 -404590 64209 0 178655 278483 0 -278483 69148 0 0 404481 -64109 0 -179063 -278374zm1265592 -126107l68730 0 0 404481 -68730 0 0 -404481zm536692 259464c0,94580 -61799,145027 -159426,145027l-152585 -10 0 -404481 153740 0c96472,0 158261,50228 158261,145027l10 114436zm-68730 -114436c0,-55496 -34683,-85549 -89542,-85549l-84911 0 0 284896 84075 0c56013,0 90697,-29426 90697,-84911l-319 -114436zm-1129816 106351c45607,-16819 72822,-55496 72822,-121377 0,-91324 -53175,-130001 -134093,-130001l-143344 0 0 404481 68839 0 0 -345002 72195 0c39931,0 65264,19129 65264,70522 0,51393 -25333,71040 -65264,71040l-35520 -10 96781 203450 79136 0 -76815 -153103z"/>
    </g>
   </g>
  </g>
 </g>
</svg>
