<?xml version="1.0" encoding="UTF-8"?>
<!DOCTYPE svg PUBLIC "-//W3C//DTD SVG 1.1//EN" "http://www.w3.org/Graphics/SVG/1.1/DTD/svg11.dtd">
<!-- Creator: CorelDRAW -->
<svg xmlns="http://www.w3.org/2000/svg" xml:space="preserve" width="33.8667mm" height="33.8667mm" version="1.1" style="shape-rendering:geometricPrecision; text-rendering:geometricPrecision; image-rendering:optimizeQuality; fill-rule:evenodd; clip-rule:evenodd"
viewBox="0 0 3372460 3372460"
 xmlns:xlink="http://www.w3.org/1999/xlink"
 xmlns:xodm="http://www.corel.com/coreldraw/odm/2003">
 <defs>
  <style type="text/css">
   <![CDATA[
    .fil0 {fill:none}
    .fil1 {fill:#25DFE4}
    .fil2 {fill:#343434}
    .fil3 {fill:#FEFEFE}
   ]]>
  </style>
 </defs>
 <g id="圖層_x0020_1">
  <metadata id="CorelCorpID_0Corel-Layer"/>
  <g id="_105553428365984">
   <polygon class="fil0" points="0,0 3372460,0 3372460,3372460 0,3372460 "/>
   <rect class="fil0" x="-22" y="-25" width="3372460" height="3372460"/>
   <path class="fil1" d="M2222814 252277l102757 129c28659,-50 58464,926 86804,1404 63114,737 126119,6244 188366,16510 62108,10585 122603,30621 178996,59071 113263,57687 205594,149988 263330,263281 28450,56442 48406,116887 59021,179205 10127,62108 15823,125541 16590,188396 767,28868 1245,57767 1245,86645 259,34236 259,68481 259,102727l0 1073168c0,34246 0,68481 -259,102727 0,28868 -478,57767 -1245,86645 -767,62845 -6463,126278 -16590,188386 -10615,62327 -30571,122763 -59021,179215 -57737,113293 -150068,205594 -263330,263281 -56392,28450 -116887,48486 -178996,59071 -62248,10267 -125252,15764 -188366,16510 -28341,478 -58145,1454 -86804,1404l-102757 129 -1073168 0 -102757 -129c-28659,50 -58454,-926 -86794,-1404 -63114,-747 -126129,-6244 -188366,-16510 -62108,-10585 -122603,-30621 -179006,-59071 -113263,-57687 -205584,-149988 -263330,-263281 -28450,-56452 -48406,-116887 -59011,-179215 -10137,-62108 -15823,-125541 -16600,-188386 -767,-28878 -1235,-57777 -1235,-86645 -269,-34246 -269,-68481 -269,-102727l0 -1073168c0,-34246 0,-68491 269,-102727 0,-28878 468,-57777 1235,-86645 777,-62855 6463,-126288 16600,-188396 10605,-62317 30561,-122763 59011,-179205 57747,-113293 150068,-205594 263330,-263281 56402,-28450 116897,-48486 179006,-59071 62238,-10267 125252,-15774 188366,-16510 28341,-478 58135,-1454 86794,-1404l102757 -129 1073168 0z"/>
   <path class="fil2" d="M835300 256380c20713,44323 289610,399845 308092,442456l-564173 -2081c-29944,-41286 -55914,-74974 -84524,-114936 -24666,-34455 -62198,-78908 -80939,-113213 -24895,15166 -69179,90459 -85012,122354 -24706,49740 -42610,94711 -55855,156371 -15007,69866 -19468,147967 -20613,229324l0 164596 0 6612 2867916 0 -836 -248234c-2221,-19986 -3914,-65165 -12298,-75402 -12418,22923 -36247,54321 -52937,77195l-169605 236832 -571094 90c12796,-27992 195427,-273089 229065,-318209 24805,-33260 59191,-75203 79027,-109519l470000 -657 -5736 -11153 -460480 -259c-36695,-64498 -297168,-397067 -322929,-447903l-449177 0 157964 225709c50587,71758 111550,149978 155365,222363l-566234 -1245c-19269,-34027 -56910,-78987 -81467,-113113 -38747,-53833 -225669,-299906 -241612,-333714l-3465 0 -3465 0 -3475 0 -3465 0 -3465 0 -3465 0 -3465 0 -3475 0 -3465 0 -3465 0 -3465 0 -3465 0 -3475 0 -3465 0 -3465 0 -3465 0 -3465 0 -3475 0 -3465 0 -3465 0 -3465 0 -3465 0 -3475 0 -3465 0 -3465 0 -3465 0 -3465 0 -3475 0 -3465 0 -3465 0 -3465 0 -3465 0 -3475 0 -3465 0 -3465 0 -3465 0 -3475 0 -3465 0 -3465 0 -3465 0 -3465 0 -3475 0 -3465 0 -3465 0 -3465 0 -3465 0 -3475 0 -3465 0 -3465 0 -3465 0 -3465 0 -3475 0 -3465 0 -3465 0 -3465 0 -3465 0 -3475 0 -3465 0 -3465 0 -3465 0 -3465 0 -3475 0 -3465 0 -3465 0 -1703 0 -1703 0 -1703 0 -1703 0 -1703 0 -1703 0 -1703 0c-28948,10 -57926,110 -86884,0l-1703 0 -17745 0c-39255,548 -60037,5736 -101741,5736z"/>
   <path class="fil3" d="M1853191 250644l-575983 0c15943,33808 202865,279881 241612,333714 24557,34126 62198,79087 81467,113113l566234 1245c-43815,-72385 -104779,-150605 -155365,-222363l-157964 -225709z"/>
   <path class="fil3" d="M266238 1137437l571094 936c41854,-46265 296451,-414304 301032,-428495l-563665 169 -308460 427389z"/>
   <path class="fil3" d="M1287664 1136989l570646 1414 303969 -428046 -556346 -408c-18771,7120 -66490,81188 -81785,101403l-236484 325638z"/>
   <path class="fil3" d="M3107058 824227c5108,-45349 -12149,-74835 -15545,-114269l-470000 657c-19836,34315 -54222,76259 -79027,109519 -33638,45120 -216269,290217 -229065,318209l571094 -90 169605 -236832c16690,-22874 40519,-54271 52937,-77195z"/>
   <path class="fil3" d="M3085778 698806c-14758,-67386 -63672,-156570 -101871,-202895 -52120,-63184 -93138,-101482 -163033,-146702 -137421,-88895 -295256,-98565 -518505,-98565 25761,50836 286234,383404 322929,447903l460480 259z"/>
   <path class="fil3" d="M413757 468605c18741,34305 56273,78758 80939,113213 28609,39962 54580,73650 84524,114936l564173 2081c-18482,-42610 -287379,-398132 -308092,-442456 -18522,5198 -43019,7478 -61959,10565 -124754,20344 -308042,111341 -359585,201660z"/>
  </g>
 </g>
</svg>
