<?xml version="1.0" encoding="UTF-8"?>
<!DOCTYPE svg PUBLIC "-//W3C//DTD SVG 1.1//EN" "http://www.w3.org/Graphics/SVG/1.1/DTD/svg11.dtd">
<!-- Creator: CorelDRAW -->
<svg xmlns="http://www.w3.org/2000/svg" xml:space="preserve" width="33.8667mm" height="33.8667mm" version="1.1" style="shape-rendering:geometricPrecision; text-rendering:geometricPrecision; image-rendering:optimizeQuality; fill-rule:evenodd; clip-rule:evenodd"
viewBox="0 0 3372.46 3372.46"
 xmlns:xlink="http://www.w3.org/1999/xlink"
 xmlns:xodm="http://www.corel.com/coreldraw/odm/2003">
 <defs>
  <style type="text/css">
   <![CDATA[
    .fil0 {fill:none}
    .fil1 {fill:#2469F4}
    .fil2 {fill:white}
   ]]>
  </style>
 </defs>
 <g id="圖層_x0020_1">
  <metadata id="CorelCorpID_0Corel-Layer"/>
  <rect class="fil0" x="-0.02" y="-0.02" width="3372.46" height="3372.46"/>
  <path class="fil1" d="M2222.81 252.28l102.76 0.13c28.66,-0.05 58.46,0.93 86.8,1.4 63.11,0.74 126.12,6.24 188.37,16.51 62.11,10.59 122.6,30.62 179,59.07 113.26,57.69 205.59,149.99 263.33,263.28 28.45,56.44 48.41,116.89 59.02,179.2 10.13,62.11 15.82,125.54 16.59,188.4 0.77,28.87 1.24,57.77 1.24,86.64 0.26,34.24 0.26,68.48 0.26,102.73l0 1073.17c0,34.25 0,68.48 -0.26,102.73 0,28.87 -0.48,57.77 -1.24,86.64 -0.77,62.85 -6.46,126.28 -16.59,188.39 -10.62,62.33 -30.57,122.76 -59.02,179.21 -57.74,113.29 -150.07,205.59 -263.33,263.28 -56.39,28.45 -116.89,48.49 -179,59.07 -62.25,10.27 -125.25,15.76 -188.37,16.51 -28.34,0.48 -58.15,1.45 -86.8,1.4l-102.76 0.13 -1073.17 0 -102.76 -0.13c-28.66,0.05 -58.45,-0.93 -86.79,-1.4 -63.11,-0.75 -126.13,-6.24 -188.37,-16.51 -62.11,-10.59 -122.6,-30.62 -179.01,-59.07 -113.26,-57.69 -205.58,-149.99 -263.33,-263.28 -28.45,-56.45 -48.41,-116.89 -59.01,-179.21 -10.14,-62.11 -15.82,-125.54 -16.6,-188.39 -0.77,-28.88 -1.23,-57.78 -1.23,-86.64 -0.27,-34.25 -0.27,-68.48 -0.27,-102.73l0 -1073.17c0,-34.25 0,-68.49 0.27,-102.73 0,-28.88 0.47,-57.78 1.23,-86.64 0.78,-62.86 6.46,-126.29 16.6,-188.4 10.61,-62.32 30.56,-122.76 59.01,-179.2 57.75,-113.29 150.07,-205.59 263.33,-263.28 56.4,-28.45 116.9,-48.49 179.01,-59.07 62.24,-10.27 125.25,-15.77 188.37,-16.51 28.34,-0.48 58.14,-1.45 86.79,-1.4l102.76 -0.13 1073.17 0z"/>
  <path class="fil2" d="M2198.01 1441.98c12.76,-7.12 85.45,-128.08 103.01,-152.37 34.82,-48.15 79.02,-110.89 122.08,-144.17 -24.78,-24.98 -5.73,-7.91 -42.25,-21.92l239.28 -435.01c-174.57,40.12 -452.84,163.07 -598.62,243.64 -119.13,65.83 -287.75,163.45 -392.52,242.02 -35.77,26.83 -91.26,75.94 -124.6,95.48 -87.47,-65.09 -190.36,-245.08 -386.73,-229.2 -54.82,4.43 -71.79,26.83 -126.08,15.27 -81.97,-17.47 -249.01,-91.76 -364.05,-106.95 61.55,69.1 407.4,139.34 454.21,381.23 11.05,236.16 -74.79,295.88 61.49,520.43 160.87,265.03 438.46,274.74 730.76,526.96l319.5 306.54c-1.71,-116.06 -276.81,-575.42 -331.86,-696.51 65.75,-61.87 304.2,-94.81 415.12,-102.54l-38.22 -42.04 506.39 -56.59c-15.96,-25.24 2.1,-2.54 -22.49,-23.15 -6.11,-5.12 -27.92,-17.57 -34.73,-21.33l-218.27 -93.05c-109.2,-37.13 -221.89,-51.06 -325.4,-83.35l53.97 -123.39z"/>
 </g>
</svg>
