<?xml version="1.0" encoding="UTF-8"?>
<!DOCTYPE svg PUBLIC "-//W3C//DTD SVG 1.1//EN" "http://www.w3.org/Graphics/SVG/1.1/DTD/svg11.dtd">
<!-- Creator: CorelDRAW (评估版) -->
<svg xmlns="http://www.w3.org/2000/svg" xml:space="preserve" width="3.3867mm" height="3.3867mm" version="1.1" style="shape-rendering:geometricPrecision; text-rendering:geometricPrecision; image-rendering:optimizeQuality; fill-rule:evenodd; clip-rule:evenodd"
viewBox="0 0 324977 324977"
 xmlns:xlink="http://www.w3.org/1999/xlink"
 xmlns:xodm="http://www.corel.com/coreldraw/odm/2003">
 <defs>
  <style type="text/css">
   <![CDATA[
    .fil0 {fill:red}
   ]]>
  </style>
 </defs>
 <g id="圖層_x0020_1">
  <metadata id="CorelCorpID_0Corel-Layer"/>
  <path class="fil0" d="M223292 0l11649 10c3243,-10 6621,106 9836,163 7149,77 14288,700 21341,1871 7043,1199 13895,3464 20285,6688 12839,6535 23298,16994 29843,29833 3224,6400 5479,13252 6688,20314 1142,7034 1794,14221 1881,21341 86,3272 134,6544 134,9816 29,3886 29,7763 29,11649l0 121606c0,3877 0,7753 -29,11640 0,3272 -48,6544 -134,9816 -86,7120 -739,14307 -1881,21350 -1209,7053 -3464,13904 -6688,20304 -6544,12839 -17004,23298 -29843,29833 -6391,3224 -13242,5489 -20285,6688 -7053,1171 -14192,1794 -21341,1871 -3215,58 -6592,173 -9836,163l-11649 19 -121606 0 -11640 -19c-3243,10 -6621,-106 -9836,-163 -7149,-77 -14288,-700 -21341,-1871 -7043,-1199 -13895,-3464 -20285,-6688 -12839,-6535 -23298,-16994 -29843,-29833 -3224,-6400 -5479,-13252 -6688,-20304 -1142,-7043 -1794,-14230 -1881,-21350 -86,-3272 -134,-6544 -134,-9816 -38,-3886 -38,-7763 -38,-11640l0 -121606c0,-3886 0,-7763 38,-11649 0,-3272 48,-6544 134,-9816 86,-7120 739,-14307 1881,-21341 1209,-7062 3464,-13914 6688,-20314 6544,-12839 17004,-23298 29843,-29833 6391,-3224 13242,-5489 20285,-6688 7053,-1171 14192,-1794 21341,-1871 3215,-58 6592,-173 9836,-163l11640 -10 121606 0z"/>
 </g>
</svg>
