<?xml version="1.0" encoding="UTF-8"?>
<!DOCTYPE svg PUBLIC "-//W3C//DTD SVG 1.1//EN" "http://www.w3.org/Graphics/SVG/1.1/DTD/svg11.dtd">
<svg xmlns="http://www.w3.org/2000/svg" version="1.1" width="421px" height="140px" viewBox="59 100 421 140" style="shape-rendering:geometricPrecision; text-rendering:geometricPrecision; image-rendering:optimizeQuality; fill-rule:evenodd; clip-rule:evenodd" xmlns:xlink="http://www.w3.org/1999/xlink">
<g><path style="opacity:0.973" fill="#2932e1" d="M 245.5,101.5 C 254.329,100.494 260.162,104.16 263,112.5C 265.22,120.411 264.553,128.077 261,135.5C 254.531,142.384 247.364,143.217 239.5,138C 233.798,131.555 231.964,124.055 234,115.5C 235.738,108.977 239.571,104.311 245.5,101.5 Z"/></g>
<g><path style="opacity:0.975" fill="#2932e1" d="M 283.5,101.5 C 291.661,100.839 297.494,104.173 301,111.5C 304.104,119.782 303.438,127.782 299,135.5C 293.041,141.688 286.207,142.854 278.5,139C 275.769,136.374 273.936,133.207 273,129.5C 272.13,123.083 272.464,116.749 274,110.5C 275.871,106.006 279.038,103.006 283.5,101.5 Z"/></g>
<g><path style="opacity:0.967" fill="#2932e1" d="M 216.5,133.5 C 226.842,132.001 233.342,136.334 236,146.5C 238.306,155.71 236.139,163.544 229.5,170C 217.169,174.086 209.335,169.92 206,157.5C 204.385,147.079 207.885,139.079 216.5,133.5 Z"/></g>
<g><path style="opacity:0.963" fill="#2932e1" d="M 309.5,133.5 C 320.713,131.851 327.547,136.517 330,147.5C 332.569,163.917 325.735,171.75 309.5,171C 304.162,168.993 300.996,165.159 300,159.5C 297.968,148.75 301.134,140.083 309.5,133.5 Z"/></g>
<g><path style="opacity:0.98" fill="#2932e1" d="M 264.5,150.5 C 270.705,150.07 276.372,151.57 281.5,155C 285.935,159.378 289.768,164.212 293,169.5C 297.907,175.078 303.407,179.911 309.5,184C 323.861,195.138 326.694,208.638 318,224.5C 312.148,230.618 304.982,233.285 296.5,232.5C 286.979,231.663 277.479,230.663 268,229.5C 261.42,229.682 254.92,230.516 248.5,232C 235.871,235.252 225.371,232.085 217,222.5C 212.766,213.649 212.432,204.649 216,195.5C 224.977,186.191 234.31,177.191 244,168.5C 248.264,159.392 255.097,153.392 264.5,150.5 Z"/></g>
<g><path style="opacity:0.987" fill="#e10602" d="M 441.5,157.5 C 445.833,157.5 450.167,157.5 454.5,157.5C 454.5,158.833 454.5,160.167 454.5,161.5C 462.833,161.5 471.167,161.5 479.5,161.5C 479.5,164.5 479.5,167.5 479.5,170.5C 460.5,170.5 441.5,170.5 422.5,170.5C 422.771,190.19 422.438,209.856 421.5,229.5C 417.5,229.5 413.5,229.5 409.5,229.5C 409.678,226.784 410.178,224.117 411,221.5C 411.5,201.503 411.667,181.503 411.5,161.5C 421.5,161.5 431.5,161.5 441.5,161.5C 441.5,160.167 441.5,158.833 441.5,157.5 Z"/></g>
<g><path style="opacity:0.992" fill="#e10702" d="M 59.5,159.5 C 73.8736,159.131 88.2069,159.631 102.5,161C 117.618,165.658 122.451,175.491 117,190.5C 115.5,192 114,193.5 112.5,195C 120.397,200.004 123.231,207.17 121,216.5C 119.092,222.74 114.925,226.573 108.5,228C 92.2153,229.423 75.882,229.923 59.5,229.5C 59.5,206.167 59.5,182.833 59.5,159.5 Z M 75.5,174.5 C 83.1739,174.334 90.8406,174.5 98.5,175C 102.79,177.531 103.623,181.031 101,185.5C 100.25,186.126 99.4162,186.626 98.5,187C 90.8406,187.5 83.1739,187.666 75.5,187.5C 75.5,183.167 75.5,178.833 75.5,174.5 Z M 75.5,202.5 C 83.5069,202.334 91.5069,202.5 99.5,203C 103.124,205.161 104.291,208.328 103,212.5C 102.097,213.701 100.931,214.535 99.5,215C 91.5069,215.5 83.5069,215.666 75.5,215.5C 75.5,211.167 75.5,206.833 75.5,202.5 Z"/></g>
<g><path style="opacity:1" fill="#e10602" d="M 182.5,160.5 C 187.833,160.5 193.167,160.5 198.5,160.5C 198.5,164.833 198.5,169.167 198.5,173.5C 193.167,173.5 187.833,173.5 182.5,173.5C 182.5,169.167 182.5,164.833 182.5,160.5 Z"/></g>
<g><path style="opacity:0.972" fill="#e10602" d="M 335.5,161.5 C 358.5,161.5 381.5,161.5 404.5,161.5C 404.5,165.167 404.5,168.833 404.5,172.5C 394.917,172.182 385.417,172.515 376,173.5C 375.598,174.872 375.098,176.205 374.5,177.5C 383.475,178.498 392.475,178.832 401.5,178.5C 401.667,193.504 401.5,208.504 401,223.5C 400.167,226.333 398.333,228.167 395.5,229C 376.503,229.5 357.503,229.667 338.5,229.5C 338.5,212.5 338.5,195.5 338.5,178.5C 345.5,178.5 352.5,178.5 359.5,178.5C 359.833,176.5 360.167,174.5 360.5,172.5C 352.167,172.5 343.833,172.5 335.5,172.5C 335.5,168.833 335.5,165.167 335.5,161.5 Z M 351.5,189.5 C 363.833,189.5 376.167,189.5 388.5,189.5C 388.5,192.5 388.5,195.5 388.5,198.5C 376.167,198.5 363.833,198.5 351.5,198.5C 351.5,195.5 351.5,192.5 351.5,189.5 Z M 351.5,208.5 C 363.833,208.5 376.167,208.5 388.5,208.5C 388.784,211.777 388.451,214.943 387.5,218C 375.505,218.5 363.505,218.667 351.5,218.5C 351.5,215.167 351.5,211.833 351.5,208.5 Z"/></g>
<g><path style="opacity:0.988" fill="#e10602" d="M 430.5,172.5 C 437.658,173.103 444.825,173.77 452,174.5C 457.375,174.147 462.708,173.48 468,172.5C 471.838,173.283 475.671,173.95 479.5,174.5C 479.5,177.833 479.5,181.167 479.5,184.5C 477.5,184.5 475.5,184.5 473.5,184.5C 473.665,187.85 473.498,191.183 473,194.5C 472.5,195.667 471.667,196.5 470.5,197C 457.171,197.5 443.837,197.667 430.5,197.5C 430.5,193.167 430.5,188.833 430.5,184.5C 428.5,184.5 426.5,184.5 424.5,184.5C 424.5,181.167 424.5,177.833 424.5,174.5C 427.082,174.975 429.082,174.308 430.5,172.5 Z M 441.5,184.5 C 448.5,184.5 455.5,184.5 462.5,184.5C 462.67,185.822 462.337,186.989 461.5,188C 454.842,188.5 448.175,188.666 441.5,188.5C 441.5,187.167 441.5,185.833 441.5,184.5 Z"/></g>
<g><path style="opacity:1" fill="#6a6fe9" d="M 254.5,172.5 C 254.5,177.5 254.5,182.5 254.5,187.5C 250.833,187.5 247.167,187.5 243.5,187.5C 246.625,186.521 249.958,186.187 253.5,186.5C 253.181,181.637 253.514,176.97 254.5,172.5 Z"/></g>
<g><path style="opacity:1" fill="#fafafe" d="M 254.5,172.5 C 257.5,172.5 260.5,172.5 263.5,172.5C 263.5,188.5 263.5,204.5 263.5,220.5C 256.159,220.666 248.826,220.5 241.5,220C 231.44,215.169 227.94,207.336 231,196.5C 233.651,191.343 237.818,188.343 243.5,187.5C 247.167,187.5 250.833,187.5 254.5,187.5C 254.5,182.5 254.5,177.5 254.5,172.5 Z"/></g>
<g><path style="opacity:0.99" fill="#e10703" d="M 127.5,178.5 C 140.171,178.333 152.838,178.5 165.5,179C 170.573,180.406 174.073,183.572 176,188.5C 176.5,202.163 176.667,215.829 176.5,229.5C 163.829,229.667 151.162,229.5 138.5,229C 126.145,227.047 121.645,219.88 125,207.5C 126.061,204.438 127.894,201.938 130.5,200C 140.754,198.574 151.088,198.074 161.5,198.5C 162.384,194.51 161.051,191.677 157.5,190C 147.506,189.5 137.506,189.334 127.5,189.5C 127.5,185.833 127.5,182.167 127.5,178.5 Z M 141.5,208.5 C 148.167,208.5 154.833,208.5 161.5,208.5C 161.5,211.833 161.5,215.167 161.5,218.5C 154.825,218.666 148.158,218.5 141.5,218C 137.581,214.84 137.581,211.673 141.5,208.5 Z"/></g>
<g><path style="opacity:0.993" fill="#e10602" d="M 182.5,178.5 C 187.833,178.5 193.167,178.5 198.5,178.5C 198.5,195.167 198.5,211.833 198.5,228.5C 193.167,228.5 187.833,228.5 182.5,228.5C 182.5,211.833 182.5,195.167 182.5,178.5 Z"/></g>
<g><path style="opacity:1" fill="#fafafe" d="M 270.5,186.5 C 273.5,186.5 276.5,186.5 279.5,186.5C 279.334,194.507 279.5,202.507 280,210.5C 283.73,211.46 287.563,211.793 291.5,211.5C 291.5,203.167 291.5,194.833 291.5,186.5C 294.5,186.5 297.5,186.5 300.5,186.5C 300.5,197.833 300.5,209.167 300.5,220.5C 292.493,220.666 284.493,220.5 276.5,220C 274.714,219.215 273.214,218.049 272,216.5C 270.551,206.605 270.051,196.605 270.5,186.5 Z"/></g>
<g><path style="opacity:1" fill="#2d34e1" d="M 244.5,196.5 C 247.5,196.5 250.5,196.5 253.5,196.5C 253.5,201.5 253.5,206.5 253.5,211.5C 242.853,213.969 238.353,209.969 240,199.5C 241.129,197.859 242.629,196.859 244.5,196.5 Z"/></g>
<g><path style="opacity:1" fill="#696fe9" d="M 244.5,196.5 C 247.625,195.521 250.958,195.187 254.5,195.5C 254.821,201.026 254.488,206.36 253.5,211.5C 253.5,206.5 253.5,201.5 253.5,196.5C 250.5,196.5 247.5,196.5 244.5,196.5 Z"/></g>
<g><path style="opacity:0.972" fill="#e10703" d="M 426.5,200.5 C 443.5,200.5 460.5,200.5 477.5,200.5C 477.665,203.85 477.498,207.183 477,210.5C 472.742,213.38 468.242,215.88 463.5,218C 468.645,219.446 473.979,219.946 479.5,219.5C 479.5,222.833 479.5,226.167 479.5,229.5C 469.654,230.557 460.321,228.891 451.5,224.5C 442.679,228.891 433.346,230.557 423.5,229.5C 423.5,226.167 423.5,222.833 423.5,219.5C 429.021,219.946 434.355,219.446 439.5,218C 435.374,216.034 431.374,213.868 427.5,211.5C 426.511,207.893 426.177,204.226 426.5,200.5 Z M 444.5,210.5 C 449.316,209.35 454.316,209.184 459.5,210C 456.95,211.442 454.284,212.608 451.5,213.5C 449.261,212.212 446.928,211.212 444.5,210.5 Z"/></g>
</svg>
